<?xml version="1.0" encoding="UTF-8"?>
<svg width="149px" height="35px" viewBox="0 0 149 35" version="1.1" xmlns="http://www.w3.org/2000/svg" xmlns:xlink="http://www.w3.org/1999/xlink">
    <!-- Generator: Sketch 44.1 (41455) - http://www.bohemiancoding.com/sketch -->
    <title>Acorns Secondary</title>
    <desc>Created with Sketch.</desc>
    <defs>
        <linearGradient x1="50%" y1="0%" x2="50%" y2="100%" id="linearGradient-1">
            <stop stop-color="#74C947" offset="0%"></stop>
            <stop stop-color="#4BC459" offset="100%"></stop>
        </linearGradient>
    </defs>
    <g id="Concept-1" stroke="none" stroke-width="1" fill="none" fill-rule="evenodd">
        <g id="Main-Copy" transform="translate(-1051.000000, -5925.000000)" fill="url(#linearGradient-1)">
            <g id="Acorns-Secondary" transform="translate(1051.000000, 5925.000000)">
                <path d="M148.283381,21.0869588 C148.61934,21.7158763 148.789981,22.4945361 148.789981,23.4023711 C148.789981,24.3058763 148.614729,25.1289175 148.270255,25.8487629 C147.926845,26.565 147.454657,27.180567 146.866817,27.678866 C146.284298,28.1728351 145.601026,28.5553093 144.83474,28.8165464 C144.075195,29.0748969 143.2486,29.2062371 142.379079,29.2062371 C140.957902,29.2062371 139.64954,28.9237113 138.489469,28.3665979 C137.320883,27.8062371 136.343514,26.9680412 135.584324,25.8754639 L135.385657,25.5900515 L136.671669,24.7136082 L136.860757,24.9842268 C138.155283,26.8370619 139.973438,27.7376804 142.419521,27.7376804 C142.977562,27.7376804 143.550148,27.6453093 144.121669,27.4634536 C144.688933,27.2837629 145.212917,27.0091753 145.679074,26.6483505 C146.138136,26.2936598 146.515957,25.8429897 146.80296,25.3086082 C147.084995,24.7821649 147.227964,24.1684021 147.227964,23.485 C147.227964,22.6810825 147.051648,22.0240206 146.703626,21.533299 C146.343543,21.0259794 145.883417,20.6135567 145.336019,20.308299 C144.767336,19.9914948 144.129829,19.7298969 143.44159,19.5303608 C142.728164,19.3243299 142.062276,19.1385052 141.443571,18.9739691 C140.755333,18.7773196 140.1047,18.5579381 139.503379,18.3197938 C138.880771,18.0751546 138.32486,17.7504124 137.852317,17.3549485 C137.36984,16.9515464 136.985279,16.4456701 136.709274,15.8510309 C136.43256,15.2574742 136.292074,14.5120103 136.292074,13.6359278 C136.292074,12.7555155 136.469455,11.9764948 136.818895,11.3212371 C137.165143,10.6721134 137.634138,10.1258247 138.2124,9.6978866 C138.781438,9.2764433 139.435974,8.95278351 140.157914,8.73592784 C140.873469,8.52087629 141.607117,8.41154639 142.338281,8.41154639 C144.980193,8.41154639 146.994176,9.39335052 148.324179,11.3298969 L148.533133,11.6340722 L147.192488,12.4271649 L147.012979,12.1879381 C146.425848,11.4060309 145.756412,10.8189691 145.022764,10.4440722 C144.289471,10.0702577 143.386248,9.88046392 142.338281,9.88046392 C141.854386,9.88046392 141.335724,9.94685567 140.796486,10.0781959 C140.269664,10.2066495 139.780802,10.4206186 139.343736,10.7139691 C138.915183,11.0019072 138.55439,11.3901546 138.272,11.8671649 C137.994931,12.3347938 137.854445,12.9160825 137.854445,13.5947938 C137.854445,14.3633505 137.970807,14.9781959 138.200338,15.4220103 C138.428805,15.8647423 138.751638,16.225567 139.159614,16.4951031 C139.589231,16.779433 140.119955,17.0237113 140.73795,17.2210825 C141.379714,17.4260309 142.094205,17.6259278 142.862974,17.8153608 C143.604781,18.0116495 144.330979,18.2451031 145.027731,18.5099485 C145.742221,18.7823711 146.381502,19.1237113 146.929255,19.5253093 C147.49439,19.9402577 147.94955,20.4659794 148.283381,21.0869588 Z M129.305393,11.1227835 C129.8386,11.9259794 130.222452,12.8410309 130.446662,13.8419588 C130.667324,14.827732 130.778719,15.840567 130.778719,16.8523196 L130.778719,29.2026289 L129.218831,29.2026289 L129.218831,16.9349485 C129.218831,16.1884021 129.139364,15.3751031 128.98185,14.5174227 C128.828593,13.6828351 128.537688,12.9164433 128.117295,12.2398969 C127.702579,11.5709278 127.132121,11.0019072 126.422598,10.5483505 C125.724426,10.1030928 124.81801,9.87721649 123.72889,9.87721649 C122.758262,9.87721649 121.832688,10.0821649 120.977712,10.4862887 C120.122736,10.8904124 119.37206,11.4792784 118.746614,12.235567 C118.114783,12.9997938 117.604281,13.9440722 117.229298,15.0420619 C116.85254,16.143299 116.661324,17.4198969 116.661324,18.836134 L116.661324,29.2026289 L115.100726,29.2026289 L115.100726,14.1241237 C115.100726,13.8242784 115.093986,13.4555155 115.08086,13.0185567 L115.040417,11.6752062 C115.026581,11.2252577 115.006714,10.7947938 114.980462,10.3852577 C114.9535,9.97680412 114.926538,9.63582474 114.900286,9.36268041 L114.821174,8.41154639 L116.384964,8.41154639 L116.457336,9.29664948 C116.484652,9.57989691 116.505583,9.93494845 116.519419,10.351701 C116.532545,10.7644845 116.545671,11.2119072 116.559862,11.6928866 C116.57086,12.0959278 116.582212,12.486701 116.59321,12.8673711 C116.791167,12.4780412 117.01786,12.1110825 117.272579,11.7693814 C117.801529,11.0578351 118.409945,10.4437113 119.0808,9.94360825 C119.755557,9.44170103 120.494881,9.05634021 121.279614,8.79871134 C122.063993,8.54108247 122.888105,8.41046392 123.72889,8.41046392 C125.071664,8.41046392 126.213643,8.66015464 127.122898,9.15304124 C128.030379,9.64592784 128.764381,10.3087629 129.305393,11.1227835 Z M109.645198,8.41154639 C109.773976,8.41154639 109.914107,8.42742268 110.074105,8.45953608 L110.344433,8.51365979 L110.344433,10.0143299 L109.929007,9.91005155 C109.846348,9.88912371 109.771138,9.87865979 109.706217,9.87865979 L109.483426,9.87865979 C108.366281,9.87865979 107.40594,10.1319588 106.628657,10.6320619 C105.838957,11.1393814 105.17981,11.8126804 104.670017,12.6339175 C104.152064,13.4663402 103.765019,14.405567 103.51846,15.4259794 C103.270126,16.4539691 103.144186,17.4906186 103.144186,18.5070619 L103.144186,29.2026289 L101.583943,29.2026289 L101.583943,14.125567 C101.583943,13.8257216 101.576848,13.4569588 101.563721,13.02 L101.522924,11.6766495 C101.509798,11.2263402 101.489221,10.7962371 101.463324,10.386701 C101.436362,9.9778866 101.4094,9.63726804 101.383502,9.36412371 L101.30439,8.41154639 L102.867826,8.41154639 L102.940198,9.29809278 C102.967514,9.58134021 102.988445,9.93639175 103.001926,10.3527835 C103.015407,10.7666495 103.028888,11.2155155 103.043079,11.6975773 C103.051948,12.0273711 103.060817,12.3503093 103.07004,12.6663918 C103.6146,11.4042268 104.342217,10.436134 105.242602,9.77762887 C106.481786,8.87123711 107.840169,8.41154639 109.281212,8.41154639 L109.645198,8.41154639 Z M94.9498952,18.7693814 C94.9498952,20.0149485 94.7533571,21.195567 94.3652476,22.2784021 C93.9796214,23.3558247 93.4130667,24.3080412 92.6804833,25.1090722 C91.949319,25.9090206 91.0496429,26.5545361 90.0066429,27.0279381 C88.9668357,27.5009794 87.7712881,27.7402062 86.4540571,27.7402062 C85.1368262,27.7402062 83.9483738,27.5009794 82.9224024,27.0286598 C81.8921738,26.5548969 80.9988833,25.9093814 80.267719,25.1087113 C79.5354905,24.3087629 78.968581,23.3565464 78.5826,22.2784021 C78.1948452,21.1952062 77.9983071,20.0149485 77.9983071,18.7693814 C77.9983071,17.5519588 78.1948452,16.3854124 78.5826,15.3014948 C78.968581,14.2237113 79.5354905,13.2714948 80.267719,12.4708247 C80.9985286,11.6715979 81.8907548,11.0329381 82.9192095,10.5732474 C83.9469548,10.1139175 85.1364714,9.88082474 86.4540571,9.88082474 C87.7712881,9.88082474 88.9679,10.1139175 90.0098357,10.5739691 C91.0507071,11.0336598 91.9496738,11.6719588 92.6804833,12.4708247 C93.4130667,13.2722165 93.9796214,14.2247938 94.3652476,15.3014948 C94.7533571,16.3850515 94.9498952,17.5519588 94.9498952,18.7693814 Z M93.7061,11.3201546 C94.5944238,12.2279897 95.2908214,13.3274227 95.7764905,14.5874227 C96.260031,15.8456186 96.5051714,17.2524742 96.5051714,18.7693814 C96.5051714,20.2859278 96.260031,21.6992784 95.7768452,22.9704639 C95.291531,24.2448969 94.5954881,25.3580412 93.7078738,26.2785052 C92.8191952,27.2004124 91.7435571,27.9263918 90.5111143,28.4362371 C89.2800905,28.9446392 87.9149667,29.2026289 86.4540571,29.2026289 C84.9920833,29.2026289 83.6333452,28.9442784 82.4161571,28.4355155 C81.1964857,27.9256701 80.1275881,27.2000515 79.239619,26.2785052 C78.35165,25.3573196 77.6552524,24.2441753 77.1713571,22.9704639 C76.6881714,21.7018041 76.443031,20.2884536 76.443031,18.7693814 C76.443031,17.2499485 76.6881714,15.842732 77.1720667,14.5874227 C77.6559619,13.3281443 78.3523595,12.2290722 79.2417476,11.3201546 C80.1297167,10.4130412 81.19755,9.695 82.4161571,9.18587629 C83.6333452,8.67675258 84.9920833,8.41876289 86.4540571,8.41876289 C87.9149667,8.41876289 89.2800905,8.67675258 90.5107595,9.18515464 C91.7424929,9.69427835 92.8174214,10.4126804 93.7061,11.3201546 Z M71.1950381,25.702268 L71.4235048,25.4774742 L72.5104952,26.5141237 L72.2678381,26.7620103 C71.4284714,27.6196907 70.4287524,28.2500515 69.2967071,28.6354124 C68.1799167,29.0160825 67.0255214,29.2087629 65.8665143,29.2087629 C64.4574,29.2087629 63.1458452,28.9504124 61.9683905,28.440567 C60.7912905,27.9318041 59.7518381,27.2137629 58.878769,26.3073711 C58.004281,25.3998969 57.3156881,24.2943299 56.8317929,23.021701 C56.3489619,21.7541237 56.1041762,20.3559278 56.1041762,18.865 C56.1041762,17.3740722 56.3489619,15.9755155 56.8317929,14.7075773 C57.3149786,13.4371134 58.0028619,12.3254124 58.8769952,11.403866 C59.750419,10.4837629 60.7891619,9.75201031 61.9651976,9.22881443 C63.1440714,8.70453608 64.4566905,8.43896907 65.8665143,8.43896907 C67.0847667,8.43896907 68.2590286,8.66881443 69.3566619,9.12237113 C70.4564238,9.57773196 71.4100238,10.2279381 72.1912095,11.0542268 L72.4320929,11.3089691 L71.2471881,12.377732 L71.0247524,12.1421134 C70.3599286,11.4374227 69.5698738,10.8813918 68.6758738,10.4898969 C67.781519,10.0984021 66.8364333,9.89994845 65.8665143,9.89994845 C64.6071095,9.89994845 63.4622929,10.1453093 62.4643476,10.6284536 C61.4621452,11.1148454 60.5961714,11.7733505 59.8912595,12.5848454 C59.184219,13.398866 58.6293714,14.3597423 58.2423262,15.4404124 C57.8545714,16.5236082 57.6580333,17.6757216 57.6580333,18.865 C57.6580333,20.0546392 57.8545714,21.2067526 58.2423262,22.2895876 C58.6290167,23.3695361 59.1831548,24.3224742 59.8894857,25.1224227 C60.5936881,25.9209278 61.4585976,26.565 62.4611548,27.0376804 C63.4591,27.5089175 64.604981,27.7477835 65.8665143,27.7477835 C66.8438833,27.7477835 67.815931,27.5742268 68.7556952,27.2321649 C69.6862357,26.8940722 70.5068,26.3791753 71.1950381,25.702268 Z M50.0590333,19.7580412 C50.0590333,20.6633505 49.9533143,21.6022165 49.7443595,22.5486598 C49.5393071,23.4770619 49.1696452,24.3390722 48.6456619,25.1097938 C48.125581,25.8740206 47.4235071,26.5119588 46.5582429,27.005567 C45.6986548,27.4966495 44.5999571,27.7456186 43.2923048,27.7456186 C42.7583881,27.7456186 42.1826095,27.6662371 41.579869,27.5089175 C40.9870619,27.3541237 40.4382452,27.1065979 39.9479643,26.7721134 C39.468681,26.4462887 39.0688643,26.0057216 38.7602214,25.4626804 C38.455481,24.9272165 38.3008048,24.242732 38.3008048,23.4269072 C38.3008048,22.3076289 38.5789381,21.4113402 39.1277548,20.763299 C39.6946643,20.0939691 40.4318595,19.5707732 41.3187643,19.2081443 C42.2287286,18.8364948 43.2440571,18.5875258 44.3367238,18.4680928 C45.4481929,18.346134 46.5220571,18.284433 47.5288714,18.284433 L50.0590333,18.284433 L50.0590333,19.7580412 Z M52.0655667,29.2026289 L50.5500238,29.2026289 C50.4936167,28.9157732 50.3293619,27.7171134 50.3016905,27.3046907 C50.2750833,26.9095876 50.2420905,26.501134 50.2016476,26.0775258 C50.1714929,25.7571134 50.1480786,25.4377835 50.1328238,25.1256701 C49.5549167,26.3106186 48.7421571,27.2408247 47.7058976,27.8996907 C46.3397095,28.7681959 44.8546762,29.2087629 43.2923048,29.2087629 C42.5114738,29.2087629 41.7267405,29.093299 40.9593905,28.8652577 C40.1845905,28.6346907 39.4779048,28.2846907 38.8584905,27.8239175 C38.2294976,27.3570103 37.7147381,26.7501031 37.3294667,26.0201546 C36.9417119,25.2869588 36.744819,24.4144845 36.744819,23.4269072 C36.744819,22.0045361 37.1176738,20.8347423 37.8527405,19.9510825 C38.5693595,19.0897938 39.4722286,18.4139691 40.5361595,17.9416495 C41.5819976,17.4779897 42.7200738,17.1709278 43.9195238,17.0298454 C45.0969786,16.8912887 46.1889357,16.8212887 47.1655952,16.8212887 L50.0590333,16.8212887 L50.0590333,15.6356186 C50.0590333,13.6326804 49.541081,12.1587113 48.5197214,11.2544845 C47.4838167,10.3390722 46.1052119,9.87469072 44.4218667,9.87469072 C43.3692881,9.87469072 42.3745357,10.0735052 41.4659905,10.4660825 C40.5499952,10.8615464 39.7191429,11.3959278 38.9968476,12.0551546 L38.7165857,12.3109794 L37.8435167,11.0470103 L38.0687905,10.8460309 C38.957469,10.0514948 39.9777643,9.44025773 41.1012952,9.02927835 C42.2230524,8.61938144 43.3405524,8.41154639 44.4218667,8.41154639 C46.6213905,8.41154639 48.386331,9.00221649 49.6680857,10.1673196 C50.9601286,11.3428866 51.6153738,13.1968041 51.6153738,15.6771134 L51.6153738,24.0045876 C51.6153738,24.7103608 51.6487214,25.4702577 51.7150619,26.2633505 C51.7803381,27.0568041 51.9857452,28.6848454 52.0655667,29.2026289 Z M27.0921024,16.7328866 L1.13027143,16.7354124 C-1.15829762,16.5539175 -1.08415238,5.21391753 12.1995524,4.2407732 C12.3258476,4.18087629 12.3531643,4.16752577 12.4266,3.92216495 C12.5500571,3.46752577 12.6206548,3.02443299 12.6327167,2.60551546 C12.6465524,2.09314433 12.5791476,1.63670103 12.4283738,1.21056701 C12.2932095,0.832061856 12.0867381,0.472319588 11.8185381,0.150463918 C12.2279333,0.151546392 12.6327167,0.234896907 13.0247286,0.398350515 C13.5284905,0.603298969 14.0386381,0.955824742 14.4987643,1.42128866 C14.9255429,1.84958763 15.3200381,2.37278351 15.6723167,2.97716495 C15.8408286,3.26690722 15.9926667,3.56025773 16.1367,3.87634021 C16.2048143,4.02969072 16.2708,4.18845361 16.3332381,4.35551546 C29.2990762,5.49319588 29.3629333,16.5521134 27.0921024,16.7328866 Z M26.4804929,17.9290206 C26.4804929,17.9290206 28.5335,30.9219588 15.9621571,33.3759278 C15.3920548,33.8706186 14.44555,35.0050515 14.1007214,35 C13.7555381,35.0050515 12.8090333,33.8706186 12.2382214,33.3759278 C-0.403364286,31.1720103 1.71882143,17.9290206 1.71882143,17.9290206 L26.4804929,17.9290206 Z" id="Fill-1"></path>
            </g>
        </g>
    </g>
</svg>
