<?xml version="1.0" encoding="UTF-8"?>
<svg width="360px" height="139px" viewBox="0 0 360 139" version="1.1" xmlns="http://www.w3.org/2000/svg" xmlns:xlink="http://www.w3.org/1999/xlink">
    <!-- Generator: Sketch 44.1 (41455) - http://www.bohemiancoding.com/sketch -->
    <title>CRI</title>
    <desc>Created with Sketch.</desc>
    <defs></defs>
    <g id="Page-1" stroke="none" stroke-width="1" fill="none" fill-rule="evenodd">
        <g id="CRI" transform="translate(2.000000, 2.000000)">
            <path d="M169.301,12.281 C169.351,10.243 169.202,8.205 168.258,7.062 C167.313,5.919 165.176,5.522 164.232,5.522 C160.455,5.522 158.964,7.808 158.814,8.305 C158.666,8.702 157.771,9.597 157.771,15.759 L157.771,25.351 C157.771,34.148 160.653,35.191 164.183,35.191 C165.574,35.191 169.798,34.694 169.848,27.687 L174.569,27.687 C174.768,39.018 166.767,39.018 164.431,39.018 C159.958,39.018 153.1,38.72 153.1,24.804 L153.1,14.666 C153.1,4.528 157.572,1.645 164.63,1.645 C171.736,1.645 174.47,5.323 174.022,12.281 L169.301,12.281" id="Fill-1" fill="#1E294A" fill-rule="nonzero"></path>
            <path d="M190.023,6.615 L189.924,6.615 L184.309,25.748 L195.789,25.748 L190.023,6.615 L190.023,6.615 Z M187.24,2.391 L193.056,2.391 L204.734,38.273 L199.615,38.273 L197.031,29.724 L183.165,29.724 L180.481,38.273 L175.859,38.273 L187.24,2.391 L187.24,2.391 Z" id="Fill-2" fill="#1E294A" fill-rule="nonzero"></path>
            <polyline id="Fill-3" fill="#1E294A" fill-rule="nonzero" points="233.854 2.391 233.854 38.273 227.593 38.273 213.429 7.161 213.33 7.161 213.33 38.273 209.255 38.273 209.255 2.391 215.715 2.391 229.681 33.104 229.779 33.104 229.779 2.391 233.854 2.391"></polyline>
            <path d="M255.223,12.281 C255.272,10.243 255.124,8.205 254.18,7.062 C253.235,5.919 251.098,5.522 250.154,5.522 C246.377,5.522 244.886,7.808 244.736,8.305 C244.588,8.702 243.693,9.597 243.693,15.759 L243.693,25.351 C243.693,34.148 246.575,35.191 250.104,35.191 C251.496,35.191 255.72,34.694 255.77,27.687 L260.491,27.687 C260.689,39.018 252.688,39.018 250.353,39.018 C245.88,39.018 239.021,38.72 239.021,24.804 L239.021,14.666 C239.021,4.528 243.494,1.645 250.552,1.645 C257.658,1.645 260.392,5.323 259.944,12.281 L255.223,12.281" id="Fill-4" fill="#1E294A" fill-rule="nonzero"></path>
            <polyline id="Fill-5" fill="#1E294A" fill-rule="nonzero" points="265.161 38.273 265.161 2.391 283.648 2.391 283.648 6.366 269.733 6.366 269.733 17.896 282.655 17.896 282.655 21.872 269.733 21.872 269.733 34.297 283.947 34.297 283.947 38.273 265.161 38.273"></polyline>
            <path d="M293.687,17.797 L300.545,17.797 C303.825,17.797 305.415,14.964 305.415,11.833 C305.415,9.249 304.123,6.366 300.595,6.366 L293.687,6.366 L293.687,17.797 L293.687,17.797 Z M293.687,21.773 L293.687,38.273 L289.114,38.273 L289.114,2.391 L301.489,2.391 C307.851,2.391 310.087,6.864 310.087,11.336 C310.087,15.561 307.751,18.791 303.527,19.536 L303.527,19.636 C307.652,20.281 309.143,21.673 309.392,28.88 C309.441,30.42 309.938,36.036 310.634,38.273 L305.863,38.273 C304.57,35.787 304.869,31.116 304.472,26.345 C304.123,21.971 300.595,21.773 299.054,21.773 L293.687,21.773 L293.687,21.773 Z" id="Fill-6" fill="#1E294A" fill-rule="nonzero"></path>
            <path d="M157.97,65.256 L164.828,65.256 C168.108,65.256 169.698,62.423 169.698,59.292 C169.698,56.708 168.406,53.825 164.878,53.825 L157.97,53.825 L157.97,65.256 L157.97,65.256 Z M157.97,69.232 L157.97,85.731 L153.397,85.731 L153.397,49.849 L165.772,49.849 C172.134,49.849 174.37,54.322 174.37,58.795 C174.37,63.019 172.034,66.25 167.811,66.995 L167.811,67.094 C171.936,67.74 173.426,69.132 173.675,76.338 C173.725,77.879 174.222,83.495 174.917,85.731 L170.146,85.731 C168.854,83.246 169.152,78.574 168.755,73.804 C168.406,69.43 164.878,69.232 163.337,69.232 L157.97,69.232 L157.97,69.232 Z" id="Fill-7" fill="#1E294A" fill-rule="nonzero"></path>
            <polyline id="Fill-8" fill="#1E294A" fill-rule="nonzero" points="179.239 85.731 179.239 49.849 197.727 49.849 197.727 53.825 183.812 53.825 183.812 65.355 196.733 65.355 196.733 69.331 183.812 69.331 183.812 81.755 198.025 81.755 198.025 85.731 179.239 85.731"></polyline>
            <path d="M206.124,75.046 L206.124,76.09 C206.124,80.96 209.206,82.501 212.138,82.501 C215.766,82.501 218.549,80.96 218.549,76.686 C218.549,68.735 202.446,69.629 202.446,58.845 C202.446,52.484 206.97,49.104 212.982,49.104 C219.543,49.104 223.221,52.284 222.922,59.59 L218.151,59.59 C218.201,55.664 216.959,53.079 212.635,53.079 C209.901,53.079 207.118,54.471 207.118,58.348 C207.118,66.25 223.221,65.107 223.221,76.488 C223.221,84.041 218.002,86.477 212.088,86.477 C201.503,86.576 201.503,78.475 201.602,75.046 L206.124,75.046" id="Fill-9" fill="#1E294A" fill-rule="nonzero"></path>
            <polyline id="Fill-10" fill="#1E294A" fill-rule="nonzero" points="228.238 85.731 228.238 49.849 246.726 49.849 246.726 53.825 232.811 53.825 232.811 65.355 245.732 65.355 245.732 69.331 232.811 69.331 232.811 81.755 247.024 81.755 247.024 85.731 228.238 85.731"></polyline>
            <path d="M263.97,54.073 L263.87,54.073 L258.255,73.207 L269.734,73.207 L263.97,54.073 L263.97,54.073 Z M261.187,49.849 L267.002,49.849 L278.681,85.731 L273.562,85.731 L270.978,77.183 L257.111,77.183 L254.428,85.731 L249.806,85.731 L261.187,49.849 L261.187,49.849 Z" id="Fill-11" fill="#1E294A" fill-rule="nonzero"></path>
            <path d="M287.376,65.256 L294.234,65.256 C297.515,65.256 299.104,62.423 299.104,59.292 C299.104,56.708 297.813,53.825 294.284,53.825 L287.376,53.825 L287.376,65.256 L287.376,65.256 Z M287.376,69.232 L287.376,85.731 L282.804,85.731 L282.804,49.849 L295.179,49.849 C301.54,49.849 303.776,54.322 303.776,58.795 C303.776,63.019 301.44,66.25 297.217,66.995 L297.217,67.094 C301.342,67.74 302.832,69.132 303.081,76.338 C303.131,77.879 303.628,83.495 304.323,85.731 L299.553,85.731 C298.26,83.246 298.559,78.574 298.161,73.804 C297.813,69.43 294.284,69.232 292.743,69.232 L287.376,69.232 L287.376,69.232 Z" id="Fill-12" fill="#1E294A" fill-rule="nonzero"></path>
            <path d="M324.797,59.739 C324.847,57.701 324.698,55.664 323.754,54.521 C322.81,53.378 320.672,52.98 319.729,52.98 C315.951,52.98 314.46,55.266 314.311,55.763 C314.162,56.161 313.268,57.055 313.268,63.218 L313.268,72.81 C313.268,81.606 316.149,82.65 319.679,82.65 C321.07,82.65 325.294,82.153 325.344,75.146 L330.065,75.146 C330.264,86.477 322.263,86.477 319.927,86.477 C315.454,86.477 308.596,86.178 308.596,72.263 L308.596,62.125 C308.596,51.987 313.068,49.104 320.126,49.104 C327.232,49.104 329.966,52.781 329.519,59.739 L324.797,59.739" id="Fill-13" fill="#1E294A" fill-rule="nonzero"></path>
            <polyline id="Fill-14" fill="#1E294A" fill-rule="nonzero" points="334.934 85.731 334.934 49.849 339.506 49.849 339.506 65.355 352.08 65.355 352.08 49.849 356.652 49.849 356.652 85.731 352.08 85.731 352.08 69.331 339.506 69.331 339.506 85.731 334.934 85.731"></polyline>
            <polygon id="Fill-15" fill="#1E294A" fill-rule="nonzero" points="154.094 97.308 158.666 97.308 158.666 133.19 154.094 133.19"></polygon>
            <polyline id="Fill-16" fill="#1E294A" fill-rule="nonzero" points="190.173 97.308 190.173 133.19 183.911 133.19 169.747 102.079 169.648 102.079 169.648 133.19 165.573 133.19 165.573 97.308 172.033 97.308 185.999 128.022 186.098 128.022 186.098 97.308 190.173 97.308"></polyline>
            <path d="M200.061,122.505 L200.061,123.549 C200.061,128.419 203.143,129.96 206.074,129.96 C209.702,129.96 212.485,128.419 212.485,124.145 C212.485,116.194 196.383,117.088 196.383,106.303 C196.383,99.943 200.906,96.563 206.919,96.563 C213.479,96.563 217.157,99.743 216.858,107.049 L212.088,107.049 C212.138,103.123 210.896,100.538 206.571,100.538 C203.838,100.538 201.055,101.93 201.055,105.807 C201.055,113.709 217.157,112.566 217.157,123.947 C217.157,131.5 211.938,133.936 206.024,133.936 C195.439,134.035 195.439,125.934 195.538,122.505 L200.061,122.505" id="Fill-17" fill="#1E294A" fill-rule="nonzero"></path>
            <polyline id="Fill-18" fill="#1E294A" fill-rule="nonzero" points="242.602 97.308 242.602 101.284 233.159 101.284 233.159 133.19 228.587 133.19 228.587 101.284 219.144 101.284 219.144 97.308 242.602 97.308"></polyline>
            <polygon id="Fill-19" fill="#1E294A" fill-rule="nonzero" points="247.222 97.308 251.794 97.308 251.794 133.19 247.222 133.19"></polygon>
            <polyline id="Fill-20" fill="#1E294A" fill-rule="nonzero" points="280.37 97.308 280.37 101.284 270.928 101.284 270.928 133.19 266.355 133.19 266.355 101.284 256.912 101.284 256.912 97.308 280.37 97.308"></polyline>
            <path d="M284.294,97.308 L288.866,97.308 L288.866,120.269 C288.866,128.121 291.252,130.109 295.576,130.109 C299.899,130.109 302.285,128.121 302.285,120.269 L302.285,97.308 L306.857,97.308 L306.857,120.07 C306.857,130.01 303.18,133.936 295.576,133.936 C287.972,133.936 284.294,130.01 284.294,120.07 L284.294,97.308" id="Fill-21" fill="#1E294A" fill-rule="nonzero"></path>
            <polyline id="Fill-22" fill="#1E294A" fill-rule="nonzero" points="334.935 97.308 334.935 101.284 325.492 101.284 325.492 133.19 320.92 133.19 320.92 101.284 311.477 101.284 311.477 97.308 334.935 97.308"></polyline>
            <polyline id="Fill-23" fill="#1E294A" fill-rule="nonzero" points="338.562 133.19 338.562 97.308 357.049 97.308 357.049 101.284 343.134 101.284 343.134 112.814 356.056 112.814 356.056 116.79 343.134 116.79 343.134 129.214 357.348 129.214 357.348 133.19 338.562 133.19"></polyline>
            <path d="M83.658,91.979 C80.785,91.979 78.074,92.611 75.611,93.721 C76.896,91.122 77.632,88.213 77.632,85.124 C77.632,80.386 75.929,76.035 73.12,72.649 C74.312,72.864 75.509,72.995 76.736,72.995 C87.559,72.995 96.326,64.221 96.326,53.406 C96.326,42.587 87.559,33.815 76.736,33.815 C75.06,33.815 73.412,34.055 71.858,34.455 C74.516,31.107 76.139,26.88 76.139,22.267 C76.139,11.447 67.345,2.677 56.547,2.677 C45.724,2.677 36.958,11.447 36.958,22.267 C36.958,33.081 45.724,41.852 56.547,41.852 C58.222,41.852 59.865,41.611 61.421,41.217 C58.768,44.563 57.14,48.791 57.14,53.406 C57.14,58.146 58.843,62.5 61.657,65.89 C60.461,65.668 59.265,65.545 58.037,65.545 C47.214,65.545 38.448,74.312 38.448,85.124 C38.448,95.945 47.214,104.727 58.037,104.727 C60.915,104.727 63.622,104.083 66.085,102.974 C64.804,105.564 64.065,108.474 64.065,111.563 C64.065,122.385 72.859,131.154 83.658,131.154 C94.479,131.154 103.249,122.385 103.249,111.563 C103.249,100.745 94.479,91.979 83.658,91.979" id="Fill-24" fill="#1E294A" fill-rule="nonzero"></path>
            <path d="M134.087,67.545 C134.087,104.573 104.057,134.586 67.057,134.586 C30.025,134.586 0,104.573 0,67.545 C0,30.513 30.025,0.496 67.057,0.496 C104.057,0.496 134.087,30.513 134.087,67.545 L134.087,67.545 Z" id="mainCircle" stroke="#1E294A" stroke-width="4"></path>
        </g>
    </g>
</svg>