<?xml version="1.0" encoding="UTF-8"?>
<svg width="137px" height="52px" viewBox="0 0 137 52" version="1.1" xmlns="http://www.w3.org/2000/svg" xmlns:xlink="http://www.w3.org/1999/xlink">
    <!-- Generator: Sketch 44.1 (41455) - http://www.bohemiancoding.com/sketch -->
    <title>Fill 1</title>
    <desc>Created with Sketch.</desc>
    <defs></defs>
    <g id="Concept-2" stroke="none" stroke-width="1" fill="none" fill-rule="evenodd">
        <g id="Header-Nav---Active-State" transform="translate(-210.000000, -38.000000)" fill="#FF5334">
            <path d="M304.313836,76.9400353 C304.313836,76.9400353 303.683368,74.6987723 306.033292,70.388651 C308.383215,66.0785297 310.217301,68.4347293 310.217301,68.4347293 C310.217301,68.4347293 312.223333,70.6185241 309.930725,73.8942163 C307.638117,77.1699085 304.313836,76.9400353 304.313836,76.9400353 M286.259548,80.0433227 C283.565733,87.1119216 277.031801,84.2385074 277.031801,84.2385074 C277.031801,84.2385074 276.286703,81.7099029 278.407366,74.641304 C280.528028,67.5727051 285.51445,70.3311827 285.51445,70.3311827 C285.51445,70.3311827 288.953362,72.9747238 286.259548,80.0433227 M281.387756,50.4471565 C281.387756,50.4471565 285.457135,39.815524 286.431493,44.9876695 C287.405852,50.1598151 277.891529,65.5613151 277.891529,65.5613151 C278.006159,62.1132181 281.387756,50.4471565 281.387756,50.4471565 M223.212829,76.9400353 C223.384774,70.1013096 227.85536,67.1129588 229.40287,68.6071342 C230.95038,70.1013096 230.377228,73.3195335 227.454153,75.3309234 C224.531078,77.3423133 223.212829,76.9400353 223.212829,76.9400353 M346.497822,75.8051517 C346.727083,78.1036532 345.351518,78.8433849 345.351518,78.8433849 C345.351518,78.8433849 339.677314,83.0454658 335.321359,81.7811636 C330.965403,80.5168613 330.736143,72.5425623 330.736143,72.5425623 L330.334936,72.5425623 L325.921666,84.7837665 C325.921666,84.7837665 324.144895,90.9625265 321.508396,89.8706291 C318.871896,88.7787317 318.929212,85.6754444 318.929212,85.6754444 C318.929212,85.6754444 314.802517,90.4455418 307.236911,89.8708589 C300.617005,89.3678965 298.479378,83.9373736 298.479378,83.9373736 C298.479378,83.9373736 294.054415,87.2500753 281.613578,89.7051204 C276.049418,90.3142842 272.102694,86.9429648 272.102694,86.9429648 C271.586857,87.4601794 268.262575,89.1302077 268.262575,89.1302077 C268.262575,89.1302077 263.505414,91.3208987 261.671327,87.9877382 C259.837241,84.6545778 261.04086,74.1516742 261.04086,74.1516742 L260.696969,74.1516742 C260.696969,74.1516742 257.945839,79.7697736 256.512959,84.8269826 C255.080079,89.8841916 253.303308,89.5828279 253.303308,89.5828279 C253.303308,89.5828279 250.036342,89.8703992 249.291244,87.1119216 C248.546147,84.353444 250.494863,74.1238596 250.494863,74.1238596 L250.208287,74.181098 C250.208287,74.181098 250.036342,73.8930669 247.514473,79.2378472 C243.215833,89.6970749 242.18416,90.1556718 239.719606,89.7014424 C237.255052,89.247443 237.140651,86.1310529 237.140651,86.1310529 L233.759513,88.0233686 C233.759513,88.0233686 225.506583,91.5785865 221.207943,88.3028943 C218.346997,86.1227775 217.366907,83.3465996 217.029894,81.7374877 L217.032416,81.7374877 C217.032416,81.7374877 213.386252,81.3506112 211.036329,80.4311186 C208.686406,79.5116261 211.067738,76.5377574 211.067738,76.5377574 C211.067738,76.5377574 211.818796,75.3883917 213.194361,76.5377574 C214.569926,77.687123 217.194733,77.1673799 217.194733,77.1673799 L217.194733,77.1680695 C217.423993,75.3555198 217.746793,72.9641496 218.868566,70.4408322 C221.218489,65.1537501 224.760339,63.3667163 227.683414,63.309248 C230.606489,63.2517798 232.669836,64.0455317 234.446608,66.5741362 C238.401356,76.4012127 223.900611,81.3791155 223.900611,81.3791155 C223.900611,81.3791155 223.499405,83.951166 227.454153,83.8936977 C231.408902,83.8362294 237.426998,79.5261081 237.426998,79.5261081 C237.713574,76.2504159 240.006182,65.9635931 240.636649,64.4119495 C241.267116,62.8603058 243.674355,63.1476472 243.674355,63.1476472 C243.674355,63.1476472 245.565756,62.7453692 245.909647,64.7567592 C246.253539,66.7681491 244.534083,74.9286454 244.534083,74.9286454 L244.820659,75.2734551 C244.992604,74.4688991 249.176614,67.4577685 249.176614,67.4577685 C249.176614,67.4577685 251.583852,63.2625838 255.252025,63.4349886 C258.920198,63.6073935 255.080079,74.8711771 255.080079,74.8711771 L255.366655,75.2159868 L255.653231,74.6987723 C256.111753,73.43447 261.556697,65.1590372 261.556697,65.1590372 C261.556697,65.1590372 263.620044,62.7453692 265.511446,63.3200521 C267.402847,63.8947349 267.517478,64.7567592 267.632108,66.3658711 C267.746738,67.9749831 266.141913,77.5147182 266.141913,77.5147182 C266.141913,77.5147182 265.22487,83.7787611 267.288217,83.6638245 C269.351564,83.548888 271.586857,81.3650932 271.586857,81.3650932 C271.586857,81.3650932 273.191682,69.0668805 274.280671,58.8949942 C275.36966,48.723108 280.069506,41.8843822 280.069506,41.8843822 C280.069506,41.8843822 281.445071,39.7580557 285.076333,38.3208889 C287.469128,37.4749557 290.075135,38.0367657 291.303285,43.263621 C293.882469,54.2400632 282.247484,67.2278954 282.247484,67.2278954 C282.247484,67.2278954 285.342505,62.285623 289.239938,64.6418226 C297.837218,70.0438413 290.787449,81.939776 290.787449,81.939776 C293.309317,81.1352201 297.837218,78.089401 297.837218,78.089401 C297.837218,78.089401 297.928693,76.7765955 297.981423,76.475002 C299.520451,67.6393683 304.796659,64.4478097 305.785002,63.7032506 C306.807047,62.9331756 315.834191,59.4696771 316.235397,68.8370073 C316.636604,78.2043376 304.944303,81.4800298 304.944303,81.4800298 C304.944303,81.4800298 305.975976,84.1810391 310.274616,83.4914197 C314.573256,82.8018003 319.502364,78.6066156 319.502364,78.6066156 C319.674309,74.7562406 322.196178,65.5613151 322.712015,64.2395446 C323.227851,62.9177741 326.380187,62.8603058 326.724079,63.6073935 C327.1826,65.1015689 326.781394,71.6529532 326.781394,71.6529532 L327.125285,71.5382465 C328.386219,67.8028081 331.022719,64.8721555 331.022719,64.8721555 C331.022719,64.8721555 333.143381,62.803757 334.862837,63.3071792 C336.582293,63.8106013 335.951826,69.8158071 335.951826,69.8158071 C335.951826,69.8158071 335.034783,76.3690305 337.957858,76.6566018 C340.880933,76.9441731 344.205214,74.3610886 344.205214,74.3610886 C344.205214,74.3610886 346.268562,73.5061904 346.497822,75.8051517 Z M327.587337,88.0037604 L327.587337,87.5715989 C327.624019,87.562404 327.688212,87.553209 327.779916,87.553209 C328.000007,87.553209 328.100652,87.6451583 328.100652,87.7830822 C328.100652,87.9393959 327.944984,88.0037604 327.752405,88.0037604 L327.587337,88.0037604 Z M327.578167,88.8586586 L327.22969,88.8586586 L327.22969,87.3509207 C327.367247,87.3233359 327.559826,87.304946 327.807428,87.304946 C328.091711,87.304946 328.220097,87.3509207 328.329913,87.4152852 C328.412676,87.4796496 328.476869,87.5991837 328.476869,87.7463025 C328.476869,87.9118111 328.348254,88.0405401 328.165074,88.0954798 L328.165074,88.1138696 C328.311572,88.169269 328.394335,88.2793783 328.440187,88.4816666 C328.48581,88.7115398 328.513322,88.803489 328.550003,88.8586586 L328.174245,88.8586586 C328.128163,88.803489 328.100652,88.6655651 328.055029,88.4908616 C328.027518,88.3253529 327.935814,88.2517935 327.743235,88.2517935 L327.578167,88.2517935 L327.578167,88.8586586 Z M326.652182,88.067895 C326.652182,88.7391245 327.147157,89.2724302 327.825768,89.2724302 C328.48581,89.2724302 328.971843,88.7391245 328.971843,88.0770899 C328.971843,87.4060902 328.48581,86.8638195 327.816598,86.8638195 C327.147157,86.8638195 326.652182,87.4060902 326.652182,88.067895 L326.652182,88.067895 Z M329.357001,88.067895 C329.357001,88.923023 328.68756,89.5942526 327.816598,89.5942526 C326.954577,89.5942526 326.267024,88.923023 326.267024,88.067895 C326.267024,87.2316165 326.954577,86.560387 327.816598,86.560387 C328.68756,86.560387 329.357001,87.2316165 329.357001,88.067895 L329.357001,88.067895 Z" id="Fill-1"></path>
        </g>
    </g>
</svg>