<?xml version="1.0" encoding="UTF-8"?>
<svg width="1278px" height="256px" viewBox="0 0 1278 256" version="1.1" xmlns="http://www.w3.org/2000/svg" xmlns:xlink="http://www.w3.org/1999/xlink">
    <!-- Generator: Sketch 44.1 (41455) - http://www.bohemiancoding.com/sketch -->
    <title>rectangle_logo</title>
    <desc>Created with Sketch.</desc>
    <defs>
    </defs>
    <g id="Square" stroke="none" stroke-width="1" fill="none" fill-rule="evenodd">
        <circle id="Oval-3" fill="#3D2F53" cx="90.5378836" cy="115.5" r="10.5"></circle>
        <circle id="Oval-3" fill="#3D2F53" cx="164.5" cy="115.426073" r="10.5"></circle>
        <path d="M102.545051,138.661894 L102.708768,138.661894 C101.236921,145.938836 98.4420762,165.117869 102.68482,191.812926 C108.158743,226.254474 97.1819454,236.933947 93.592585,235.544041 C88.6169211,233.589355 91.9723247,223.64207 91.9723247,223.64207 C89.6948256,219.596604 71.950678,232.356727 83.852151,244.533838 C94.2717296,255.591159 120.676837,248.506241 117.661586,193.114127 C115.782383,174.656888 122.13254,157.640674 127.477215,147.029994 C132.650249,157.704103 138.361981,174.017638 136.567208,191.645621 C133.551957,247.037735 159.957065,254.122653 170.376643,243.065332 C182.278116,230.888222 164.533969,218.128098 162.256469,222.173565 C162.256469,222.173565 165.611873,232.120849 160.636209,234.075535 C157.046849,235.465442 146.070051,224.785968 151.543974,190.34442 C155.527106,165.282824 153.307554,146.845587 151.803157,138.661894 L151.959094,138.661894 C153.485313,146.175763 159.125759,164.908558 156.174633,173.816851 C150.706589,195.795253 168.4141,223.66653 178.135435,220.226065 C188.801038,216.451415 184.882369,199.141538 179.964789,195.795253 C176.656508,193.544054 180.517744,211.651995 176.656508,211.119703 C173.886819,210.737886 164.555898,182.546858 169.659661,173.816851 C173.93584,166.783754 172.985178,154.600638 171.599313,146.189413 C172.159536,147.428802 172.874476,148.80248 173.781135,150.319479 C179.866076,160.500644 179.674859,174.352511 182.032262,173.506335 C184.389666,172.660159 185.582474,158.387929 182.032262,150.319479 C180.230504,146.224682 178.959645,141.620421 178.144881,138.07848 C182.85888,128.654406 240.89126,8.22018349 127.931258,8.22018349 C20.4592227,8.22018349 67.8929622,117.236493 76.8246499,135.9454 C76.0693662,139.605067 74.6633069,145.339102 72.4718829,150.319479 C68.921671,158.387929 70.1144793,172.660159 72.4718829,173.506335 C74.8292866,174.352511 74.6380691,160.500644 80.7230105,150.319479 C81.6296697,148.80248 82.3446092,147.428802 82.9048327,146.189413 C81.5189677,154.600638 80.5683056,166.783754 84.8444839,173.816851 C89.9482468,182.546858 80.617326,210.737886 77.8476372,211.119703 C73.9864018,211.651995 77.8476369,193.544054 74.5393563,195.795253 C69.6217762,199.141538 65.7031075,216.451415 76.3687106,220.226065 C86.0900457,223.66653 103.797556,195.795253 98.3295126,173.816851 C95.378386,164.908558 101.018832,146.175763 102.545051,138.661894 Z M128,256 C57.307552,256 0,198.692448 0,128 C0,57.307552 57.307552,0 128,0 C198.692448,0 256,57.307552 256,128 C256,198.692448 198.692448,256 128,256 Z" id="Combined-Shape" fill="#3D2F53"></path>
        <path d="M329.950073,116.007342 C320.631424,113.064611 308.370044,108.977484 308.370044,99.0048948 C308.370044,90.1767009 316.707783,86.7435144 324.555066,86.7435144 C338.287812,86.7435144 349.731767,98.5144395 355.290259,105.871268 L372.946647,88.2148801 C360.031326,73.9916789 342.865394,65 324.555066,65 C303.138522,65 282.212433,76.60744 282.212433,98.8414097 C282.212433,122.05629 304.609887,131.211454 323.0837,136.769946 C333.219775,139.876163 345.481155,144.290259 345.481155,155.080274 C345.481155,166.197259 333.38326,168.48605 324.555066,168.649535 C312.293686,168.649535 298.724425,158.349976 294.310328,149.194812 L276,167.341654 C289.078806,181.401371 302.975037,190.393049 324.555066,190.393049 C350.876163,190.393049 371.802252,179.11258 371.802252,155.080274 C371.802252,131.374939 349.568282,121.892805 329.950073,116.007342 L329.950073,116.007342 Z M462.372981,66.3078806 L462.372981,116.661282 L417.414586,116.661282 L417.414586,66.3078806 L391.256975,66.3078806 L391.256975,188.921684 L417.414586,188.921684 L417.414586,138.568282 L462.372981,138.568282 L462.372981,188.921684 L488.530592,188.921684 L488.530592,66.3078806 L462.372981,66.3078806 Z M539.537934,66.3078806 L513.380323,66.3078806 L513.380323,188.921684 L539.537934,188.921684 L539.537934,66.3078806 Z M659.699462,112.410671 C659.699462,87.0704846 639.590798,66.4713656 614.741067,66.3078806 L565.368576,66.3078806 L565.368576,188.921684 L591.689672,188.921684 L591.689672,158.513461 L614.741067,158.513461 C639.590798,158.349976 659.699462,137.914342 659.699462,112.410671 L659.699462,112.410671 Z M614.414097,136.769946 L591.689672,136.769946 L591.689672,88.051395 L614.414097,88.051395 C624.877141,88.051395 633.54185,99.1683798 633.54185,112.410671 C633.54185,125.816446 624.877141,136.769946 614.414097,136.769946 L614.414097,136.769946 Z M776.100832,116.007342 C766.782183,113.064611 754.520803,108.977484 754.520803,99.0048948 C754.520803,90.1767009 762.858541,86.7435144 770.705825,86.7435144 C784.438571,86.7435144 795.882526,98.5144395 801.441018,105.871268 L819.097406,88.2148801 C806.182085,73.9916789 789.016153,65 770.705825,65 C749.28928,65 728.363191,76.60744 728.363191,98.8414097 C728.363191,122.05629 750.760646,131.211454 769.234459,136.769946 C779.370534,139.876163 791.631914,144.290259 791.631914,155.080274 C791.631914,166.197259 779.534019,168.48605 770.705825,168.649535 C758.444444,168.649535 744.875184,158.349976 740.461087,149.194812 L722.150759,167.341654 C735.229564,181.401371 749.125795,190.393049 770.705825,190.393049 C797.026921,190.393049 817.95301,179.11258 817.95301,155.080274 C817.95301,131.374939 795.719041,121.892805 776.100832,116.007342 L776.100832,116.007342 Z M908.52374,66.3078806 L908.52374,116.661282 L863.565345,116.661282 L863.565345,66.3078806 L837.407734,66.3078806 L837.407734,188.921684 L863.565345,188.921684 L863.565345,138.568282 L908.52374,138.568282 L908.52374,188.921684 L934.681351,188.921684 L934.681351,66.3078806 L908.52374,66.3078806 Z M1012.17327,66.3078806 L995.334312,66.3078806 L944.817425,188.921684 L973.100343,188.921684 L982.745962,165.379834 L1024.43465,165.379834 L1034.40724,188.921684 L1062.52668,188.921684 L1012.17327,66.3078806 Z M991.0837,143.636319 C995.334312,132.192364 999.911894,118.459618 1003.67205,108.323544 L1016.2604,143.636319 L991.0837,143.636319 Z M1168.465,112.410671 C1168.465,87.0704846 1148.35634,66.4713656 1123.50661,66.3078806 L1074.13412,66.3078806 L1074.13412,188.921684 L1100.45521,188.921684 L1100.45521,158.513461 L1123.50661,158.513461 C1148.35634,158.349976 1168.465,137.914342 1168.465,112.410671 L1168.465,112.410671 Z M1123.17964,136.769946 L1100.45521,136.769946 L1100.45521,88.051395 L1123.17964,88.051395 C1133.64268,88.051395 1142.30739,99.1683798 1142.30739,112.410671 C1142.30739,125.816446 1133.64268,136.769946 1123.17964,136.769946 L1123.17964,136.769946 Z M1215.5487,167.178169 L1215.5487,136.279491 L1264.26725,136.279491 L1264.26725,114.372491 L1215.5487,114.372491 L1215.5487,88.051395 L1275.05727,88.051395 L1275.05727,66.3078806 L1189.39109,66.3078806 L1189.39109,188.921684 L1278,188.921684 L1278,167.178169 L1215.5487,167.178169 Z" id="SHIP-SHAPE" fill="#3D2F53"></path>
    </g>
</svg>
