<?xml version="1.0" encoding="UTF-8"?>
<svg width="256px" height="256px" viewBox="0 0 256 256" version="1.1" xmlns="http://www.w3.org/2000/svg" xmlns:xlink="http://www.w3.org/1999/xlink">
    <!-- Generator: Sketch 44.1 (41455) - http://www.bohemiancoding.com/sketch -->
    <title>square_logo</title>
    <desc>Created with Sketch.</desc>
    <defs>
        <linearGradient x1="50%" y1="0%" x2="50%" y2="100%" id="linearGradient-1">
            <stop stop-color="#3D2F53" offset="0%"></stop>
            <stop stop-color="#35323A" offset="100%"></stop>
        </linearGradient>
    </defs>
    <g id="Square" stroke="none" stroke-width="1" fill="none" fill-rule="evenodd">
        <circle id="Oval-3" fill="#3D2F53" cx="90.5378836" cy="115.5" r="10.5"></circle>
        <circle id="Oval-3" fill="#3D2F53" cx="164.5" cy="115.426073" r="10.5"></circle>
        <path d="M102.545051,138.661894 L102.708768,138.661894 C101.236921,145.938836 98.4420762,165.117869 102.68482,191.812926 C108.158743,226.254474 97.1819454,236.933947 93.592585,235.544041 C88.6169211,233.589355 91.9723247,223.64207 91.9723247,223.64207 C89.6948256,219.596604 71.950678,232.356727 83.852151,244.533838 C94.2717296,255.591159 120.676837,248.506241 117.661586,193.114127 C115.782383,174.656888 122.13254,157.640674 127.477215,147.029994 C132.650249,157.704103 138.361981,174.017638 136.567208,191.645621 C133.551957,247.037735 159.957065,254.122653 170.376643,243.065332 C182.278116,230.888222 164.533969,218.128098 162.256469,222.173565 C162.256469,222.173565 165.611873,232.120849 160.636209,234.075535 C157.046849,235.465442 146.070051,224.785968 151.543974,190.34442 C155.527106,165.282824 153.307554,146.845587 151.803157,138.661894 L151.959094,138.661894 C153.485313,146.175763 159.125759,164.908558 156.174633,173.816851 C150.706589,195.795253 168.4141,223.66653 178.135435,220.226065 C188.801038,216.451415 184.882369,199.141538 179.964789,195.795253 C176.656508,193.544054 180.517744,211.651995 176.656508,211.119703 C173.886819,210.737886 164.555898,182.546858 169.659661,173.816851 C173.93584,166.783754 172.985178,154.600638 171.599313,146.189413 C172.159536,147.428802 172.874476,148.80248 173.781135,150.319479 C179.866076,160.500644 179.674859,174.352511 182.032262,173.506335 C184.389666,172.660159 185.582474,158.387929 182.032262,150.319479 C180.230504,146.224682 178.959645,141.620421 178.144881,138.07848 C182.85888,128.654406 240.89126,8.22018349 127.931258,8.22018349 C20.4592227,8.22018349 67.8929622,117.236493 76.8246499,135.9454 C76.0693662,139.605067 74.6633069,145.339102 72.4718829,150.319479 C68.921671,158.387929 70.1144793,172.660159 72.4718829,173.506335 C74.8292866,174.352511 74.6380691,160.500644 80.7230105,150.319479 C81.6296697,148.80248 82.3446092,147.428802 82.9048327,146.189413 C81.5189677,154.600638 80.5683056,166.783754 84.8444839,173.816851 C89.9482468,182.546858 80.617326,210.737886 77.8476372,211.119703 C73.9864018,211.651995 77.8476369,193.544054 74.5393563,195.795253 C69.6217762,199.141538 65.7031075,216.451415 76.3687106,220.226065 C86.0900457,223.66653 103.797556,195.795253 98.3295126,173.816851 C95.378386,164.908558 101.018832,146.175763 102.545051,138.661894 Z M128,256 C57.307552,256 0,198.692448 0,128 C0,57.307552 57.307552,0 128,0 C198.692448,0 256,57.307552 256,128 C256,198.692448 198.692448,256 128,256 Z" id="Combined-Shape" fill="url(#linearGradient-1)"></path>
    </g>
</svg>