<?xml version="1.0" encoding="UTF-8"?>
<svg width="98px" height="86px" viewBox="0 0 98 86" version="1.1" xmlns="http://www.w3.org/2000/svg" xmlns:xlink="http://www.w3.org/1999/xlink">
    <!-- Generator: Sketch 44.1 (41455) - http://www.bohemiancoding.com/sketch -->
    <title>Shirts</title>
    <desc>Created with Sketch.</desc>
    <defs></defs>
    <g id="Concept-2" stroke="none" stroke-width="1" fill="none" fill-rule="evenodd">
        <g id="About" transform="translate(-647.000000, -2361.000000)">
            <g id="CASE-STUDIES-Copy-2" transform="translate(547.000000, 2313.000000)">
                <g id="Left-1">
                    <g id="Rectangle-23-Copy-2-+-Bitmap">
                        <g id="Mask-+-Rectangle-23-Copy-2">
                            <g id="Shirts" transform="translate(97.000000, 41.000000)">
                                <g id="soccer18" transform="translate(56.500000, 49.000000) rotate(-10.000000) translate(-56.500000, -49.000000) translate(7.000000, 8.000000)">
                                    <g id="Group" transform="translate(0.000000, -0.000000)">
                                        <g id="Shape-+-Fill-1" transform="translate(49.500000, 41.000000) rotate(-5.000000) translate(-49.500000, -41.000000) translate(4.000000, 4.000000)">
                                            <path d="M1.32038398,6.88139303 L9.6370883,4.81791045 L19.5020082,2.37174129 L26.1254949,0.728159204 C27.3651828,0.412736318 28.6393285,0.251940299 30.0015113,0.251940299 L33.4869384,0.24039801 C35.2309466,5.27144279 39.9574559,8.6879602 45.378501,8.6879602 C50.8003429,8.6879602 55.5262546,5.27144279 57.2678727,0.24039801 L60.9498891,0.251940299 C62.2214456,0.251940299 63.5023634,0.412736318 64.7516119,0.730746269 L89.5499507,6.88139303 C89.959462,6.98308458 90.3026468,7.23800995 90.5181581,7.59721393 C90.7352628,7.95661692 90.7960123,8.37970149 90.6904476,8.79104478 L87.9861992,19.3810945 C87.7722813,20.2204975 86.8839446,20.759602 86.0396263,20.5454726 L78.2260472,18.6071642 C77.8597577,18.5162189 77.4902813,18.4712438 77.1293696,18.4712438 C74.9031499,18.4712438 73.2268624,20.2097512 73.2268624,22.5156219 L73.2268624,72.2449751 C73.2268624,73.120398 72.5118111,73.8320398 71.6354251,73.8320398 L19.2739487,73.8320398 C18.3967659,73.8320398 17.6835072,73.120597 17.6835072,72.2449751 L17.6835072,22.5040796 C17.6835072,20.19801 16.0044312,18.4595025 13.777614,18.4595025 C13.4180965,18.4595025 13.0476242,18.5044776 12.6821314,18.5954229 L4.83110678,20.5436816 C3.97065503,20.7566169 3.09665914,20.2187065 2.88114784,19.3793035 L0.177696099,8.78925373 C0.0729281314,8.37970149 0.133080082,7.95661692 0.34938809,7.59721393 C0.565297741,7.23641791 0.909080082,6.98149254 1.32038398,6.88139303 Z" id="-" stroke="#505050" stroke-width="3" fill="#FFFFFF"></path>
                                            <path d="M54.0146259,26.9815493 C54.0146259,26.9815493 53.8206695,26.2919299 54.5435978,24.9657388 C55.2665261,23.6395476 55.8307628,24.3645321 55.8307628,24.3645321 C55.8307628,24.3645321 56.4478968,25.036469 55.7426009,26.0443742 C55.0373049,27.0522795 54.0146259,26.9815493 54.0146259,26.9815493 M48.4604206,27.936407 C47.6316979,30.1113605 45.6216045,29.227233 45.6216045,29.227233 C45.6216045,29.227233 45.3923834,28.4492009 46.0447821,26.2742474 C46.6971808,24.0992939 48.2311994,24.9480562 48.2311994,24.9480562 C48.2311994,24.9480562 49.2891433,25.7614535 48.4604206,27.936407 M46.9616668,18.8298943 C46.9616668,18.8298943 48.213567,15.5586228 48.5133178,17.1500522 C48.8130685,18.7414816 45.8860905,23.4804047 45.8860905,23.4804047 C45.9213553,22.4194517 46.9616668,18.8298943 46.9616668,18.8298943 M29.064783,26.9815493 C29.1176802,24.877326 30.4930072,23.9578335 30.969082,24.4175798 C31.4451567,24.877326 31.2688327,25.8675488 30.3695804,26.486438 C29.4703281,27.1053272 29.064783,26.9815493 29.064783,26.9815493 M66.9920706,26.6323544 C67.0626002,27.3395856 66.6394227,27.5671954 66.6394227,27.5671954 C66.6394227,27.5671954 64.8938153,28.8601433 63.5537531,28.4711273 C62.2136908,28.0821112 62.1431612,25.6284807 62.1431612,25.6284807 L62.0197345,25.6284807 L60.6620398,29.3950051 C60.6620398,29.3950051 60.1154355,31.296162 59.3043452,30.9601936 C58.4932549,30.6242251 58.5108873,29.6693675 58.5108873,29.6693675 C58.5108873,29.6693675 57.2413547,31.1370898 54.9138782,30.9602643 C52.8773362,30.8055066 52.2197183,29.1345765 52.2197183,29.1345765 C52.2197183,29.1345765 50.8584267,30.1538693 47.0311384,30.9092678 C45.3193852,31.0967028 44.1052183,30.0593738 44.1052183,30.0593738 C43.9465267,30.2185167 42.9238477,30.7323716 42.9238477,30.7323716 C42.9238477,30.7323716 41.4603586,31.4064304 40.8961219,30.3808425 C40.3318852,29.3552547 40.7021655,26.1235921 40.7021655,26.1235921 L40.5963712,26.1235921 C40.5963712,26.1235921 39.7500161,27.852238 39.3092061,29.4083023 C38.8683962,30.9643666 38.3217918,30.8716394 38.3217918,30.8716394 C38.3217918,30.8716394 37.3167452,30.9601228 37.087524,30.1113605 C36.8583028,29.2625981 37.4578043,26.1150337 37.4578043,26.1150337 L37.3696424,26.1326455 C37.3696424,26.1326455 37.3167452,26.0440206 36.5409197,27.6885684 C35.2184898,30.9067923 34.9011067,31.047899 34.1429136,30.9081361 C33.3847205,30.768444 33.3495262,29.8095547 33.3495262,29.8095547 L32.3093558,30.3918057 C32.3093558,30.3918057 29.7704316,31.4857189 28.4480017,30.4778136 C27.567863,29.8070085 27.266349,28.9527999 27.1626705,28.4576885 L27.1634463,28.4576885 C27.1634463,28.4576885 26.0417437,28.3386496 25.3188154,28.0557288 C24.595887,27.772808 25.3284779,26.8577715 25.3284779,26.8577715 C25.3284779,26.8577715 25.5595329,26.5041205 25.9827104,26.8577715 C26.4058879,27.2114225 27.2133812,27.0515015 27.2133812,27.0515015 L27.2133812,27.0517137 C27.2839108,26.4940061 27.3832165,25.7581999 27.7283178,24.9817945 C28.4512461,23.355 29.5408577,22.8051435 30.44011,22.7874609 C31.3393623,22.7697784 31.9741286,23.0140098 32.520733,23.7920419 C33.7373684,26.8157578 29.2763718,28.3474201 29.2763718,28.3474201 C29.2763718,28.3474201 29.152945,29.1388203 30.3695804,29.1211377 C31.5862159,29.1034552 33.4376177,27.777264 33.4376177,27.777264 C33.5257796,26.7693587 34.2310756,23.6041825 34.4250319,23.1267537 C34.6189883,22.6493249 35.359549,22.7377376 35.359549,22.7377376 C35.359549,22.7377376 35.9414181,22.6139598 36.0472125,23.232849 C36.1530069,23.8517382 35.624035,26.3626601 35.624035,26.3626601 L35.712197,26.4687554 C35.7650942,26.2211997 37.0522592,24.0639288 37.0522592,24.0639288 C37.0522592,24.0639288 37.7928199,22.7731027 38.9212934,22.8261504 C40.0497668,22.879198 38.8683962,26.3449776 38.8683962,26.3449776 L38.9565582,26.4510729 L39.0447201,26.2919299 C39.1857793,25.9029139 40.8608571,23.3566268 40.8608571,23.3566268 C40.8608571,23.3566268 41.4956234,22.6139598 42.0774926,22.7907853 C42.6593617,22.9676107 42.6946265,23.232849 42.7298913,23.7279603 C42.7651561,24.2230717 42.2714489,27.1583748 42.2714489,27.1583748 C42.2714489,27.1583748 41.9893306,29.0857727 42.6240969,29.0504076 C43.2588632,29.0150425 43.9465267,28.3431056 43.9465267,28.3431056 C43.9465267,28.3431056 44.4402339,24.5590401 44.7752494,21.429229 C45.110265,18.2994178 46.5561216,16.1951945 46.5561216,16.1951945 C46.5561216,16.1951945 46.9792992,15.5409402 48.0964173,15.098735 C48.8325347,14.8384479 49.6342446,15.0113125 50.0120716,16.6195757 C50.8055295,19.9969425 47.2261527,23.9931986 47.2261527,23.9931986 C47.2261527,23.9931986 48.1783022,22.4724994 49.3773052,23.1974839 C52.0221649,24.8596435 49.85338,28.5199311 49.85338,28.5199311 C50.6292055,28.2723754 52.0221649,27.3352003 52.0221649,27.3352003 C52.0221649,27.3352003 52.0503062,26.9312602 52.066528,26.8384622 C52.5399932,24.1198056 54.1631612,23.1377876 54.4672143,22.9086925 C54.7816352,22.6717463 57.5587378,21.6060545 57.6821646,24.4883099 C57.8055914,27.3705654 54.2085822,28.3784707 54.2085822,28.3784707 C54.2085822,28.3784707 54.5259654,29.2095505 55.8483952,28.9973599 C57.1708251,28.7851693 58.6872113,27.4943433 58.6872113,27.4943433 C58.7401085,26.3096125 59.515934,23.4804047 59.6746256,23.073706 C59.8333171,22.6670074 60.803099,22.6493249 60.9088934,22.879198 C61.0499526,23.3389443 60.9265258,25.3547548 60.9265258,25.3547548 L61.0323202,25.3194605 C61.4202329,24.1700948 62.2313232,23.2683555 62.2313232,23.2683555 C62.2313232,23.2683555 62.883722,22.6319252 63.4126939,22.7868244 C63.9416658,22.9417235 63.7477094,24.7894791 63.7477094,24.7894791 C63.7477094,24.7894791 63.4655911,26.8058555 64.3648434,26.894339 C65.2640957,26.9828225 66.2867747,26.1880273 66.2867747,26.1880273 C66.2867747,26.1880273 66.921541,25.9249817 66.9920706,26.6323544 Z M61.1744655,30.3857724 L61.1744655,30.2527997 C61.1857503,30.2499704 61.2054985,30.2471412 61.2337104,30.2471412 C61.3014188,30.2471412 61.3323813,30.2754333 61.3323813,30.3178714 C61.3323813,30.365968 61.2844917,30.3857724 61.2252468,30.3857724 L61.1744655,30.3857724 Z M61.1716443,30.648818 L61.0644394,30.648818 L61.0644394,30.1848987 C61.1067571,30.176411 61.166002,30.1707526 61.2421739,30.1707526 C61.3296306,30.1707526 61.3691272,30.1848987 61.4029109,30.2047031 C61.4283721,30.2245076 61.4481203,30.2612873 61.4481203,30.3065546 C61.4481203,30.3574803 61.4085532,30.3970893 61.3522001,30.4139938 L61.3522001,30.4196522 C61.3972685,30.4366982 61.4227297,30.4705779 61.4368356,30.5328205 C61.450871,30.6035507 61.4593345,30.6318428 61.4706193,30.648818 L61.3550213,30.648818 C61.3408448,30.6318428 61.3323813,30.5894047 61.3183459,30.5356497 C61.3098823,30.484724 61.2816705,30.4620903 61.2224256,30.4620903 L61.1716443,30.4620903 L61.1716443,30.648818 Z M60.8867753,30.4055061 C60.8867753,30.6120383 61.0390487,30.7761324 61.2478163,30.7761324 C61.450871,30.7761324 61.6003937,30.6120383 61.6003937,30.4083354 C61.6003937,30.2018739 61.450871,30.0350214 61.2449951,30.0350214 C61.0390487,30.0350214 60.8867753,30.2018739 60.8867753,30.4055061 L60.8867753,30.4055061 Z M61.7188834,30.4055061 C61.7188834,30.6686225 61.512937,30.8751546 61.2449951,30.8751546 C60.9798039,30.8751546 60.7682856,30.6686225 60.7682856,30.4055061 C60.7682856,30.1481897 60.9798039,29.9416575 61.2449951,29.9416575 C61.512937,29.9416575 61.7188834,30.1481897 61.7188834,30.4055061 L61.7188834,30.4055061 Z" id="Fill-1" fill="#FF5334"></path>
                                        </g>
                                    </g>
                                </g>
                                <g id="soccer18" transform="translate(7.000000, 8.000000)">
                                    <g id="Group">
                                        <g id="Shape-+-Fill-1" transform="translate(49.500000, 41.000000) rotate(-5.000000) translate(-49.500000, -41.000000) translate(4.000000, 4.000000)">
                                            <path d="M1.32038398,6.88139303 L9.6370883,4.81791045 L19.5020082,2.37174129 L26.1254949,0.728159204 C27.3651828,0.412736318 28.6393285,0.251940299 30.0015113,0.251940299 L33.4869384,0.24039801 C35.2309466,5.27144279 39.9574559,8.6879602 45.378501,8.6879602 C50.8003429,8.6879602 55.5262546,5.27144279 57.2678727,0.24039801 L60.9498891,0.251940299 C62.2214456,0.251940299 63.5023634,0.412736318 64.7516119,0.730746269 L89.5499507,6.88139303 C89.959462,6.98308458 90.3026468,7.23800995 90.5181581,7.59721393 C90.7352628,7.95661692 90.7960123,8.37970149 90.6904476,8.79104478 L87.9861992,19.3810945 C87.7722813,20.2204975 86.8839446,20.759602 86.0396263,20.5454726 L78.2260472,18.6071642 C77.8597577,18.5162189 77.4902813,18.4712438 77.1293696,18.4712438 C74.9031499,18.4712438 73.2268624,20.2097512 73.2268624,22.5156219 L73.2268624,72.2449751 C73.2268624,73.120398 72.5118111,73.8320398 71.6354251,73.8320398 L19.2739487,73.8320398 C18.3967659,73.8320398 17.6835072,73.120597 17.6835072,72.2449751 L17.6835072,22.5040796 C17.6835072,20.19801 16.0044312,18.4595025 13.777614,18.4595025 C13.4180965,18.4595025 13.0476242,18.5044776 12.6821314,18.5954229 L4.83110678,20.5436816 C3.97065503,20.7566169 3.09665914,20.2187065 2.88114784,19.3793035 L0.177696099,8.78925373 C0.0729281314,8.37970149 0.133080082,7.95661692 0.34938809,7.59721393 C0.565297741,7.23641791 0.909080082,6.98149254 1.32038398,6.88139303 Z" id="-" stroke="#505050" stroke-width="3" fill="#FFFFFF"></path>
                                            <path d="M54.0146259,26.9815493 C54.0146259,26.9815493 53.8206695,26.2919299 54.5435978,24.9657388 C55.2665261,23.6395476 55.8307628,24.3645321 55.8307628,24.3645321 C55.8307628,24.3645321 56.4478968,25.036469 55.7426009,26.0443742 C55.0373049,27.0522795 54.0146259,26.9815493 54.0146259,26.9815493 M48.4604206,27.936407 C47.6316979,30.1113605 45.6216045,29.227233 45.6216045,29.227233 C45.6216045,29.227233 45.3923834,28.4492009 46.0447821,26.2742474 C46.6971808,24.0992939 48.2311994,24.9480562 48.2311994,24.9480562 C48.2311994,24.9480562 49.2891433,25.7614535 48.4604206,27.936407 M46.9616668,18.8298943 C46.9616668,18.8298943 48.213567,15.5586228 48.5133178,17.1500522 C48.8130685,18.7414816 45.8860905,23.4804047 45.8860905,23.4804047 C45.9213553,22.4194517 46.9616668,18.8298943 46.9616668,18.8298943 M29.064783,26.9815493 C29.1176802,24.877326 30.4930072,23.9578335 30.969082,24.4175798 C31.4451567,24.877326 31.2688327,25.8675488 30.3695804,26.486438 C29.4703281,27.1053272 29.064783,26.9815493 29.064783,26.9815493 M66.9920706,26.6323544 C67.0626002,27.3395856 66.6394227,27.5671954 66.6394227,27.5671954 C66.6394227,27.5671954 64.8938153,28.8601433 63.5537531,28.4711273 C62.2136908,28.0821112 62.1431612,25.6284807 62.1431612,25.6284807 L62.0197345,25.6284807 L60.6620398,29.3950051 C60.6620398,29.3950051 60.1154355,31.296162 59.3043452,30.9601936 C58.4932549,30.6242251 58.5108873,29.6693675 58.5108873,29.6693675 C58.5108873,29.6693675 57.2413547,31.1370898 54.9138782,30.9602643 C52.8773362,30.8055066 52.2197183,29.1345765 52.2197183,29.1345765 C52.2197183,29.1345765 50.8584267,30.1538693 47.0311384,30.9092678 C45.3193852,31.0967028 44.1052183,30.0593738 44.1052183,30.0593738 C43.9465267,30.2185167 42.9238477,30.7323716 42.9238477,30.7323716 C42.9238477,30.7323716 41.4603586,31.4064304 40.8961219,30.3808425 C40.3318852,29.3552547 40.7021655,26.1235921 40.7021655,26.1235921 L40.5963712,26.1235921 C40.5963712,26.1235921 39.7500161,27.852238 39.3092061,29.4083023 C38.8683962,30.9643666 38.3217918,30.8716394 38.3217918,30.8716394 C38.3217918,30.8716394 37.3167452,30.9601228 37.087524,30.1113605 C36.8583028,29.2625981 37.4578043,26.1150337 37.4578043,26.1150337 L37.3696424,26.1326455 C37.3696424,26.1326455 37.3167452,26.0440206 36.5409197,27.6885684 C35.2184898,30.9067923 34.9011067,31.047899 34.1429136,30.9081361 C33.3847205,30.768444 33.3495262,29.8095547 33.3495262,29.8095547 L32.3093558,30.3918057 C32.3093558,30.3918057 29.7704316,31.4857189 28.4480017,30.4778136 C27.567863,29.8070085 27.266349,28.9527999 27.1626705,28.4576885 L27.1634463,28.4576885 C27.1634463,28.4576885 26.0417437,28.3386496 25.3188154,28.0557288 C24.595887,27.772808 25.3284779,26.8577715 25.3284779,26.8577715 C25.3284779,26.8577715 25.5595329,26.5041205 25.9827104,26.8577715 C26.4058879,27.2114225 27.2133812,27.0515015 27.2133812,27.0515015 L27.2133812,27.0517137 C27.2839108,26.4940061 27.3832165,25.7581999 27.7283178,24.9817945 C28.4512461,23.355 29.5408577,22.8051435 30.44011,22.7874609 C31.3393623,22.7697784 31.9741286,23.0140098 32.520733,23.7920419 C33.7373684,26.8157578 29.2763718,28.3474201 29.2763718,28.3474201 C29.2763718,28.3474201 29.152945,29.1388203 30.3695804,29.1211377 C31.5862159,29.1034552 33.4376177,27.777264 33.4376177,27.777264 C33.5257796,26.7693587 34.2310756,23.6041825 34.4250319,23.1267537 C34.6189883,22.6493249 35.359549,22.7377376 35.359549,22.7377376 C35.359549,22.7377376 35.9414181,22.6139598 36.0472125,23.232849 C36.1530069,23.8517382 35.624035,26.3626601 35.624035,26.3626601 L35.712197,26.4687554 C35.7650942,26.2211997 37.0522592,24.0639288 37.0522592,24.0639288 C37.0522592,24.0639288 37.7928199,22.7731027 38.9212934,22.8261504 C40.0497668,22.879198 38.8683962,26.3449776 38.8683962,26.3449776 L38.9565582,26.4510729 L39.0447201,26.2919299 C39.1857793,25.9029139 40.8608571,23.3566268 40.8608571,23.3566268 C40.8608571,23.3566268 41.4956234,22.6139598 42.0774926,22.7907853 C42.6593617,22.9676107 42.6946265,23.232849 42.7298913,23.7279603 C42.7651561,24.2230717 42.2714489,27.1583748 42.2714489,27.1583748 C42.2714489,27.1583748 41.9893306,29.0857727 42.6240969,29.0504076 C43.2588632,29.0150425 43.9465267,28.3431056 43.9465267,28.3431056 C43.9465267,28.3431056 44.4402339,24.5590401 44.7752494,21.429229 C45.110265,18.2994178 46.5561216,16.1951945 46.5561216,16.1951945 C46.5561216,16.1951945 46.9792992,15.5409402 48.0964173,15.098735 C48.8325347,14.8384479 49.6342446,15.0113125 50.0120716,16.6195757 C50.8055295,19.9969425 47.2261527,23.9931986 47.2261527,23.9931986 C47.2261527,23.9931986 48.1783022,22.4724994 49.3773052,23.1974839 C52.0221649,24.8596435 49.85338,28.5199311 49.85338,28.5199311 C50.6292055,28.2723754 52.0221649,27.3352003 52.0221649,27.3352003 C52.0221649,27.3352003 52.0503062,26.9312602 52.066528,26.8384622 C52.5399932,24.1198056 54.1631612,23.1377876 54.4672143,22.9086925 C54.7816352,22.6717463 57.5587378,21.6060545 57.6821646,24.4883099 C57.8055914,27.3705654 54.2085822,28.3784707 54.2085822,28.3784707 C54.2085822,28.3784707 54.5259654,29.2095505 55.8483952,28.9973599 C57.1708251,28.7851693 58.6872113,27.4943433 58.6872113,27.4943433 C58.7401085,26.3096125 59.515934,23.4804047 59.6746256,23.073706 C59.8333171,22.6670074 60.803099,22.6493249 60.9088934,22.879198 C61.0499526,23.3389443 60.9265258,25.3547548 60.9265258,25.3547548 L61.0323202,25.3194605 C61.4202329,24.1700948 62.2313232,23.2683555 62.2313232,23.2683555 C62.2313232,23.2683555 62.883722,22.6319252 63.4126939,22.7868244 C63.9416658,22.9417235 63.7477094,24.7894791 63.7477094,24.7894791 C63.7477094,24.7894791 63.4655911,26.8058555 64.3648434,26.894339 C65.2640957,26.9828225 66.2867747,26.1880273 66.2867747,26.1880273 C66.2867747,26.1880273 66.921541,25.9249817 66.9920706,26.6323544 Z M61.1744655,30.3857724 L61.1744655,30.2527997 C61.1857503,30.2499704 61.2054985,30.2471412 61.2337104,30.2471412 C61.3014188,30.2471412 61.3323813,30.2754333 61.3323813,30.3178714 C61.3323813,30.365968 61.2844917,30.3857724 61.2252468,30.3857724 L61.1744655,30.3857724 Z M61.1716443,30.648818 L61.0644394,30.648818 L61.0644394,30.1848987 C61.1067571,30.176411 61.166002,30.1707526 61.2421739,30.1707526 C61.3296306,30.1707526 61.3691272,30.1848987 61.4029109,30.2047031 C61.4283721,30.2245076 61.4481203,30.2612873 61.4481203,30.3065546 C61.4481203,30.3574803 61.4085532,30.3970893 61.3522001,30.4139938 L61.3522001,30.4196522 C61.3972685,30.4366982 61.4227297,30.4705779 61.4368356,30.5328205 C61.450871,30.6035507 61.4593345,30.6318428 61.4706193,30.648818 L61.3550213,30.648818 C61.3408448,30.6318428 61.3323813,30.5894047 61.3183459,30.5356497 C61.3098823,30.484724 61.2816705,30.4620903 61.2224256,30.4620903 L61.1716443,30.4620903 L61.1716443,30.648818 Z M60.8867753,30.4055061 C60.8867753,30.6120383 61.0390487,30.7761324 61.2478163,30.7761324 C61.450871,30.7761324 61.6003937,30.6120383 61.6003937,30.4083354 C61.6003937,30.2018739 61.450871,30.0350214 61.2449951,30.0350214 C61.0390487,30.0350214 60.8867753,30.2018739 60.8867753,30.4055061 L60.8867753,30.4055061 Z M61.7188834,30.4055061 C61.7188834,30.6686225 61.512937,30.8751546 61.2449951,30.8751546 C60.9798039,30.8751546 60.7682856,30.6686225 60.7682856,30.4055061 C60.7682856,30.1481897 60.9798039,29.9416575 61.2449951,29.9416575 C61.512937,29.9416575 61.7188834,30.1481897 61.7188834,30.4055061 L61.7188834,30.4055061 Z" id="Fill-1" fill="#FF5334"></path>
                                        </g>
                                    </g>
                                </g>
                            </g>
                        </g>
                    </g>
                </g>
            </g>
        </g>
    </g>
</svg>