<?xml version="1.0" encoding="UTF-8"?>
<svg width="166px" height="60px" viewBox="0 0 166 60" version="1.1" xmlns="http://www.w3.org/2000/svg" xmlns:xlink="http://www.w3.org/1999/xlink">
    <!-- Generator: Sketch 44.1 (41455) - http://www.bohemiancoding.com/sketch -->
    <title>Primary on White</title>
    <desc>Created with Sketch.</desc>
    <defs>
        <polygon id="path-1" points="26.206 0.607 0.06 0.607 0.06 59.94 52.352 59.94 52.352 0.607"></polygon>
        <polygon id="path-3" points="26.206 0.607 0.06 0.607 0.06 59.94 52.352 59.94 52.352 0.607"></polygon>
    </defs>
    <g id="Page-1" stroke="none" stroke-width="1" fill="none" fill-rule="evenodd">
        <g id="Primary-on-White">
            <g id="Group-3">
                <mask id="mask-2" fill="white">
                    <use xlink:href="#path-1"></use>
                </mask>
                <g id="Clip-2"></g>
                <path d="M47.339,12.816 C45.419,11.694 26.187,0.616 26.176,0.607 C26.161,0.616 6.932,11.694 5.012,12.816 C1.3,14.981 0,17.955 0,22.062 L0,39.935 C0,44.044 1.3,47.019 5.012,49.183 C5.757,49.62 20.061,57.915 20.712,58.288 C24.275,60.337 27.504,60.694 31.228,58.549 C32.156,58.015 46.778,49.51 47.339,49.183 C51.05,47.019 52.352,44.044 52.352,39.935 L52.352,22.062 C52.352,17.955 51.05,14.981 47.339,12.816" id="Fill-1" fill="#FFFFFF" mask="url(#mask-2)"></path>
            </g>
            <polyline id="Fill-4" fill="#121417" points="77.099 22.29 77.099 44.609 69.66 44.609 69.66 22.29 63.605 22.29 63.605 15.998 83.263 15.998 83.263 22.29 77.099 22.29"></polyline>
            <polygon id="Fill-5" fill="#121417" points="86.621 44.609 94.059 44.609 94.059 15.998 86.621 15.998"></polygon>
            <polyline id="Fill-6" fill="#121417" points="107.604 15.998 107.604 38.319 116.526 38.319 116.526 44.609 100.163 44.609 100.163 15.998 107.604 15.998"></polyline>
            <path d="M120.428,44.609 L120.428,15.998 L131.409,15.998 C134.992,15.998 138.126,17.262 140.821,19.793 C142.361,21.219 143.541,22.894 144.367,24.82 C145.135,26.627 145.517,28.456 145.517,30.312 C145.517,33.013 144.751,35.562 143.213,37.962 C141.688,40.355 139.679,42.136 137.175,43.309 C135.332,44.176 133.41,44.609 131.409,44.609 L120.428,44.609 Z M127.874,38.319 L129.569,38.319 C131.443,38.319 132.934,37.978 134.05,37.294 C135.406,36.47 136.417,35.276 137.071,33.71 C137.518,32.635 137.74,31.503 137.74,30.312 C137.74,28.103 137.051,26.226 135.667,24.677 C134.828,23.726 133.857,23.079 132.752,22.728 C131.845,22.434 130.782,22.29 129.569,22.29 L127.874,22.29 L127.874,38.319 L127.874,38.319 Z" id="Fill-7" fill="#121417"></path>
            <polyline id="Fill-8" fill="#121417" points="165.995 22.29 157.15 22.29 157.15 27.066 165.514 27.066 165.514 33.354 157.15 33.354 157.15 38.319 165.995 38.319 165.995 44.609 149.713 44.609 149.713 15.998 165.995 15.998 165.995 22.29"></polyline>
            <g id="Group-12">
                <mask id="mask-4" fill="white">
                    <use xlink:href="#path-3"></use>
                </mask>
                <g id="Clip-10"></g>
                <polyline id="Fill-9" fill="#121417" mask="url(#mask-4)" points="38.173 31.583 35.084 25.648 29.146 28.751 26.052 22.816 20.112 25.92 14.177 29.013 17.281 34.94 23.212 31.848 26.312 37.789 32.248 34.682 38.173 31.583"></polyline>
                <path d="M47.339,12.816 C45.419,11.694 26.187,0.616 26.176,0.607 C26.161,0.616 6.932,11.694 5.012,12.816 C1.3,14.981 0,17.955 0,22.062 L0,39.935 C0,44.044 1.3,47.019 5.012,49.183 C5.757,49.62 20.061,57.915 20.712,58.288 C24.275,60.337 27.504,60.694 31.228,58.549 C32.156,58.015 46.778,49.51 47.339,49.183 C51.05,47.019 52.352,44.044 52.352,39.935 L52.352,22.062 C52.352,17.955 51.05,14.981 47.339,12.816 M45.54,37.308 C45.542,40.429 44.325,43.055 42.045,44.428 C41.082,45.011 30.569,51.128 29.738,51.592 C27.412,52.883 24.533,52.63 21.828,51.074 C20.756,50.461 11.199,44.964 10.306,44.428 C8.026,43.055 6.808,40.429 6.813,37.308 C6.813,36.078 6.821,33.753 6.825,30.998 C6.821,28.246 6.813,25.92 6.813,24.691 C6.808,21.568 8.026,18.944 10.306,17.569 C12.187,16.433 20.501,11.633 26.171,8.361 L26.176,8.369 L26.18,8.361 C31.851,11.633 40.163,16.433 42.045,17.569 C44.325,18.944 45.542,21.568 45.54,24.691 C45.54,25.92 45.529,28.246 45.523,30.998 C45.529,33.753 45.54,36.078 45.54,37.308" id="Fill-11" fill="#00A4B4" mask="url(#mask-4)"></path>
            </g>
        </g>
    </g>
</svg>