<svg xmlns="http://www.w3.org/2000/svg" xmlns:xlink="http://www.w3.org/1999/xlink" viewBox="0 0 104.5 144.5"><defs><style>.cls-1,.cls-3,.cls-47,.cls-48{fill:#fff;}.cls-1{stroke:#010101;}.cls-1,.cls-35,.cls-45{stroke-linecap:round;stroke-linejoin:round;}.cls-1,.cls-54{stroke-width:0.84px;}.cls-2{isolation:isolate;}.cls-35,.cls-4{fill:#ba8449;}.cls-5{fill:#895c2f;}.cls-37,.cls-41,.cls-53,.cls-6{opacity:0.25;}.cls-10,.cls-11,.cls-24,.cls-31,.cls-37,.cls-38,.cls-39,.cls-41,.cls-44,.cls-46,.cls-51,.cls-6{mix-blend-mode:multiply;}.cls-46,.cls-7{fill:#c88a3b;}.cls-36,.cls-37,.cls-38,.cls-39,.cls-8{fill:#f8b1ab;}.cls-9{fill:#f38089;}.cls-10,.cls-20,.cls-28,.cls-46{opacity:0.5;}.cls-11{opacity:0.15;}.cls-12,.cls-54{fill:#4e4e4e;}.cls-13{fill:#333;}.cls-14{fill:#fff8ef;}.cls-15{fill:#f499b9;}.cls-16{fill:#d85289;}.cls-17{fill:#bbd9ea;}.cls-18{fill:#7acdcd;}.cls-19{opacity:0.75;}.cls-21{fill:#f9c7dc;}.cls-22{fill:#d64480;}.cls-23{fill:#242b2d;}.cls-25{fill:#e7e7e7;}.cls-26{fill:#a3a5a8;}.cls-27{fill:#b72a6a;}.cls-28,.cls-53{mix-blend-mode:screen;}.cls-29,.cls-41{fill:#f6e8d0;}.cls-30{mask:url(#mask);}.cls-31{opacity:0.1;}.cls-32{fill:#5c3733;}.cls-33{fill:#351d1a;}.cls-34{fill:#523a34;}.cls-35,.cls-45{stroke:#895c2f;stroke-width:0.88px;}.cls-36{stroke:#f38089;stroke-width:0.56px;}.cls-36,.cls-47,.cls-48,.cls-54{stroke-miterlimit:10;}.cls-39{opacity:0.4;}.cls-40{fill:#e5d1ae;}.cls-42{fill:#fef6e4;}.cls-43,.cls-44{fill:#ffd085;}.cls-45{fill:none;}.cls-47,.cls-48{stroke:#fff;}.cls-47{stroke-width:1.39px;}.cls-48{stroke-width:0.77px;}.cls-49{fill:#1a1a1a;}.cls-50{fill:#010101;}.cls-51{opacity:0.3;}.cls-52{fill:#d0dddc;}.cls-54{stroke:#333;}.cls-55{fill:#e2c675;}.cls-56{fill:#e24d32;}</style><mask id="mask" x="47.83" y="87.95" width="20.32" height="5.34" maskUnits="userSpaceOnUse"><g transform="translate(-15.8 0.25)"><path class="cls-1" d="M64,92.29v-3a1.19,1.19,0,0,1,1.12-1.22H82.28a1.31,1.31,0,0,1,1.26,1.22v3Z"/></g></mask></defs><title>Zoey Breast Cancer</title><g class="cls-2"><g id="_09_Zoey_Breast_Cancer" data-name="09 Zoey Breast Cancer"><path class="cls-3" d="M93,144a23,23,0,0,1-5.92-.58,6.46,6.46,0,0,1-1.07-.33A7.09,7.09,0,0,1,81.56,135a5.86,5.86,0,0,1-.42-2.11l-.59-.09-1-.12-.36,0-1.14-.1q-2-.14-4.09-.14h-.3a46.44,46.44,0,0,0-7.55.58,5.85,5.85,0,0,1-.41,2,7.08,7.08,0,0,1-4.44,8.1,6.54,6.54,0,0,1-1.07.33,22.62,22.62,0,0,1-5.92.58c-4.63,0-6.39-.62-7.41-1.16a6.3,6.3,0,0,1-1.86-1.5A7.1,7.1,0,0,1,43.14,135a5.86,5.86,0,0,1-.2-3.74l-.59-1.07c-.39-.72-.75-1.37-1.34-2.33l-.06-.09c-.31-.43-.62-.89-.92-1.37l-.34-.57-.09-.15c-.22-.38-.43-.75-.63-1.13l-.27-.54a18.44,18.44,0,0,1-3.47-1.55,8.65,8.65,0,0,0-3.18-1.26h-.14l-.52,0A5.33,5.33,0,0,1,27,112.93l.07-.11a5.33,5.33,0,0,1,1.92-4.51c.47-.52,1.54-1.8,2.34-2.77l1.71-2a7.56,7.56,0,0,1,.82-2.89,5.84,5.84,0,0,1,.37-.6,42.88,42.88,0,0,1,2.93-8.11h-.4a8.13,8.13,0,0,1-8-6.57,7,7,0,0,1-3.48-4.76c0-.22-.07-.44-.1-.65a6.85,6.85,0,0,1-.8-6.26,7.05,7.05,0,0,1,1.86-5.79q-.06-.26-.1-.53l-.08-.56c0-.13,0-.26,0-.4s0-.26-.07-.39A5.89,5.89,0,0,1,26,64a6.52,6.52,0,0,1,2.9-6.16,6.23,6.23,0,0,1,4.55-3.11l2-.29.38-.81a5.3,5.3,0,0,1,.37-.66c.37-.76.8-1.61,1.29-2.55.65-1.28,1.36-2.67,2.08-4.16l-.48-1-.26-.53a7,7,0,0,1-.57-5.28,9.44,9.44,0,0,1,.86-2.2,20.16,20.16,0,0,1-4.57-9.83,9.55,9.55,0,0,1,2-7.44,10.3,10.3,0,0,1,4-3,12.31,12.31,0,0,1,2.2-.89A8.56,8.56,0,0,1,46,8.26a5.75,5.75,0,0,1,7.16,0l.62,0c.84,0,1.82.08,2.87.22a26.91,26.91,0,0,1,3.15-3.26l.59-.54A5.76,5.76,0,0,1,65.93,0h.25c4.62,0,8.17,3.27,9.13,8.27h1c10.05,0,16.52,3.7,20.17,6.81a25,25,0,0,1,2.05,2,15.48,15.48,0,0,1,6-1.42,10.12,10.12,0,0,1,1.1.06h.59a6.28,6.28,0,0,1,3.93,1.67,12.67,12.67,0,0,1,4.14,9.87,18.86,18.86,0,0,1-4.53,11.07,11.24,11.24,0,0,1,.06,1.27,7.34,7.34,0,0,1-.79,3.51,6.4,6.4,0,0,1-1.27,1.64,20.72,20.72,0,0,1-.81,2.35c.27,1,.55,1.95.82,2.86a5.31,5.31,0,0,1,.56,1.21A60.82,60.82,0,0,1,110,57.24c.1.52.23,1.17.32,1.9.05.43.09.85.1,1.29,0,.13,0,.28,0,.46,0,0,0,.61,0,.65a17,17,0,0,1-2.55,8.2,20.08,20.08,0,0,1-1.48,2.07v0c0,.2.08.4.12.61a5.72,5.72,0,0,1,4.2,4.31,5.9,5.9,0,0,1,.14,1,11.82,11.82,0,0,1,2.82,5.38c.71,3.33-.18,6.71-2.66,10l-.2.26c.34.91.64,1.8.91,2.69a23.57,23.57,0,0,1,.62,2.29,38.59,38.59,0,0,1,.84,4.79,8.23,8.23,0,0,1,.51,1.85l1.54,1.84c.82,1,1.91,2.28,2.36,2.79a5.33,5.33,0,0,1,1.88,3.88,5.33,5.33,0,0,1-4.68,7.89l-.52,0H114a8.64,8.64,0,0,0-3.18,1.26c-.59.32-1.22.65-1.88.95l-.12.25-.17.35c-.28.55-.6,1.13-1,1.75l-.52.84c-1,1.66-1.5,2.67-2.18,3.95l-.45.84-.13.22a5.85,5.85,0,0,1-.34,3.12,7.11,7.11,0,0,1-1.85,6.35,6.28,6.28,0,0,1-1.85,1.5C99.39,143.38,97.63,144,93,144Z" transform="translate(-15.8 0.25)"/><g id="Body"><path class="cls-4" d="M51.56,75.91c-3.54,2.36-8.39.46-9.47-.93-.91-1.17-5.54,4.21-4.8,5s8.57,9.83,10.23,9.78C56.76,89.52,53.39,74.69,51.56,75.91Z" transform="translate(-15.8 0.25)"/><path class="cls-5" d="M47.51,91c-.8,0-2.69-1.5-10.08-9.8a7.31,7.31,0,0,1-.46-.71,1.19,1.19,0,0,1-.1-1.16c.5-1.46,3.19-4.64,4.66-4.88a.9.9,0,0,1,.91.29c1,1.28,5.62,3,8.88.82h0a.86.86,0,0,1,1,.06c1.35,1,2.45,6.62,1.25,10.38-.94,2.94-3,5-6.08,5ZM37.64,79.73a7.37,7.37,0,0,0,.44.82C45.59,89,47.18,90,47.5,90h0c2.32,0,5.18-1.5,5.68-6.38.38-3.7-.9-7-1.4-7.17C48,79,43,76.88,41.74,75.33c-.07,0-.48,0-1.29.72C39,77.32,37.63,79.24,37.64,79.73Zm13.92-3.83.24.36h0Z" transform="translate(-15.8 0.25)"/><g class="cls-6"><path class="cls-7" d="M38,80.55c2.23,1,5.29-3,5.48-4.45-.28-.46-2.13-.93-2.13-.93l-4.2,4.54Z" transform="translate(-15.8 0.25)"/></g><path class="cls-8" d="M43.85,71.45c1,2.54-3.21,7.49-6.69,8.25-2.95.64-3.1-2.18-3.15-3.37S29.89,74,30.93,72.1s3.39,1.5,4.81.59-1.32-4,.53-4.65c2.2-.81,2.62,4.45,4.35,4.12C41.86,71.92,43.51,70.62,43.85,71.45Z" transform="translate(-15.8 0.25)"/><path class="cls-9" d="M36.35,80.22a2.46,2.46,0,0,1-1.55-.49c-1.11-.86-1.19-2.56-1.22-3.37,0-.27-.71-.78-1.22-1.15-1.1-.79-2.6-1.87-1.8-3.31.71-1.28,2-.58,3-.07.74.4,1.51.8,2,.51s.23-.87,0-1.79-.69-2.4.65-2.89c1.54-.56,2.36,1.06,3,2.37.45.9.91,1.82,1.4,1.73a6.73,6.73,0,0,0,1.34-.5c.75-.34,1.39-.63,1.9-.43a.82.82,0,0,1,.46.47h0a4.12,4.12,0,0,1-.5,3.42c-1.16,2.21-3.91,4.83-6.49,5.39A4.21,4.21,0,0,1,36.35,80.22ZM31.75,72a.49.49,0,0,0-.45.3c-.41.74.35,1.36,1.55,2.23.83.6,1.54,1.11,1.57,1.79s.09,2.12.89,2.74a2.07,2.07,0,0,0,1.75.23c2.1-.46,4.71-2.64,5.93-5a3.41,3.41,0,0,0,.46-2.72v0a3.69,3.69,0,0,0-1.23.42,7.29,7.29,0,0,1-1.52.56c-1.1.21-1.71-1-2.3-2.17-.69-1.37-1.2-2.25-2-2-.52.19-.49.64-.13,1.88.27.95.61,2.13-.32,2.73s-1.9,0-2.81-.48A3.76,3.76,0,0,0,31.75,72Z" transform="translate(-15.8 0.25)"/><g class="cls-10"><path class="cls-8" d="M42.4,71.8c-.46.55-2.29,1.62-2.81,1s-1.16-2-1-2.27c.32.63.86,1.85,1.68,2A5.38,5.38,0,0,0,42.4,71.8Z" transform="translate(-15.8 0.25)"/></g><g class="cls-10"><path class="cls-8" d="M36.17,70.37c.22.44,1.13,2.56.09,3.15s-1.79.1-2.88-1c.51.3,1.8.94,2.56.37S36.52,71.48,36.17,70.37Z" transform="translate(-15.8 0.25)"/></g><g class="cls-6"><path class="cls-8" d="M42.64,75.08c-6.51-1.37-6.53,3.54-6,4.41C39,79.31,42.48,75.92,42.64,75.08Z" transform="translate(-15.8 0.25)"/></g><g class="cls-10"><path class="cls-8" d="M33.73,75.38c1.28.86,1,1.88.4,2.15a2.18,2.18,0,0,1-1.89-.24c.23-.08,1.93.08,2-.78C34.36,75.87,33.91,75.62,33.73,75.38Z" transform="translate(-15.8 0.25)"/></g><g class="cls-11"><path class="cls-7" d="M58.87,128.66c4-14.92,32.18-10.67,31.84.43C89,126.67,78.21,125.89,75.09,126,72.47,126,62.51,125.45,58.87,128.66Z" transform="translate(-15.8 0.25)"/></g><path class="cls-4" d="M93.28,73.08c7.53,5.1,19.21,8.36,13,16.69C102.06,95.43,97,89.08,94.38,88S91.27,71.72,93.28,73.08Z" transform="translate(-15.8 0.25)"/><path class="cls-5" d="M102.36,92.53c-2.22,0-4.38-1.56-6-2.75a12.48,12.48,0,0,0-2.12-1.35c-1.88-.77-2.41-6.49-2.53-8.23-.08-1.12-.38-6.76,1-7.53a.8.8,0,0,1,.87.06h0c1.61,1.09,3.44,2.11,5.21,3.1,4.56,2.55,8.87,5,9.63,8.48.38,1.79-.18,3.66-1.72,5.73A5.27,5.27,0,0,1,102.36,92.53ZM93,73.45c-.46.49-.82,3.85-.36,8.15.41,3.79,1.22,5.75,1.85,6a12.65,12.65,0,0,1,2.3,1.46c2.73,2,6.12,4.43,9.09.44,1.38-1.86,1.9-3.5,1.57-5-.67-3.14-4.81-5.45-9.2-7.9C96.53,75.59,94.69,74.56,93,73.45Z" transform="translate(-15.8 0.25)"/><path class="cls-4" d="M106.77,100.56C106,93.49,92.68,71.88,90.7,67.72c-.93-2-7.1-3.27-14.76-3.95a2.67,2.67,0,0,0-1.26-.24l-.91.06-.91-.06a2.67,2.67,0,0,0-1.26.24c-7.67.68-14.85,1.88-15.32,4-1.74,7.87-14.72,25.73-15.51,32.79-1.06,9.54,1.06,22.21,8.52,27.59,1.55,1.12,8,2.22,10.95,1.19,1.8-3.59,25.19-3.65,27-.09.87,1.69,9.45,0,11-1.1C105.7,122.76,107.83,110.1,106.77,100.56Z" transform="translate(-15.8 0.25)"/><path class="cls-5" d="M89.81,130.41a7.58,7.58,0,0,1-1.71-.16,1.76,1.76,0,0,1-1.24-.8c-.73-1.42-6.3-2.43-13.22-2.4s-12.3,1.08-13,2.49l-.08.16-.17.06c-3.06,1.05-9.67,0-11.35-1.25C45.53,126,42.9,121.66,41.41,116a43.37,43.37,0,0,1-1.08-15.52c.42-3.77,4.06-10.24,7.91-17.08C51.58,77.5,55,71.37,55.85,67.67c.29-1.29,2.22-3.13,15.64-4.33a3.1,3.1,0,0,1,1.4-.24l.88.06.88-.06a3.11,3.11,0,0,1,1.4.24c11.27,1,14.41,2.83,15.05,4.19.5,1,1.74,3.24,3.31,6,4.56,8.08,12.2,21.6,12.8,27A43.37,43.37,0,0,1,106.13,116c-1.49,5.64-4.13,10-7.62,12.48C97.34,129.34,92.84,130.41,89.81,130.41ZM73.93,127a56.31,56.31,0,0,1,8.62.23c2.88.51,4.59,1,5.09,2,0,.06.16.12.67.24,2.35.56,8.44-.75,9.69-1.65,7.23-5.22,9.39-17.77,8.34-27.21h0C105.75,95.46,98.17,82,93.64,74c-1.58-2.8-2.83-5-3.34-6.09-.75-1.58-6.14-3-14.41-3.7h-.07l-.07,0A2.21,2.21,0,0,0,74.7,64l-.9.06h-.06l-.9-.06a2.21,2.21,0,0,0-1.06.2l-.07,0h-.07c-13,1.15-14.77,2.94-14.93,3.65-.85,3.83-4.33,10-7.7,16C45.37,90.32,41.6,97,41.2,100.61c-1.05,9.43,1.11,22,8.34,27.18,1.34,1,7.37,2.11,10.4,1.18.59-.89,2.24-1.18,4.9-1.67a54.29,54.29,0,0,1,8.79-.3Z" transform="translate(-15.8 0.25)"/><g class="cls-6"><path class="cls-7" d="M104.27,79.53c-.37.37-2.23,3.06-2.23,3.8a20.18,20.18,0,0,0,2.13,4.83,3.15,3.15,0,0,0,3.43-.65c-.74,1.95-3.06,3.8-3.62,4.45s-6.77-10.39-6.77-10.39L102,78l2.23,1.58" transform="translate(-15.8 0.25)"/></g><path class="cls-4" d="M40.75,110.34c.14,10.81,10,19.07,9.65,23.94,0,.62,8.68.14,8.68.14.18-2.56.87-4.84,2.55-6.22" transform="translate(-15.8 0.25)"/><path class="cls-5" d="M53.61,135c-2.06,0-3.23-.13-3.49-.39a.51.51,0,0,1-.15-.4c.13-1.89-1.5-4.5-3.38-7.53-2.76-4.43-6.19-9.95-6.27-16.38h.88c.08,6.19,3.44,11.59,6.14,15.93,2,3.15,3.52,5.67,3.52,7.78a55,55,0,0,0,7.82,0c.26-2.87,1.14-4.88,2.68-6.14l.56.68c-1.41,1.16-2.2,3.09-2.39,5.91l0,.39-.39,0Q55.73,135,53.61,135Z" transform="translate(-15.8 0.25)"/><path class="cls-4" d="M106.64,110.52c-.14,10.81-9.61,18.89-9.28,23.76,0,.62-8.68.14-8.68.14-.18-2.56-.87-4.84-2.55-6.22" transform="translate(-15.8 0.25)"/><path class="cls-5" d="M94.16,135q-2.12,0-5.5-.19l-.39,0,0-.39c-.2-2.82-1-4.75-2.39-5.91l.56-.68c1.54,1.26,2.42,3.27,2.68,6.14a55,55,0,0,0,7.82,0c0-2.11,1.5-4.6,3.39-7.72,2.59-4.29,5.82-9.62,5.9-15.81h.88c-.08,6.42-3.38,11.87-6,16.25-1.81,3-3.38,5.58-3.25,7.47a.51.51,0,0,1-.15.4C97.39,134.91,96.22,135,94.16,135Z" transform="translate(-15.8 0.25)"/><g class="cls-6"><path class="cls-7" d="M102.88,122.68c-5.38,1.76-6.4,8.17-6.4,8.17s-7.61.28-7.7,1.21,8.82,1,8.82,1A106.64,106.64,0,0,1,102.88,122.68Z" transform="translate(-15.8 0.25)"/></g><g class="cls-11"><path class="cls-7" d="M49.15,129.36c-.21-.42,1.58,1.67,1.58,1.67a26.19,26.19,0,0,1,7.52-.19c.72.07,2-1.67,2.69-2.41s-2,4.08-1.95,5.29-8.63,0-8.72-.28S49.43,129.92,49.15,129.36Z" transform="translate(-15.8 0.25)"/></g><path class="cls-12" d="M102.28,123.85a24,24,0,0,0,2.34-4.61,23.3,23.3,0,0,0,2-7.9,44.22,44.22,0,0,0,.16-10.78c-.79-7.06-65.21-7.06-66,0a44.21,44.21,0,0,0,0,9.83l-.05,0a22.4,22.4,0,0,0,2.15,8.88,23.14,23.14,0,0,0,2.95,5.48c1,1.72,1.42,2.49,2.23,3.92,1.06,1.87,12.51.71,12.65.53a5.53,5.53,0,0,1,.82-.87c4.89-2.29,20.88-2.24,24.89.19a5.66,5.66,0,0,1,.73.85c.14.2,11.39,1.32,12.33-.42S101,126,102.28,123.85Z" transform="translate(-15.8 0.25)"/><path class="cls-13" d="M94.41,130.3c-1.59,0-3.16-.09-4.1-.16-3.29-.24-3.4-.4-3.51-.56a5.26,5.26,0,0,0-.64-.75c-3.9-2.3-19.49-2.41-24.39-.17a5.13,5.13,0,0,0-.71.76c-.1.14-.23.3-3.57.54a48.1,48.1,0,0,1-6,.09c-2.18-.14-3.37-.53-3.76-1.21L47,127.57c-.42-.77-.82-1.49-1.51-2.62a23.6,23.6,0,0,1-3-5.57,22.66,22.66,0,0,1-2.18-9v-.47a44.63,44.63,0,0,1,0-9.37c.21-1.91,3.78-3.34,10.91-4.36a167.63,167.63,0,0,1,22.53-1.33,167.63,167.63,0,0,1,22.53,1.33c7.13,1,10.69,2.45,10.91,4.36a44.57,44.57,0,0,1-.16,10.87,23.6,23.6,0,0,1-2,8,24.44,24.44,0,0,1-2.37,4.67c-1.05,1.83-1.63,2.91-2.37,4.28l-.41.75c-.36.66-1.49,1-3.67,1.14C95.63,130.28,95,130.3,94.41,130.3Zm-7-1.35a50.3,50.3,0,0,0,5.87.46c5.19.13,5.75-.63,5.8-.72l.4-.75c.74-1.38,1.33-2.46,2.39-4.31v0a23.62,23.62,0,0,0,2.3-4.52,22.75,22.75,0,0,0,2-7.77v0a43.67,43.67,0,0,0,.16-10.67c-.07-.65-1.21-2.31-10.16-3.59a166.79,166.79,0,0,0-22.4-1.32A166.79,166.79,0,0,0,51.36,97c-9,1.28-10.09,2.94-10.16,3.59a43.82,43.82,0,0,0,0,9.73l.13,1.11-.14-.12A22.63,22.63,0,0,0,43.3,119a22.78,22.78,0,0,0,2.9,5.4l0,0c.7,1.16,1.11,1.89,1.54,2.67l.7,1.26c.77,1.36,10.46.73,12,.37a6,6,0,0,1,.79-.83l0,0,.05,0c5.13-2.4,21.21-2.26,25.31.21l.08.06A6.07,6.07,0,0,1,87.43,128.95Z" transform="translate(-15.8 0.25)"/><g class="cls-6"><path class="cls-12" d="M60.39,128.81c3.71-13.87,27.59-9.86,27.27.46C86,127,76.92,126.5,74,126.58,71.58,126.65,63.78,125.83,60.39,128.81Z" transform="translate(-15.8 0.25)"/></g></g><path class="cls-14" d="M83.79,75.61c0,4.27-3.28,15.68-10.87,14.86s-9-10.28-9-14.56,3.61-4.77,10.33-4.77S83.79,71.34,83.79,75.61Z" transform="translate(-15.8 0.25)"/><path class="cls-15" d="M45.34,88.72c.18.53,8.86-.44,9.28-.09S53.19,75,53.19,74.68c-3-.63-5.43,2.44-6.91,1.14C47.76,78.6,47.64,87.88,45.34,88.72Z" transform="translate(-15.8 0.25)"/><path class="cls-16" d="M46.53,89.3c-1.27,0-1.48-.15-1.58-.45a.42.42,0,0,1,.25-.52,2,2,0,0,0,.91-1.23c1-2.73.93-8.94-.2-11.08a.42.42,0,0,1,.64-.51c.51.45,1.22.16,2.43-.38a6.92,6.92,0,0,1,4.29-.85.42.42,0,0,1,.33.41c0,.09.12,1,.25,2,1.49,12,1.37,12.08,1,12.29a.45.45,0,0,1-.42,0,34.06,34.06,0,0,0-3.88.13C48.6,89.24,47.34,89.3,46.53,89.3Zm7.83-.35h0Zm-8-.48c1,0,2.86-.1,4.18-.18,2.14-.13,3.21-.18,3.77-.15-.05-1.73-.91-8.59-1.25-11.33-.12-1-.18-1.48-.22-1.77a6.62,6.62,0,0,0-3.49.84,5.3,5.3,0,0,1-2.3.67c.9,2.82.89,8.16-.14,10.83A4.26,4.26,0,0,1,46.31,88.46Z" transform="translate(-15.8 0.25)"/><path class="cls-15" d="M94.9,74.15c4.73-.93,8,4.18,10.12,3.9-4.83,1.58-6.66,6-10.39,8.35l-3-12.71Z" transform="translate(-15.8 0.25)"/><path class="cls-16" d="M94.62,86.81a.42.42,0,0,1-.41-.32l-3-12.71a.42.42,0,0,1,.1-.38.42.42,0,0,1,.37-.13l3.18.45c3-.56,5.4,1.14,7.31,2.51,1.12.8,2.08,1.49,2.76,1.4a.42.42,0,0,1,.18.81c-2.78.91-4.58,2.84-6.31,4.7a21.11,21.11,0,0,1-4,3.6A.42.42,0,0,1,94.62,86.81ZM92.2,74.18l2.69,11.53a22.81,22.81,0,0,0,3.33-3.14,17.85,17.85,0,0,1,5.41-4.43,14.49,14.49,0,0,1-1.91-1.23c-1.8-1.29-4-2.89-6.74-2.36h-.14Z" transform="translate(-15.8 0.25)"/><g class="cls-6"><path class="cls-15" d="M49.43,75.17c-.23,3.52.19,5.2-2,7.89-.47-.59.66,6.14,1.95,6.5S54,74.83,54.22,74.36,51.87,74.57,49.43,75.17Z" transform="translate(-15.8 0.25)"/></g><path class="cls-3" d="M52.71,74.47C49.33,85.38,37,96.23,39.31,111c10.12,8.54,60-.65,67.65,2.69C110.49,95.21,97.87,85,95,73.39c-.11-.43-4.31-.61-10.18-.59C85.34,80.74,73,81.57,73,81.57s-8.63.7-9.51-8.2C57.33,73.68,52.82,74.09,52.71,74.47Z" transform="translate(-15.8 0.25)"/><path class="cls-17" d="M60.24,115.15c-9.5,0-17.68-.87-21.2-3.84l-.12-.1,0-.15c-1.54-9.79,3.37-18,7.7-25.32,2.34-3.94,4.56-7.66,5.71-11.39h0c.12-.37.26-.84,11.12-1.39l.4,0,0,.4c.82,8.37,8.72,7.85,9.06,7.82.07,0,7-.51,10-4a5.73,5.73,0,0,0,1.41-4.31l0-.45h.45c10.34,0,10.48.47,10.59.91,1,3.85,3,7.57,5.21,11.5,4.3,7.76,9.18,16.56,6.81,29l-.1.51-.48-.21c-2.89-1.27-12.37-.65-23.35.06C76,114.61,67.7,115.15,60.24,115.15ZM39.7,110.77c6.17,5,27,3.61,43.69,2.52,10.55-.69,19.74-1.28,23.25-.17,2.09-11.86-2.63-20.39-6.81-27.93-2.18-3.94-4.24-7.66-5.25-11.56-.35-.12-2-.42-9.23-.42h-.15a6.49,6.49,0,0,1-1.64,4.48C80.3,81.45,73.28,82,73,82c-.08,0-8.79.6-9.9-8.18-6.5.34-9.41.69-10,.92-1.19,3.78-3.41,7.5-5.75,11.44C42.87,93.63,38.28,101.34,39.7,110.77Z" transform="translate(-15.8 0.25)"/><g class="cls-6"><path class="cls-17" d="M52.47,75.91c11.31,11.82,35.18,8.06,42.68.75.79-.77-.35-3.64-1.13-3.13-5.63,3.69-28,6.28-40.14.34Z" transform="translate(-15.8 0.25)"/></g><g class="cls-6"><path class="cls-17" d="M103.62,90.85c6.77,19.3-47.63,24.35-61.34,21.07,10.21,6.22,58-1.11,64.41,1.48C108.56,110.71,108.08,99.57,103.62,90.85Z" transform="translate(-15.8 0.25)"/></g><path class="cls-15" d="M89.87,135.23c.53-1-.77-3.74-.26-4.34s6.09-.46,6.31,0c.39.86-.63,3-.37,4.32A25.43,25.43,0,0,1,89.87,135.23Z" transform="translate(-15.8 0.25)"/><path class="cls-16" d="M92.51,136c-2.66,0-2.8-.23-2.93-.35a.53.53,0,0,1-.08-.55h0a4.56,4.56,0,0,0-.18-2.19c-.22-1-.4-1.82,0-2.26.69-.82,4.38-.62,5.58-.45,1,.14,1.32.32,1.43.56a4,4,0,0,1-.11,2.29,6,6,0,0,0-.23,2.12.61.61,0,0,1-.23.56c-.08,0-.34.28-3.08.28Zm-2.27-.58Zm.15-.5a46.74,46.74,0,0,0,4.7,0,8.45,8.45,0,0,1,.28-2.05,5,5,0,0,0,.2-1.68,11.34,11.34,0,0,0-2.82-.31,6.56,6.56,0,0,0-2.82.31,4.77,4.77,0,0,0,.2,1.53A6.8,6.8,0,0,1,90.39,134.92Z" transform="translate(-15.8 0.25)"/><path class="cls-15" d="M96.85,132c-.67.09-1.39,2.53-2.48,2.58-.45,0-1,.06-1.53.06s-1.08,0-1.53-.06c-1.09,0-1.81-2.48-2.48-2.58-.47-.07-2.18.55-1.89.92,1.57,1.95-1.1,3.87,1.29,4.87a19.77,19.77,0,0,0,4.62.31,19.77,19.77,0,0,0,4.62-.31c2.39-1-.28-2.92,1.29-4.87C99,132.54,97.32,131.92,96.85,132Z" transform="translate(-15.8 0.25)"/><path class="cls-16" d="M92.84,138.51a19.08,19.08,0,0,1-4.78-.35c-1.6-.67-1.36-1.81-1.16-2.73a2.42,2.42,0,0,0-.29-2.27.57.57,0,0,1,0-.65,3.35,3.35,0,0,1,2.32-.95c.48.07.81.59,1.22,1.24s.82,1.31,1.22,1.33l.44,0c.34,0,.68,0,1.07,0s.74,0,1.07,0l.44,0c.4,0,.88-.78,1.22-1.33s.74-1.18,1.22-1.24h0a3.35,3.35,0,0,1,2.32.95.57.57,0,0,1,0,.65,2.42,2.42,0,0,0-.29,2.27c.19.92.43,2.06-1.16,2.73A19.08,19.08,0,0,1,92.84,138.51Zm-5.43-5.67a3.29,3.29,0,0,1,.31,2.76c-.19.92-.29,1.38.67,1.78a21,21,0,0,0,4.46.28,20.92,20.92,0,0,0,4.46-.28c1-.4.86-.86.67-1.78a3.29,3.29,0,0,1,.31-2.76,3.65,3.65,0,0,0-1.35-.44,3.66,3.66,0,0,0-.64.86c-.49.79-1.06,1.68-1.89,1.72L94,135c-.33,0-.71,0-1.12,0s-.79,0-1.12,0l-.43,0c-.84,0-1.4-.93-1.89-1.72a3.47,3.47,0,0,0-.65-.86A3.53,3.53,0,0,0,87.41,132.84Z" transform="translate(-15.8 0.25)"/><path class="cls-18" d="M98.31,133.4a8.76,8.76,0,0,0-2.78,2.92c.16.84,2.91.68,3,.65A6.86,6.86,0,0,1,98.31,133.4Z" transform="translate(-15.8 0.25)"/><path class="cls-16" d="M97.81,137.29a5,5,0,0,1-2.11-.36.82.82,0,0,1-.45-.55c-.1-.52,2.28-3.1,3-3.25a.28.28,0,0,1,.32.35,5.48,5.48,0,0,0,.14,3,1.47,1.47,0,0,1,.09.48.28.28,0,0,1-.18.23A4.31,4.31,0,0,1,97.81,137.29Zm-2-1c.18.36,1.67.44,2.38.41l0-.05A6.51,6.51,0,0,1,97.9,134,12.21,12.21,0,0,0,95.82,136.31Z" transform="translate(-15.8 0.25)"/><path class="cls-18" d="M87.4,133.4a8.76,8.76,0,0,1,2.78,2.92c-.16.84-2.91.68-3,.65A6.86,6.86,0,0,0,87.4,133.4Z" transform="translate(-15.8 0.25)"/><path class="cls-16" d="M87.9,137.29a4.31,4.31,0,0,1-.82-.05.28.28,0,0,1-.18-.23,1.46,1.46,0,0,1,.09-.48,5.47,5.47,0,0,0,.14-3,.28.28,0,0,1,.32-.35c.72.15,3.1,2.73,3,3.25a.82.82,0,0,1-.45.55A5,5,0,0,1,87.9,137.29Zm-.72-.29h0Zm.34-.27c.71,0,2.2-.05,2.38-.41A12.2,12.2,0,0,0,87.8,134a6.51,6.51,0,0,1-.27,2.71Zm2.39-.38Z" transform="translate(-15.8 0.25)"/><path class="cls-12" d="M97.87,136.87a3,3,0,0,1-2.05-.14,7,7,0,0,1-1-1,12.5,12.5,0,0,0-3.62,0,7,7,0,0,1-1,1,3,3,0,0,1-2.05.14c-.15,0-.35.59.17.87.1.05,1,.49,4.7.49s4.6-.43,4.7-.49C98.22,137.46,98,136.85,97.87,136.87Z" transform="translate(-15.8 0.25)"/><path class="cls-13" d="M93,138.67c-3.61,0-4.67-.41-4.9-.54a1,1,0,0,1-.52-1.23.58.58,0,0,1,.61-.46c1,.14,1.34.15,1.79-.09a4.56,4.56,0,0,0,.8-.78l.11-.11c.13-.13.26-.26,2.12-.26s2,.13,2.12.26l.11.11a4.58,4.58,0,0,0,.8.78c.45.24.74.23,1.79.09a.58.58,0,0,1,.61.46,1,1,0,0,1-.52,1.23C97.67,138.25,96.61,138.67,93,138.67Zm-4.47-1.3c.15.07,1.11.43,4.47.43s4.32-.36,4.47-.43a2.82,2.82,0,0,1-1.86-.24,5,5,0,0,1-1-1l0,0a18,18,0,0,0-3.12,0l0,0a5,5,0,0,1-1,1A2.81,2.81,0,0,1,88.53,137.36Z" transform="translate(-15.8 0.25)"/><path class="cls-14" d="M95.9,133a.41.41,0,0,1-.21-.06c-.76-.45-4.92-.46-6,0a.42.42,0,1,1-.32-.77c1.25-.51,5.7-.56,6.75.06a.42.42,0,0,1-.21.78Z" transform="translate(-15.8 0.25)"/><path class="cls-14" d="M94.79,134.4a.42.42,0,0,1-.18,0,8.78,8.78,0,0,0-3.78,0,.42.42,0,1,1-.25-.8,9.31,9.31,0,0,1,4.39.06.42.42,0,0,1-.18.79Z" transform="translate(-15.8 0.25)"/><path class="cls-15" d="M57.39,135.23c-.53-1,.77-3.74.26-4.34s-6.09-.46-6.31,0c-.39.86.63,3,.37,4.32A25.43,25.43,0,0,0,57.39,135.23Z" transform="translate(-15.8 0.25)"/><path class="cls-16" d="M54.75,136H54.6c-2.73,0-3-.24-3.08-.28a.53.53,0,0,1-.23-.51,6.17,6.17,0,0,0-.23-2.15,4,4,0,0,1-.11-2.3c.11-.24.39-.43,1.43-.57,1.19-.16,4.89-.37,5.58.45.38.45.2,1.24,0,2.25a4.46,4.46,0,0,0-.18,2.17h0a.61.61,0,0,1-.08.6C57.55,135.77,57.41,136,54.75,136Zm-2.59-1.09a46.58,46.58,0,0,0,4.7,0,6.8,6.8,0,0,1,.26-2.23,4.49,4.49,0,0,0,.2-1.54,6.83,6.83,0,0,0-2.81-.29,11.34,11.34,0,0,0-2.82.31,5,5,0,0,0,.2,1.68A8.45,8.45,0,0,1,52.16,134.91Z" transform="translate(-15.8 0.25)"/><path class="cls-15" d="M50.4,132c.67.09,1.39,2.53,2.48,2.58.45,0,1,.06,1.53.06s1.08,0,1.53-.06c1.09,0,1.81-2.48,2.48-2.58.47-.07,2.18.55,1.89.92-1.57,1.95,1.1,3.87-1.29,4.87a19.77,19.77,0,0,1-4.62.31,19.77,19.77,0,0,1-4.62-.31c-2.39-1,.28-2.92-1.29-4.87C48.22,132.54,49.93,131.92,50.4,132Z" transform="translate(-15.8 0.25)"/><path class="cls-16" d="M54.42,138.51a19.08,19.08,0,0,1-4.78-.35c-1.6-.67-1.36-1.81-1.16-2.73a2.42,2.42,0,0,0-.29-2.27.57.57,0,0,1,0-.65,3.35,3.35,0,0,1,2.32-.95h0c.48.07.81.59,1.22,1.24s.82,1.31,1.22,1.33l.44,0c.34,0,.68,0,1.07,0s.74,0,1.07,0l.44,0c.4,0,.88-.78,1.22-1.33s.74-1.18,1.22-1.24a3.35,3.35,0,0,1,2.32.95.57.57,0,0,1,0,.65,2.42,2.42,0,0,0-.29,2.27c.19.92.43,2.06-1.16,2.73A19.08,19.08,0,0,1,54.42,138.51ZM49,132.84a3.29,3.29,0,0,1,.31,2.76c-.19.92-.29,1.38.67,1.78a21,21,0,0,0,4.46.28,20.92,20.92,0,0,0,4.46-.28c1-.4.86-.86.67-1.78a3.29,3.29,0,0,1,.31-2.76,3.49,3.49,0,0,0-1.36-.44,3.9,3.9,0,0,0-.63.86c-.49.79-1.06,1.68-1.89,1.72l-.43,0c-.33,0-.71,0-1.12,0s-.79,0-1.12,0l-.43,0c-.84,0-1.4-.93-1.89-1.72a3.66,3.66,0,0,0-.64-.86A3.7,3.7,0,0,0,49,132.84Z" transform="translate(-15.8 0.25)"/><path class="cls-18" d="M48.94,133.4a8.76,8.76,0,0,1,2.78,2.92c-.16.84-2.91.68-3,.65A6.86,6.86,0,0,0,48.94,133.4Z" transform="translate(-15.8 0.25)"/><path class="cls-16" d="M49.44,137.29a4.31,4.31,0,0,1-.82-.05.28.28,0,0,1-.18-.23,1.47,1.47,0,0,1,.09-.48,5.48,5.48,0,0,0,.14-3,.28.28,0,0,1,.32-.35c.72.15,3.1,2.73,3,3.25a.82.82,0,0,1-.45.55A5,5,0,0,1,49.44,137.29Zm-.72-.29h0Zm.34-.27c.71,0,2.2-.05,2.38-.41A12.21,12.21,0,0,0,49.35,134a6.51,6.51,0,0,1-.27,2.71Zm2.39.27h0Z" transform="translate(-15.8 0.25)"/><path class="cls-18" d="M59.86,133.4a8.76,8.76,0,0,0-2.78,2.92c.16.84,2.91.68,3,.65A6.86,6.86,0,0,1,59.86,133.4Z" transform="translate(-15.8 0.25)"/><path class="cls-16" d="M59.35,137.29a5,5,0,0,1-2.11-.36.82.82,0,0,1-.45-.55c-.1-.52,2.28-3.1,3-3.25a.28.28,0,0,1,.32.35,5.47,5.47,0,0,0,.14,3,1.46,1.46,0,0,1,.09.48.28.28,0,0,1-.18.23A4.32,4.32,0,0,1,59.35,137.29Zm-2-1c.18.36,1.67.44,2.38.41l0-.06a6.51,6.51,0,0,1-.27-2.71A12.2,12.2,0,0,0,57.36,136.31Zm0,0Z" transform="translate(-15.8 0.25)"/><path class="cls-12" d="M49.38,136.87a3,3,0,0,0,2.05-.14,7,7,0,0,0,1-1,6.18,6.18,0,0,1,1.81-.13,6.18,6.18,0,0,1,1.81.13,7,7,0,0,0,1,1,3,3,0,0,0,2.05.14c.15,0,.35.59-.17.87-.1.05-1,.49-4.7.49s-4.6-.43-4.7-.49C49,137.46,49.24,136.85,49.38,136.87Z" transform="translate(-15.8 0.25)"/><path class="cls-13" d="M54.25,138.67c-3.61,0-4.67-.41-4.9-.54a1,1,0,0,1-.52-1.23.58.58,0,0,1,.61-.46h0c1,.14,1.34.15,1.79-.09a4.58,4.58,0,0,0,.8-.78l.11-.11c.13-.13.26-.26,2.12-.26s2,.13,2.12.26l.11.12a4.58,4.58,0,0,0,.8.78c.45.24.74.23,1.79.09a.58.58,0,0,1,.61.46,1,1,0,0,1-.52,1.23C58.92,138.25,57.86,138.67,54.25,138.67Zm-4.47-1.3c.15.07,1.1.43,4.47.43s4.32-.36,4.47-.43a2.82,2.82,0,0,1-1.86-.24,5,5,0,0,1-1-1l0,0a10.62,10.62,0,0,0-1.56-.07,10.63,10.63,0,0,0-1.56.07l0,0a5,5,0,0,1-1,1A2.82,2.82,0,0,1,49.78,137.36Z" transform="translate(-15.8 0.25)"/><path class="cls-14" d="M51.35,133a.42.42,0,0,1-.21-.78c1.05-.62,5.5-.57,6.75-.06a.42.42,0,1,1-.32.77c-1.09-.45-5.25-.44-6,0A.42.42,0,0,1,51.35,133Z" transform="translate(-15.8 0.25)"/><path class="cls-14" d="M52.47,134.4a.42.42,0,0,1-.18-.79,9.31,9.31,0,0,1,4.39-.06.42.42,0,1,1-.25.8,8.78,8.78,0,0,0-3.78,0A.42.42,0,0,1,52.47,134.4Z" transform="translate(-15.8 0.25)"/><g class="cls-6"><path class="cls-15" d="M107.27,103.5c-.14,2.58-56.17,4-68.56,1.46-.45-.09-.28,1,.56,1.35s67.65,2.32,67.91,1.58A24.81,24.81,0,0,0,107.27,103.5Z" transform="translate(-15.8 0.25)"/></g><path class="cls-15" d="M85.06,74.54s7.24,5.22,14.9,10c-2.1-3.8-4.07-7.41-5-11.18-.11-.43-4.31-.61-10.18-.59Z" transform="translate(-15.8 0.25)"/><path class="cls-16" d="M100,85a.42.42,0,0,1-.22-.06c-7.59-4.75-14.85-10-14.92-10a.42.42,0,0,1-.17-.27l-.29-1.75a.42.42,0,0,1,.41-.49h.63c9.73,0,9.85.5,10,.91,1,3.84,3.09,7.68,5,11.08A.42.42,0,0,1,100,85ZM85.45,74.3c1,.7,6.9,4.92,13.37,9a43.73,43.73,0,0,1-4.23-9.71c-.35-.12-2-.42-9.23-.42h-.09Z" transform="translate(-15.8 0.25)"/><path class="cls-15" d="M63.45,73.37c-6.12.31-10.63.72-10.74,1.1C51.58,78.1,49.23,81.63,47,85.4c3.73-2.25,15.38-10.65,15.38-10.65Z" transform="translate(-15.8 0.25)"/><path class="cls-16" d="M47,85.82a.42.42,0,0,1-.36-.63l1.11-1.85a42.53,42.53,0,0,0,4.56-9c.11-.35.26-.84,11.12-1.39a.43.43,0,0,1,.39.22.42.42,0,0,1,0,.45L62.7,75l-.09.08c-.12.08-11.71,8.44-15.41,10.67A.42.42,0,0,1,47,85.82Zm6.07-11.09a43.87,43.87,0,0,1-4.6,9l-.2.33c4.44-2.9,13.09-9.13,13.82-9.66l.48-.61C56.42,74.16,53.65,74.51,53.06,74.72Z" transform="translate(-15.8 0.25)"/><path class="cls-16" d="M72.81,83c-3.3,0-5.84-.81-7.58-2.42a8.28,8.28,0,0,1-2.51-5.37c-1.46.07-2.67.11-3.6.13A1.39,1.39,0,0,1,59,72.52c1.2,0,2.85-.09,4.92-.2a1.39,1.39,0,0,1,1.47,1.39,6.23,6.23,0,0,0,1.7,4.78c1.44,1.33,3.87,1.88,7.22,1.62,6.4-.5,7.69-3.3,7.69-7.67A1.39,1.39,0,0,1,83.46,71l.71,0c1.67,0,3.56.08,5.18.22a1.39,1.39,0,0,1-.25,2.77c-1.32-.12-2.87-.17-4.32-.2-.29,3.9-2,8.39-10.21,9Q73.65,83,72.81,83Z" transform="translate(-15.8 0.25)"/><g id="Tutu"><g class="cls-19"><path class="cls-14" d="M47.27,106.42c-.91,1.59-8.14,10.58-8.49,10.86,3.62-.21,5.92,3.76,8.56,3.06,1-.7,4.25-13.64,4.52-14.06S47.83,105.44,47.27,106.42Z" transform="translate(-15.8 0.25)"/></g><g class="cls-19"><path class="cls-18" d="M40.17,105.24c-.95,1-8.21,9.81-8.77,10.65,4.25-.42,7.52,3.34,10,3.13,1.46-.14,3.69-11.48,3.76-12.32S40.87,104.47,40.17,105.24Z" transform="translate(-15.8 0.25)"/></g><g class="cls-19"><path class="cls-18" d="M53.46,106.77c-.17,1.49-4.73,11.69-4.73,12,2.44-.28,4.88,2.71,5.08,1.74.84-4.11,2.78-13.15,2.85-13.64S53.53,106.14,53.46,106.77Z" transform="translate(-15.8 0.25)"/></g><g class="cls-20"><path class="cls-14" d="M75,106.77c.17,1.34.84,11.07,1.25,12.11-3.9.14-4.66,2.64-7.45,2.3,1.11-6.06,3.13-13.57,3-14.2S75,106.21,75,106.77Z" transform="translate(-15.8 0.25)"/></g><g class="cls-19"><path class="cls-21" d="M61.75,107c0,1-3.62,13.21-3.62,13.7,2.3-1.32,4.87,1.64,7.17.32.49-.35-1.32-14-1.32-14C64,106,61.75,106,61.75,107Z" transform="translate(-15.8 0.25)"/></g><g class="cls-20"><path class="cls-22" d="M64.79,106.35c0,3.34-3.27,13.11-3,13,7.42-2,6.08,1.58,9,1,1-.19-1.16-13.36-1.21-13.92S64.78,105.93,64.79,106.35Z" transform="translate(-15.8 0.25)"/></g><g class="cls-20"><path class="cls-14" d="M56.74,105.17c-.35,1-5.61,15.25-5.32,15.17,4.87-1.29,7.34,1.46,8.8-.07.94-1,.42-14.23.42-14.69S56.87,104.78,56.74,105.17Z" transform="translate(-15.8 0.25)"/></g><g class="cls-19"><path class="cls-21" d="M55.9,106.28c-.63,1.74-5,10.13-4.52,9.74,1.44-1.22,3.13,1.6,4.18,1.57.42,0,2.44-10.65,2.51-11.14S56.05,105.85,55.9,106.28Z" transform="translate(-15.8 0.25)"/></g><g class="cls-19"><path class="cls-21" d="M100.24,106.42c.91,1.59,8.14,10.58,8.49,10.86-3.62-.21-5.92,3.76-8.56,3.06-1-.7-4.25-13.64-4.52-14.06S99.68,105.44,100.24,106.42Z" transform="translate(-15.8 0.25)"/></g><g class="cls-19"><path class="cls-18" d="M105.94,105.51c.95,1,8.21,9.81,8.77,10.65-4.25-.42-7.52,3.34-10,3.13-1.46-.14-3.69-11.48-3.76-12.32S105.25,104.75,105.94,105.51Z" transform="translate(-15.8 0.25)"/></g><g class="cls-20"><path class="cls-22" d="M94,106.77c.17,1.49,4.73,11.69,4.73,12-2.44-.28-4.88,2.71-5.08,1.74-.84-4.11-2.78-13.15-2.85-13.64S94,106.14,94,106.77Z" transform="translate(-15.8 0.25)"/></g><g class="cls-20"><path class="cls-14" d="M91.41,106.76c.17,1.34,1.92,10.93,1.77,12,3.81-.83,5.17,1.41,7.78.39-2.57-5.59-6.38-12.38-6.4-13S91.34,106.2,91.41,106.76Z" transform="translate(-15.8 0.25)"/></g><g class="cls-19"><path class="cls-21" d="M85.76,107c0,1,3.62,13.21,3.62,13.7-2.3-1.32-4.87,1.64-7.17.32-.49-.35,1.32-14,1.32-14C83.53,106,85.76,106,85.76,107Z" transform="translate(-15.8 0.25)"/></g><g class="cls-19"><path class="cls-18" d="M82.72,106.35c0,3.34,3.28,13,3,13-5.27.81-6.31-1.14-9.23-1.69-1-.19,1.39-10.65,1.44-11.21S82.73,105.93,82.72,106.35Z" transform="translate(-15.8 0.25)"/></g><g class="cls-20"><path class="cls-14" d="M90.77,105.17c.35,1,5.61,15.25,5.32,15.17-4.87-1.29-7.34,1.46-8.8-.07-.94-1-.42-14.23-.42-14.69S90.63,104.78,90.77,105.17Z" transform="translate(-15.8 0.25)"/></g><g class="cls-19"><path class="cls-21" d="M91.61,106.28c.63,1.74,5,10.13,4.52,9.74-1.44-1.22-3.13,1.6-4.18,1.57-.42,0-2.44-10.65-2.51-11.14S91.45,105.85,91.61,106.28Z" transform="translate(-15.8 0.25)"/></g><g class="cls-19"><path class="cls-21" d="M77.5,107.14c0,1.17-3.16,13-2.92,12.95,1.58-.23,6.17-2.32,8.72.19.24.23-3-13.41-3.06-13.78S77.5,106.63,77.5,107.14Z" transform="translate(-15.8 0.25)"/></g><g class="cls-20"><path class="cls-22" d="M45.11,106.35c-.59.59-6.19,6.89-6.61,7.1,1.95.14,2.78,2.3,5.29,2.44,1.32-2.58,4.63-8.49,5-9.54C49,105.74,45.95,105.51,45.11,106.35Z" transform="translate(-15.8 0.25)"/></g><g class="cls-19"><path class="cls-21" d="M50.82,106.28c-.57.74-5.64,7.38-6.26,7.66,2.92.28,4,4.87,5.85,4.87.42-1.95,3-10.86,3.27-12C53.82,106.26,51.31,105.65,50.82,106.28Z" transform="translate(-15.8 0.25)"/></g><g class="cls-20"><path class="cls-22" d="M60.18,106.52c-.15.83-3,12.84-2.68,12.6,2.19-1.77,3.65.1,3.76-.56s.45-11.52.28-12S60.29,105.93,60.18,106.52Z" transform="translate(-15.8 0.25)"/></g><g class="cls-19"><path class="cls-14" d="M51.24,106.17c-.39.78-6.19,10.63-5.78,10.54,2.68-.56,2.92,1.18,3.51.66s3.13-10.44,3.31-10.82S51.45,105.76,51.24,106.17Z" transform="translate(-15.8 0.25)"/></g><g class="cls-19"><path class="cls-21" d="M61.75,106.56c-.1.9-2.8,10.42-2.44,10.23,2.33-1.18,4.18.38,4.63.14s-.14-10-.21-10.37S61.82,105.93,61.75,106.56Z" transform="translate(-15.8 0.25)"/></g><g class="cls-19"><path class="cls-21" d="M53.64,106.17c-.35.83-4.75,10.16-4,10.2,2.44.1,3.27,2.58,3.86,2.33S54.79,107,55,106.45,53.81,105.76,53.64,106.17Z" transform="translate(-15.8 0.25)"/></g><g class="cls-19"><path class="cls-18" d="M103.16,106.35c.59.59,6.19,6.89,6.61,7.1-1.95.14-2.78,2.3-5.29,2.44-1.32-2.58-4.63-8.49-5-9.54C99.3,105.74,102.32,105.51,103.16,106.35Z" transform="translate(-15.8 0.25)"/></g><g class="cls-19"><path class="cls-21" d="M88.54,106.56c.57.74,5.64,7.38,6.26,7.66-2.92.28-4,4.87-5.85,4.87-.42-1.95-3-10.86-3.27-12C85.54,106.54,88.05,105.93,88.54,106.56Z" transform="translate(-15.8 0.25)"/></g><g class="cls-19"><path class="cls-18" d="M89.2,106.8c.15.83,3,12.84,2.68,12.6-2.19-1.77-3.65.1-3.76-.56s-.45-11.52-.28-12S89.1,106.21,89.2,106.8Z" transform="translate(-15.8 0.25)"/></g><g class="cls-19"><path class="cls-14" d="M98.42,105.9c.39.78,6.19,10.63,5.78,10.54-2.68-.56-2.92,1.18-3.51.66s-3.13-10.44-3.31-10.82S98.21,105.48,98.42,105.9Z" transform="translate(-15.8 0.25)"/></g><g class="cls-19"><path class="cls-21" d="M86.52,106.56c.1.9,2.8,10.42,2.44,10.23-2.33-1.18-4.18.38-4.63.14s.14-10,.21-10.37S86.45,105.93,86.52,106.56Z" transform="translate(-15.8 0.25)"/></g><g class="cls-19"><path class="cls-21" d="M94.63,106.17c.35.83,4.75,10.16,4,10.2-2.44.1-3.27,2.58-3.86,2.33S93.48,107,93.31,106.45,94.46,105.76,94.63,106.17Z" transform="translate(-15.8 0.25)"/></g><g class="cls-19"><path class="cls-21" d="M70.45,106.4c-.09.64-1.44,5.94-2.88,12,2.74-1.62,4.41,0,7.1-.23-.65-8.49-1-11.09-1.16-11.88S70.54,105.7,70.45,106.4Z" transform="translate(-15.8 0.25)"/></g><g class="cls-19"><path class="cls-14" d="M73.6,106.44c0,.27-1.16,9.7-1.39,10.12,1.48-.74,3.16.79,4.59.19.09-1.16-.84-9.56-.88-10.3S73.65,105.65,73.6,106.44Z" transform="translate(-15.8 0.25)"/></g><g class="cls-20"><path class="cls-22" d="M70.08,106.44c0,.41-.74,8.91-1.16,10.39,2.32-.65,2.92,2.23,3.9,2.09-.65-5.8-1-12-1-12.53S70,106,70.08,106.44Z" transform="translate(-15.8 0.25)"/></g><g class="cls-19"><path class="cls-21" d="M39.27,104.54c-.84.58-6.54,7.8-6.89,7.87,2.3-.07,2.37,2,4.45,1.81,1.11-2.92,3.76-7,4.32-8.28C41.47,105.21,40.17,103.91,39.27,104.54Z" transform="translate(-15.8 0.25)"/></g><g class="cls-19"><path class="cls-14" d="M58.06,106.91c-.08.62-2.3,10-2.37,10.3,1.81-2.16,5.06.56,4.87-.42-.56-2.85-.77-10.09-.84-10.3S58.13,106.35,58.06,106.91Z" transform="translate(-15.8 0.25)"/></g><g class="cls-19"><path class="cls-18" d="M64,106.91c-.08.9-2.84,11.06-2.44,10.51,1.81-2.44,4.61-.74,5.08.07s-.9-10-.9-10.44S64,106.14,64,106.91Z" transform="translate(-15.8 0.25)"/></g><g class="cls-19"><path class="cls-21" d="M66.74,106.53c-.06.65-1.34,11.34-1.16,10.9,1-2.55,4.5-1.48,5.89,1.3-1.11-5.34-2-11.55-2.09-12.39S66.78,106,66.74,106.53Z" transform="translate(-15.8 0.25)"/></g><g class="cls-19"><path class="cls-14" d="M42.61,105.93c-.31,1.24-5.57,8.28-5.22,8.28,3.13,0,1.95,1.88,3.2,1.81.64,0,4.25-9.19,4.52-9.67S42.75,105.37,42.61,105.93Z" transform="translate(-15.8 0.25)"/></g><g class="cls-19"><path class="cls-21" d="M107.17,105.93c.84.58,6.54,7.8,6.89,7.87-2.3-.07-2.37,2-4.45,1.81-1.11-2.92-3.94-7.73-4.5-9C104.79,105.9,106.27,105.3,107.17,105.93Z" transform="translate(-15.8 0.25)"/></g><g class="cls-19"><path class="cls-14" d="M91.38,106.08c.29.55,5.67,8.5,5.86,8.8-2.46-1.38-4.54,2.32-4.7,1.33-.49-2.87-2.85-9.71-2.86-9.93S91.12,105.59,91.38,106.08Z" transform="translate(-15.8 0.25)"/></g><g class="cls-20"><path class="cls-22" d="M81.63,106.91c.08.9,3,11.69,2.6,11.14-1.81-2.44-4.86-2.71-5.34-1.9s1-8.68,1-9.09S81.56,106.14,81.63,106.91Z" transform="translate(-15.8 0.25)"/></g><g class="cls-19"><path class="cls-21" d="M78.87,106.53c.06.65,1.34,11.34,1.16,10.9-1-2.55-3.69-1.67-5.22-1.76a67.69,67.69,0,0,0,1.42-9.33C76.27,105.51,78.82,106,78.87,106.53Z" transform="translate(-15.8 0.25)"/></g><g class="cls-19"><path class="cls-14" d="M103.28,106.21c.31,1.24,5.57,8.28,5.22,8.28-3.13,0-1.95,1.88-3.2,1.81-.64,0-4.25-9.19-4.52-9.67S103.14,105.65,103.28,106.21Z" transform="translate(-15.8 0.25)"/></g><g id="pink_ribbon" data-name="pink ribbon"><g class="cls-6"><path class="cls-23" d="M92,90.6a18.67,18.67,0,0,1-3.41-3.33A12.49,12.49,0,0,0,89,85.64l.07-.42s0-.19,0-.3a6.53,6.53,0,0,0-1-2.17v0l0,0a1.45,1.45,0,0,0-1.32-.33,1.33,1.33,0,0,0-1,.83h0v0h0a6.37,6.37,0,0,0-.08,2.35,4,4,0,0,0,.37.7h0a10.56,10.56,0,0,0,.93,1.29A18.85,18.85,0,0,1,85,92a1.6,1.6,0,0,0,1-.24A9.86,9.86,0,0,1,86.1,93,15.73,15.73,0,0,0,88,89a15.56,15.56,0,0,0,3.37,3c-.17-.38-.43-1.17-.43-1.17A1.86,1.86,0,0,0,92,90.6Zm-5.91-6.28-.1-.14a1.46,1.46,0,0,1,2-.36l0,.13c-.05.19-.27.94-.58,1.92C86.73,85.08,86.23,84.47,86.11,84.32Z" transform="translate(-15.8 0.25)"/></g><g id="color"><path class="cls-15" d="M86.4,82.17a1.32,1.32,0,0,0-1,.86s-.27,1.49.17,1.38a1.5,1.5,0,0,1,1.11-1,1.38,1.38,0,0,1,1.33.41c.69.25-.24-1.29-.24-1.29A1.45,1.45,0,0,0,86.4,82.17Z" transform="translate(-15.8 0.25)"/><g class="cls-24"><path class="cls-15" d="M86.4,82.17a1.32,1.32,0,0,0-1,.86s-.27,1.49.17,1.38a1.5,1.5,0,0,1,1.11-1,1.38,1.38,0,0,1,1.33.41c.69.25-.24-1.29-.24-1.29A1.45,1.45,0,0,0,86.4,82.17Z" transform="translate(-15.8 0.25)"/></g><path class="cls-15" d="M85.37,83a2,2,0,0,0,.49,1.1c.39.51,4.88,5.9,5.91,6.28a1.86,1.86,0,0,1-1,.21s.44.79.61,1.17C90.24,91.32,87,87.6,86,86.09h0c-1-.33-.51-.6-.55-.7A6.1,6.1,0,0,1,85.37,83Z" transform="translate(-15.8 0.25)"/><path class="cls-15" d="M84.74,91.81c.8-.76,2.82-7.46,3-8.09a2,2,0,0,0,0-1.21,6.53,6.53,0,0,1,1,2.17c0,.11.05.3,0,.3l-.07.42c-.27,1.78-2.09,6.55-2.93,7.37a9.86,9.86,0,0,0-.11-1.22A1.6,1.6,0,0,1,84.74,91.81Z" transform="translate(-15.8 0.25)"/></g></g><g class="cls-10"><path class="cls-15" d="M86.6,87.4c.19.19.84,1.06,1.17,1.37a17.2,17.2,0,0,1-1.93,4,14,14,0,0,0,1.65-3.93C87.36,88.52,86.42,87.28,86.6,87.4Z" transform="translate(-15.8 0.25)"/></g><g class="cls-10"><path class="cls-15" d="M87.33,85.06a3.9,3.9,0,0,0-.19.57c0,.07,1.18,1.37,1.22,1.4A6.09,6.09,0,0,1,87.33,85.06Z" transform="translate(-15.8 0.25)"/></g><g class="cls-10"><path class="cls-15" d="M84.74,91.81a1.69,1.69,0,0,0,1-.53c0-.06,0,.22,0,.29A1.61,1.61,0,0,1,84.74,91.81Z" transform="translate(-15.8 0.25)"/></g><g class="cls-10"><path class="cls-15" d="M90.63,90.36s0,.21.1.22a1.8,1.8,0,0,0,1-.21A1.85,1.85,0,0,1,90.63,90.36Z" transform="translate(-15.8 0.25)"/></g><path class="cls-21" d="M38.64,105.24c5.92,3.34,62.36.35,69.39,1.95.77.17.14-2.29-.21-2.37-6.54-1.46-60.42,1.88-69.12-1.81C38.36,102.86,38,104.9,38.64,105.24Z" transform="translate(-15.8 0.25)"/><g class="cls-6"><path class="cls-15" d="M107.94,104.82c-3.94,1.95-65.24,1.58-69.3.42,6.24,3.11,59.14.56,69.58,1.9A2.72,2.72,0,0,0,107.94,104.82Z" transform="translate(-15.8 0.25)"/></g></g><g id="Water_Bottle" data-name="Water Bottle"><g id="Water_Bottle-2" data-name="Water Bottle"><path class="cls-15" d="M34.45,60.8h2.13a.43.43,0,0,1,.43.43v1.66a0,0,0,0,1,0,0H34a0,0,0,0,1,0,0V61.2A.4.4,0,0,1,34.45,60.8Z" transform="translate(-24.07 5.81) rotate(-8.02)"/><path class="cls-16" d="M34.21,63.51a.42.42,0,0,1-.41-.36l-.24-1.67a.82.82,0,0,1,.7-.93l2.11-.3a.88.88,0,0,1,.61.14.81.81,0,0,1,.35.55l.24,1.67a.42.42,0,0,1-.36.47l-2.94.41Zm2.3-2.42-2.13.29.18,1.24,2.12-.3Z" transform="translate(-15.8 0.25)"/><path class="cls-15" d="M37,60.79l-3.17.45.05-.41a.47.47,0,0,1,.4-.4l2.07-.29a.47.47,0,0,1,.49.28Z" transform="translate(-15.8 0.25)"/><path class="cls-16" d="M33.81,61.65a.42.42,0,0,1-.41-.47l.05-.41a.89.89,0,0,1,.75-.76l2.07-.29a.89.89,0,0,1,.94.53l.16.38a.42.42,0,0,1-.33.58l-3.17.45Z" transform="translate(-15.8 0.25)"/><path class="cls-15" d="M32.51,62.07H39a.76.76,0,0,1,.76.76V64.5a0,0,0,0,1,0,0h-8a0,0,0,0,1,0,0V62.82a.75.75,0,0,1,.75-.75Z" transform="translate(-24.27 5.85) rotate(-8.02)"/><path class="cls-16" d="M32,65.46a.42.42,0,0,1-.41-.36l-.23-1.65a1.17,1.17,0,0,1,1-1.33l6.37-.9a1.21,1.21,0,0,1,.88.22,1.15,1.15,0,0,1,.47.78l.23,1.65a.42.42,0,0,1-.36.47L32,65.45ZM38.84,62h0l-6.37.9a.33.33,0,0,0-.28.38l.17,1.24,7.06-1-.17-1.24a.33.33,0,0,0-.14-.22A.38.38,0,0,0,38.84,62Zm-.11-.41h0Z" transform="translate(-15.8 0.25)"/><rect class="cls-25" x="32.59" y="64.55" width="6.75" height="0.74" transform="translate(-24.5 5.9) rotate(-8.02)"/><path class="cls-26" d="M32.67,66.18a.42.42,0,0,1-.41-.36l-.1-.74a.42.42,0,0,1,.36-.47l6.68-.94a.42.42,0,0,1,.47.36l.1.74a.42.42,0,0,1-.36.47l-6.68.94Z" transform="translate(-15.8 0.25)"/><path class="cls-15" d="M40,64.82c0-.22-.13-.28-.35-.25L36,65.09l-3.71.52c-.22,0-.54.15-.5.37l.08.56c.1.7,1.27,1.41,1.32,1.82s-.8,1.4-.55,3.16l1.78,12.66a2.42,2.42,0,0,0,2.64,2l1.87-.26,1.87-.26A2.22,2.22,0,0,0,42.54,83L40.75,70.37c-.25-1.76-1.33-2.39-1.4-2.88s.87-1.41.77-2.11Z" transform="translate(-15.8 0.25)"/><path class="cls-16" d="M36.73,86.58A2.82,2.82,0,0,1,34,84.24L32.19,71.57a4.86,4.86,0,0,1,.4-2.69,2.46,2.46,0,0,0,.15-.45,3.33,3.33,0,0,0-.4-.44,2.75,2.75,0,0,1-.92-1.39L31.34,66c-.06-.42.29-.76.86-.84l7.43-1a.66.66,0,0,1,.83.6h0l.08.56a2.75,2.75,0,0,1-.5,1.59,3.33,3.33,0,0,0-.26.54,2.46,2.46,0,0,0,.27.39,4.86,4.86,0,0,1,1.13,2.48L43,83A2.64,2.64,0,0,1,40.83,86l-3.74.53ZM32.18,66.06l.06.43c0,.26.41.64.69.91a1.84,1.84,0,0,1,.64.9,1.77,1.77,0,0,1-.21.89A4.06,4.06,0,0,0,33,71.46L34.8,84.12A2,2,0,0,0,37,85.72l3.74-.53a1.8,1.8,0,0,0,1.41-2.11L40.34,70.43a4.06,4.06,0,0,0-1-2.08,1.77,1.77,0,0,1-.44-.8,1.84,1.84,0,0,1,.36-1,2.41,2.41,0,0,0,.41-1.07L39.64,65l-7.33,1Z" transform="translate(-15.8 0.25)"/><rect class="cls-15" x="31.6" y="64.42" width="8.57" height="0.34" rx="0.17" ry="0.17" transform="translate(-24.45 5.89) rotate(-8.02)"/><path class="cls-16" d="M31.8,65.75a.58.58,0,0,1-.58-.5.59.59,0,0,1,.5-.66l8.16-1.15a.58.58,0,0,1,.66.5h0a.58.58,0,0,1-.5.66l-8.16,1.15Z" transform="translate(-15.8 0.25)"/><path class="cls-27" d="M32.48,70.37v0a.7.7,0,0,1,0-.09.64.64,0,0,1,.25-.26.89.89,0,0,1,.52-.09l.15,0h.08l.07,0,.08,0,.08,0,.16.07c.21.1.42.21.64.33s.45.23.69.34A4.74,4.74,0,0,0,36,71a2.3,2.3,0,0,0,.35.06h.31l.11,0,.07,0L37,71a2.3,2.3,0,0,0,.32-.16,4.74,4.74,0,0,0,.62-.45c.2-.17.39-.35.57-.52s.35-.34.53-.49a2.38,2.38,0,0,1,.27-.2l.07,0h0l0,0,.14-.06a.89.89,0,0,1,.52-.05.64.64,0,0,1,.31.18l.06.08,0,0a.14.14,0,1,1-.22.15v0h0v0l0,0a.32.32,0,0,0-.18-.12.43.43,0,0,0-.17,0,.72.72,0,0,0-.2.06l-.11.06,0,0h0l-.05,0a1.66,1.66,0,0,0-.2.21c-.13.16-.27.35-.41.56s-.29.43-.47.65a3.58,3.58,0,0,1-.64.65,2.3,2.3,0,0,1-.43.26l-.25.1-.14,0-.11,0H36.5l-.27,0a2.3,2.3,0,0,1-.49-.13,3.58,3.58,0,0,1-.8-.45c-.23-.17-.44-.34-.63-.5s-.38-.31-.55-.42l-.13-.08-.06,0-.06,0-.07,0h-.06l-.12,0a.55.55,0,0,0-.37,0,.32.32,0,0,0-.14.17v.08a.14.14,0,1,1-.27,0Z" transform="translate(-15.8 0.25)"/><path class="cls-27" d="M37.73,77.71c-4.51.64-3.95,1.73-3.87,2.25l.6,4.26c-.26-1.84-.46-3.9,3.56-4.47s4.4,1.48,4.66,3.31l-.6-4.26C42,78.28,42.24,77.07,37.73,77.71Z" transform="translate(-15.8 0.25)"/><path class="cls-16" d="M36.73,86.58A2.82,2.82,0,0,1,34,84.24L32.19,71.57a4.86,4.86,0,0,1,.4-2.69,2.46,2.46,0,0,0,.15-.45,3.33,3.33,0,0,0-.4-.44,2.75,2.75,0,0,1-.92-1.39L31.34,66c-.06-.42.29-.76.86-.84l7.43-1a.66.66,0,0,1,.83.6h0l.08.56a2.75,2.75,0,0,1-.5,1.59,3.33,3.33,0,0,0-.26.54,2.46,2.46,0,0,0,.27.39,4.86,4.86,0,0,1,1.13,2.48L43,83A2.64,2.64,0,0,1,40.83,86l-3.74.53ZM32.18,66.06l.06.43c0,.26.41.64.69.91a1.84,1.84,0,0,1,.64.9,1.77,1.77,0,0,1-.21.89A4.06,4.06,0,0,0,33,71.46L34.8,84.12A2,2,0,0,0,37,85.72l3.74-.53a1.8,1.8,0,0,0,1.41-2.11L40.34,70.43a4.06,4.06,0,0,0-1-2.08,1.77,1.77,0,0,1-.44-.8,1.84,1.84,0,0,1,.36-1,2.41,2.41,0,0,0,.41-1.07L39.64,65l-7.33,1Z" transform="translate(-15.8 0.25)"/></g><g id="Fingers"><ellipse class="cls-8" cx="32.44" cy="72.43" rx="2.42" ry="1.55" transform="translate(-29 7.76) rotate(-10.98)"/><path class="cls-9" d="M32,74.43a3.31,3.31,0,0,1-1.21-.22,1.61,1.61,0,0,1-.55-2.84,3.62,3.62,0,0,1,1.8-.88c1.56-.3,2.95.31,3.16,1.39s-.85,2.17-2.41,2.47A4.12,4.12,0,0,1,32,74.43Zm.8-3.17a3.2,3.2,0,0,0-.61.06,2.82,2.82,0,0,0-1.38.66,1,1,0,0,0-.36.83h0a1,1,0,0,0,.65.63,2.82,2.82,0,0,0,1.53.1c1-.2,1.86-.9,1.75-1.49S33.64,71.26,32.83,71.26Z" transform="translate(-15.8 0.25)"/><ellipse class="cls-8" cx="32.36" cy="75.73" rx="2.69" ry="1.68" transform="translate(-29.64 7.8) rotate(-10.99)"/><path class="cls-9" d="M31.88,77.88c-1.32,0-2.38-.61-2.56-1.56h0c-.22-1.16.94-2.32,2.65-2.65a4,4,0,0,1,2.19.14,1.7,1.7,0,0,1,.59,3,4,4,0,0,1-2,1A4.67,4.67,0,0,1,31.88,77.88Zm1-3.46a3.77,3.77,0,0,0-.71.07c-1.19.23-2.12,1-2,1.67h0c.13.66,1.28,1,2.47.81a3.25,3.25,0,0,0,1.57-.74,1.1,1.1,0,0,0,.42-.93c-.08-.4-.5-.62-.74-.71A2.86,2.86,0,0,0,32.83,74.42Z" transform="translate(-15.8 0.25)"/><ellipse class="cls-8" cx="33.09" cy="79.06" rx="2.23" ry="1.53" transform="translate(-30.25 8) rotate(-10.98)"/><path class="cls-9" d="M32.78,81a3,3,0,0,1-1.19-.23,1.74,1.74,0,0,1-1.09-1.24h0A1.74,1.74,0,0,1,31,78a3.4,3.4,0,0,1,3.55-.69,1.74,1.74,0,0,1,1.09,1.24c.21,1.07-.77,2.13-2.22,2.42A3.61,3.61,0,0,1,32.78,81Zm.63-3.12a2.75,2.75,0,0,0-.52.05,2.41,2.41,0,0,0-1.24.62,1,1,0,0,0-.32.81h0a1,1,0,0,0,.6.63,2.41,2.41,0,0,0,1.38.11c1-.19,1.68-.84,1.56-1.44a1,1,0,0,0-.6-.63A2.18,2.18,0,0,0,33.41,77.91Z" transform="translate(-15.8 0.25)"/><g class="cls-6"><path class="cls-8" d="M33.2,70.8c.93.49-.62,2.59-.66,3.15,2,1.28.26,2.78.6,3.43-.63.59,2.54,1.27.45,3.13,2.64-.35,2-3,.14-3.1,1.66-1.41,1.69-2.66-.87-3.53C34.74,73.31,35.4,71.25,33.2,70.8Z" transform="translate(-15.8 0.25)"/></g><g class="cls-28"><ellipse class="cls-8" cx="31.04" cy="71.87" rx="0.96" ry="0.28" transform="translate(-56.39 40.54) rotate(-42.85)"/></g><g class="cls-28"><ellipse class="cls-8" cx="30.72" cy="75.23" rx="0.96" ry="0.28" transform="translate(-58.76 41.21) rotate(-42.84)"/></g><g class="cls-28"><ellipse class="cls-8" cx="31.64" cy="78.66" rx="0.96" ry="0.28" transform="translate(-60.85 42.77) rotate(-42.86)"/></g></g></g><rect class="cls-14" x="48.21" y="88.43" width="19.42" height="14.69" rx="1.15" ry="1.15"/><path class="cls-29" d="M82.28,103.29H65.16a1.57,1.57,0,0,1-1.57-1.57V89.34a1.57,1.57,0,0,1,1.57-1.57H82.28a1.57,1.57,0,0,1,1.57,1.57v12.38A1.57,1.57,0,0,1,82.28,103.29ZM65.16,88.6a.74.74,0,0,0-.74.74v12.38a.74.74,0,0,0,.74.74H82.28a.74.74,0,0,0,.74-.74V89.34a.74.74,0,0,0-.74-.74Z" transform="translate(-15.8 0.25)"/><rect class="cls-16" x="48.65" y="99.95" width="18.57" height="0.84"/><path class="cls-13" d="M66.63,98v-.79q1.72-1.32,1.72-2a.38.38,0,0,0-.13-.3.59.59,0,0,0-.39-.12,1.89,1.89,0,0,0-1.16.51v-1a2.57,2.57,0,0,1,1.27-.38,1.51,1.51,0,0,1,1.12.36,1.2,1.2,0,0,1,.36.88,1.77,1.77,0,0,1-.35,1,5.2,5.2,0,0,1-.82.93h1.19V98Z" transform="translate(-15.8 0.25)"/><path class="cls-13" d="M70.72,98V97.1h.88V98Z" transform="translate(-15.8 0.25)"/><path class="cls-13" d="M72.63,95.31a1.67,1.67,0,0,1,.08-.52,1.52,1.52,0,0,1,.25-.47,1.21,1.21,0,0,1,.47-.35,1.69,1.69,0,0,1,.69-.13q1.52,0,1.52,1.93a3.16,3.16,0,0,1-.15,1,1.89,1.89,0,0,1-.35.66,1.59,1.59,0,0,1-.49.37,1.91,1.91,0,0,1-.5.17,2.56,2.56,0,0,1-.43,0,1.93,1.93,0,0,1-.83-.15V97a2.56,2.56,0,0,0,.74.13,1.33,1.33,0,0,0,.63-.15.6.6,0,0,0,.33-.47,1.57,1.57,0,0,1-.57.08,2.47,2.47,0,0,1-.51,0,1.64,1.64,0,0,1-.44-.17.8.8,0,0,1-.34-.39A1.58,1.58,0,0,1,72.63,95.31Zm1.05,0a.74.74,0,0,0,.11.41.38.38,0,0,0,.35.18,1.21,1.21,0,0,0,.46-.07v-.08a1.69,1.69,0,0,0-.13-.73q-.14-.28-.34-.28a.36.36,0,0,0-.29.13.57.57,0,0,0-.13.25A1.13,1.13,0,0,0,73.68,95.31Z" transform="translate(-15.8 0.25)"/><path class="cls-13" d="M76.68,98V97.1h.88V98Z" transform="translate(-15.8 0.25)"/><path class="cls-13" d="M80.2,98q-1.65,0-1.65-2.09t1.65-2.09q1.65,0,1.65,2.09T80.2,98Zm-.6-2.09a1.83,1.83,0,0,0,.17.94.5.5,0,0,0,.43.25.51.51,0,0,0,.44-.25,1.82,1.82,0,0,0,.17-.94q0-1.2-.61-1.2T79.6,95.92Z" transform="translate(-15.8 0.25)"/><path class="cls-15" d="M64,92V89.34c0-.64.53-.34,1.16-.34H82.28c.64,0,.72-.3.72.34V92Z" transform="translate(-15.8 0.25)"/><path class="cls-16" d="M83.53,93H64c-.23,0,0-.48,0-.71v-3c0-.9.32-1.34,1.16-1.34H82.28c.88,0,1.72.48,1.72,1.34v3C84,92.52,83.76,93,83.53,93ZM65,92H83V89.34c0-.4-.31-.34-.72-.34H65.16c-.42,0-.16-.05-.16.34Z" transform="translate(-15.8 0.25)"/><g class="cls-30"><g id="color-2" data-name="color"><path class="cls-3" d="M67.42,88.61a.57.57,0,0,0-.58,0s-.51.4-.34.49a.64.64,0,0,1,.65,0,.59.59,0,0,1,.31.51c.15.28.29-.48.29-.48A.62.62,0,0,0,67.42,88.61Z" transform="translate(-15.8 0.25)"/><path class="cls-3" d="M66.86,88.57a.88.88,0,0,0-.16.49,19.35,19.35,0,0,0,.11,3.7.8.8,0,0,1-.39-.23s-.14.33-.2.5a9.77,9.77,0,0,1-.15-3.39h0a1.71,1.71,0,0,1,.08-.33A2.75,2.75,0,0,1,66.86,88.57Z" transform="translate(-15.8 0.25)"/><path class="cls-3" d="M64.14,91.22a19.32,19.32,0,0,0,3.26-1.75.88.88,0,0,0,.35-.38,2.8,2.8,0,0,1-.28,1l-.07.11-.14.12a10.29,10.29,0,0,1-3,1.53,4.23,4.23,0,0,0,.31-.42A.69.69,0,0,1,64.14,91.22Z" transform="translate(-15.8 0.25)"/></g></g><path class="cls-3" d="M67.91,90l-.08.12s0,0-.06,0,0,0,0-.07a.35.35,0,0,1,0-.12.3.3,0,0,1,.05-.09l.08-.07.1,0,.12,0h.28l.15,0,.13,0,.11.06.07.08a.16.16,0,0,1,0,.08.25.25,0,0,1,0,.1.26.26,0,0,1-.07.09l-.12.07-.18,0,.12,0,.08.06a.24.24,0,0,1,.05.09.33.33,0,0,1,0,.11.32.32,0,0,1,0,.09.34.34,0,0,1,0,.08l-.06.08-.08.06-.1,0h-.32l-.1,0-.09,0h0a0,0,0,0,1,0,0q0-.11,0-.23a2.37,2.37,0,0,1,0-.24,1.16,1.16,0,0,1,0-.2.72.72,0,0,1,.08-.17.16.16,0,0,1,.09,0,.1.1,0,0,1,.08.06l-.05.09,0,.09a.83.83,0,0,0,0,.1v.27s0,.05,0,.08,0,0,0,.07v.05h0l.09,0h.21l.1,0a.23.23,0,0,0,.07-.08.26.26,0,0,0,0-.12.14.14,0,0,0,0-.07l0,0-.05,0-.06,0-.06,0-.06,0,0,0a.08.08,0,0,1,0,0v0h.16l.12,0,.09,0,.06-.06a.16.16,0,0,0,0-.08.09.09,0,0,0,0-.05l0,0-.07,0-.08,0h-.32l-.12,0L68,90Z" transform="translate(-15.8 0.25)"/><path class="cls-3" d="M68.89,90.81s0,0,0-.07v-.17l0-.1,0-.09,0-.06v0h.1v.05s0,0,0,.07a.71.71,0,0,0,0,.08h0l0-.07,0-.07.05,0,.07,0h0v0a.07.07,0,0,1,0,0v.18a.14.14,0,0,0,0,0v0h.1l.06,0,.06,0v.16l0,0,0,0-.05,0h-.06l-.08,0,0-.05a.28.28,0,0,1,0-.08v-.08h0l-.12.34,0,0,0,0,0,0h-.07l0,0v0A.47.47,0,0,1,68.89,90.81Z" transform="translate(-15.8 0.25)"/><path class="cls-3" d="M69.7,90.95l-.11,0-.08-.06a.28.28,0,0,1,0-.09.37.37,0,0,1,0-.11.35.35,0,0,1,0-.09l0-.09,0-.08.05-.06.07,0,.08,0h.07l.06,0,0,.05a.17.17,0,0,1,0,.07.2.2,0,0,1,0,.09l-.06.09-.09.07-.11,0,0,0,0,0h0l.09,0,.09,0,.08-.05.06-.05.09.09-.13.11-.06,0-.07,0-.08,0Zm-.09-.32h.05l.05,0,0-.05a.1.1,0,0,0,0-.05.1.1,0,0,0,0,0l0,0H69.7l0,0,0,0,0,.05a.21.21,0,0,0,0,.05Z" transform="translate(-15.8 0.25)"/><path class="cls-3" d="M70.7,90.78l0,.05-.06.06-.07,0-.07,0a.11.11,0,0,1-.08,0,.23.23,0,0,1-.05-.08l0,0-.05,0-.06,0h-.13l-.05,0,0-.06a.22.22,0,0,1,0-.08.4.4,0,0,1,0-.1.64.64,0,0,1,0-.12l.06-.11.08-.08.09-.05.09,0h0v0h.11v0a.12.12,0,0,1,0,0,.45.45,0,0,1,0,.07l0,.08,0,.09a.46.46,0,0,0,0,.09.16.16,0,0,0,0,0l0,0h0l0,0,0,0,0,0,.07-.08Zm-.58-.05a.23.23,0,0,0,0,0v0l0,0h0l0,0,0-.05,0-.06v-.05l.05-.22h-.05l0,0,0,.05,0,.07,0,.08A.28.28,0,0,0,70.12,90.73Z" transform="translate(-15.8 0.25)"/><path class="cls-3" d="M70.63,90.69l.06-.05,0-.05,0,0,0,0,0-.06.07-.09,0,0,0,0,0,0h.09l0,0v0a.07.07,0,0,1,0,0l0,0,0,0,0,0a.22.22,0,0,0,0,0v.11a.24.24,0,0,1,0,.07s0,.06,0,.09l.05,0,.06,0,.06,0,.06,0v.15l-.1.06-.12,0-.12,0h-.19l-.06,0,0,0a.13.13,0,0,1,0-.06h-.08a.08.08,0,0,1,0,0,.06.06,0,0,1,0,0l0,0,0,0Zm.08.09h0l0,0,0,0h.08l0,0v0a.2.2,0,0,0,0,0,.3.3,0,0,0,0,0,.22.22,0,0,1,0,0,.12.12,0,0,0,0,0v0Z" transform="translate(-15.8 0.25)"/><path class="cls-3" d="M71.8,90.8l-.12.07-.09,0-.07,0h-.06a.14.14,0,0,1-.09,0,.24.24,0,0,1-.07-.09.57.57,0,0,1,0-.14,1.23,1.23,0,0,1,0-.19s0-.06,0-.09v-.09H71.1v-.07h.19a1.54,1.54,0,0,1,0-.18,1,1,0,0,1,.06-.15.43.43,0,0,1,.08-.11.12.12,0,0,1,.09,0l.05,0,0,0,0,.06a.32.32,0,0,1,0,.08.26.26,0,0,1,0,.07l0,.07,0,.08,0,.08h.2l0,0a.09.09,0,0,1,0,0,.06.06,0,0,1,0,0l0,0h-.26l0,.05,0,0v.22a.24.24,0,0,0,0,.06l0,0,0,0h.08l0,0,.05,0,.06,0,.05,0,0,0Zm-.22-.86v0h0s0,0,0,0l0,.08,0,.11,0,.11h0l0-.07,0-.08,0-.07A.18.18,0,0,0,71.58,89.94Z" transform="translate(-15.8 0.25)"/><path class="cls-3" d="M73.23,90.73l-.06,0-.06.05-.07.06-.07.06-.09.05-.1,0-.13,0h-.15a.37.37,0,0,1-.17,0,.39.39,0,0,1-.13-.1.45.45,0,0,1-.08-.14.53.53,0,0,1,0-.17.74.74,0,0,1,0-.14,1,1,0,0,1,0-.15l.06-.15.08-.14.1-.13.12-.1.13-.07.15,0,.1,0,.09.05a.27.27,0,0,1,.07.09.3.3,0,0,1,0,.13.34.34,0,0,1,0,.1.47.47,0,0,1,0,.1l-.07.09-.08.07-.09,0-.09,0-.09,0a.05.05,0,0,1,0,0h0v-.08h.09l.09,0,.08-.05a.28.28,0,0,0,.06-.08.24.24,0,0,0,0-.11.2.2,0,0,0,0-.06l0,0,0,0h-.07l-.1,0-.09.06-.08.09-.07.11-.06.12,0,.13a1,1,0,0,0,0,.12.66.66,0,0,0,0,.11.41.41,0,0,0,0,.13.25.25,0,0,0,0,.09l.08.05.1,0,.13,0,.12,0,.11-.07.11-.08.11-.07.12-.06Z" transform="translate(-15.8 0.25)"/><path class="cls-3" d="M73.85,90.78l0,.05-.06.06-.07,0-.07,0a.11.11,0,0,1-.08,0,.23.23,0,0,1-.05-.08l0,0-.05,0-.06,0H73.2l-.05,0,0-.06a.22.22,0,0,1,0-.08.4.4,0,0,1,0-.1.64.64,0,0,1,0-.12l.06-.11.08-.08.09-.05.09,0h0v0h.11v0a.12.12,0,0,1,0,0,.45.45,0,0,1,0,.07l0,.08,0,.09a.46.46,0,0,0,0,.09.16.16,0,0,0,0,0l0,0h0l0,0,0,0,0,0,.07-.08Zm-.58-.05a.23.23,0,0,0,0,0v0l0,0h0l0,0,0-.05,0-.06v-.05l.05-.22h-.05l0,0,0,.05,0,.07,0,.08A.28.28,0,0,0,73.27,90.73Z" transform="translate(-15.8 0.25)"/><path class="cls-3" d="M73.8,90.81s0-.06,0-.1v-.13s0-.09,0-.13l0-.1a.11.11,0,0,1,0-.05l.06,0a.06.06,0,0,1,.05,0,.11.11,0,0,1,0,.06v.22h0v0l0,0,0-.06,0,0,0,0v0l0-.05h.06a.06.06,0,0,1,.05,0,.14.14,0,0,1,0,.08v.26s0,0,0,.06a.19.19,0,0,0,0,.07s0,0,0,0h.05l0,0,0,0,.13-.08v.15l0,0-.06,0-.11.06-.07,0h-.07s0,0-.06-.05a.38.38,0,0,1,0-.16.8.8,0,0,1,0-.09v-.1h0L74,90.9l0,0h-.08l0,0v0A.47.47,0,0,1,73.8,90.81Z" transform="translate(-15.8 0.25)"/><path class="cls-3" d="M74.67,90.95l-.11,0-.08-.06a.28.28,0,0,1,0-.09.35.35,0,0,1,0-.11.41.41,0,0,1,0-.09l0-.1,0-.08.05-.07.07,0,.08,0h.08l.06,0,0,.05a.14.14,0,0,1,0,.06.16.16,0,0,1,0,0l0,.05,0,0h0l0,0a.06.06,0,0,1,0,0v-.05a.13.13,0,0,0,0,0,.1.1,0,0,0,0,0h-.06l0,0,0,.06,0,.07a.32.32,0,0,0,0,.05v0a.3.3,0,0,0,0,.05l0,0,0,0h.05l.07,0,.08-.05.08-.07.06-.07,0,.08-.11.13-.05,0-.06,0-.07,0Z" transform="translate(-15.8 0.25)"/><path class="cls-3" d="M75.2,90.95l-.11,0L75,90.86a.28.28,0,0,1,0-.09.37.37,0,0,1,0-.11.35.35,0,0,1,0-.09l0-.09,0-.08.05-.06.07,0,.08,0h.07l.06,0,0,.05a.17.17,0,0,1,0,.07.2.2,0,0,1,0,.09l-.06.09-.09.07-.11,0,0,0,0,0h0l.09,0,.09,0,.08-.05.06-.05.09.09-.13.11-.06,0-.07,0-.08,0Zm-.09-.32h.05l.05,0,0-.05a.1.1,0,0,0,0-.05.1.1,0,0,0,0,0l0,0H75.2l0,0,0,0,0,.05a.21.21,0,0,0,0,.05Z" transform="translate(-15.8 0.25)"/><path class="cls-3" d="M75.48,90.81s0,0,0-.07v-.17l0-.1,0-.09,0-.06v0h.1v.05s0,0,0,.07a.71.71,0,0,0,0,.08h0l0-.07,0-.07.05,0,.07,0h0v0a.07.07,0,0,1,0,0v.18a.14.14,0,0,0,0,0v0H76l.06,0,.06,0v.16l0,0,0,0-.05,0H76l-.08,0,0-.05a.28.28,0,0,1,0-.08v-.08h0l-.12.34,0,0,0,0,0,0h-.07l0,0v0A.47.47,0,0,1,75.48,90.81Z" transform="translate(-15.8 0.25)"/><path class="cls-3" d="M77.62,90.8l0,0,0,0-.06,0-.07,0-.07,0h-.11l0,0,0-.06a.31.31,0,0,1,0-.09.44.44,0,0,1,0-.05v-.06l-.09.15a.45.45,0,0,1-.1.11l-.11.06-.12,0-.12,0a.28.28,0,0,1-.1-.07.31.31,0,0,1-.07-.11.49.49,0,0,1,0-.18.67.67,0,0,1,0-.14.9.9,0,0,1,0-.15l.07-.15.09-.14.12-.12.13-.1.15-.06.16,0h.18l0,0,0,0a.37.37,0,0,1,0,.08.69.69,0,0,1,0,.09l0,.11,0,.11,0,.11,0,.1,0,.08v.06s0,0,0,.05v.06h.05l0,0,0,0,0,0,0,0,0,0Zm-.32-.88h-.1l-.11,0L77,90l-.1.09-.09.11-.07.12-.05.12a.79.79,0,0,0,0,.12.51.51,0,0,0,0,.11.3.3,0,0,0,0,.17.14.14,0,0,0,.12.05l.1,0,.08-.06L77,90.7l.06-.1,0-.09,0-.07Z" transform="translate(-15.8 0.25)"/><path class="cls-3" d="M77.83,90.61a1,1,0,0,1,0,.14l-.06.11-.06.07-.06,0s-.06,0-.08-.08a.83.83,0,0,1,0-.23v-.13s0-.08,0-.12,0-.05,0,0v0h0v0l0,0,0,0h.11a0,0,0,0,1,0,0l-.05.4h0l.06-.14,0-.12,0-.08,0-.06,0,0H78a0,0,0,0,1,0,0l-.06.4h0l.17-.39,0,0h.06l.06,0a0,0,0,0,1,0,0,.14.14,0,0,1,0,0v.07h0l0,.06,0,.05,0,0,0,0,0,0h.1l.06,0,.06,0v.16l-.09,0-.09,0h-.07l-.05,0,0,0a.18.18,0,0,1,0-.07l0,.1-.05.08-.05.05-.05,0h0v-.17s0,0,0-.08v-.08Z" transform="translate(-15.8 0.25)"/><path class="cls-3" d="M79.13,90.78l0,.05-.06.06-.07,0-.07,0a.11.11,0,0,1-.08,0,.23.23,0,0,1-.05-.08l0,0-.05,0-.06,0h-.13l-.05,0,0-.06a.22.22,0,0,1,0-.08.4.4,0,0,1,0-.1.64.64,0,0,1,0-.12l.06-.11.08-.08.09-.05.09,0h0v0h.11v0a.12.12,0,0,1,0,0,.45.45,0,0,1,0,.07l0,.08,0,.09a.46.46,0,0,0,0,.09.16.16,0,0,0,0,0l0,0h0l0,0,0,0,0,0,.07-.08Zm-.58-.05a.23.23,0,0,0,0,0v0l0,0h0l0,0,0-.05,0-.06v-.05l.05-.22h-.05l0,0,0,.05,0,.07,0,.08A.28.28,0,0,0,78.55,90.73Z" transform="translate(-15.8 0.25)"/><path class="cls-3" d="M79.08,90.81s0,0,0-.07v-.17l0-.1,0-.09,0-.06v0h.1v.05s0,0,0,.07a.71.71,0,0,0,0,.08h0l0-.07,0-.07.05,0,.07,0h0v0a.07.07,0,0,1,0,0v.18a.14.14,0,0,0,0,0v0h.1l.06,0,.06,0v.16l0,0,0,0-.05,0h-.06l-.08,0,0-.05a.28.28,0,0,1,0-.08v-.08h0l-.12.34,0,0,0,0,0,0h-.07l0,0v0A.47.47,0,0,1,79.08,90.81Z" transform="translate(-15.8 0.25)"/><path class="cls-3" d="M79.89,90.95l-.11,0-.08-.06a.28.28,0,0,1,0-.09.37.37,0,0,1,0-.11.35.35,0,0,1,0-.09l0-.09,0-.08.05-.06.07,0,.08,0H80l.06,0,0,.05a.17.17,0,0,1,0,.07.2.2,0,0,1,0,.09l-.06.09-.09.07-.11,0,0,0,0,0h0l.09,0,.09,0,.08-.05.06-.05.09.09-.13.11-.06,0-.07,0-.08,0Zm-.09-.32h.05l.05,0,0-.05a.1.1,0,0,0,0-.05.1.1,0,0,0,0,0l0,0h-.05l0,0,0,0,0,.05a.21.21,0,0,0,0,.05Z" transform="translate(-15.8 0.25)"/><path class="cls-3" d="M80.18,90.81s0-.06,0-.1v-.13s0-.09,0-.13l0-.1a.11.11,0,0,1,0-.05l.06,0a.06.06,0,0,1,.05,0,.11.11,0,0,1,0,.06v.22h0v0l0,0,0-.06,0,0,0,0v0l0-.05h.06a.06.06,0,0,1,.05,0,.14.14,0,0,1,0,.08v.26s0,0,0,.06a.19.19,0,0,0,0,.07s0,0,0,0h.05l0,0,0,0,.13-.08v.15l0,0-.06,0-.11.06-.07,0h-.07s0,0-.06-.05a.38.38,0,0,1,0-.16.8.8,0,0,1,0-.09v-.1h0l-.18.35,0,0h-.08l0,0v0A.47.47,0,0,1,80.18,90.81Z" transform="translate(-15.8 0.25)"/><path class="cls-3" d="M81.06,90.95l-.11,0-.08-.06a.28.28,0,0,1,0-.09.37.37,0,0,1,0-.11.35.35,0,0,1,0-.09l0-.09,0-.08.05-.06.07,0,.08,0h.07l.06,0,0,.05a.17.17,0,0,1,0,.07.2.2,0,0,1,0,.09l-.06.09-.09.07-.11,0,0,0,0,0h0l.09,0,.09,0,.08-.05.06-.05.09.09-.13.11-.06,0-.07,0-.08,0ZM81,90.62H81l.05,0,0-.05a.1.1,0,0,0,0-.05.1.1,0,0,0,0,0l0,0h-.05l0,0,0,0,0,.05a.21.21,0,0,0,0,.05Z" transform="translate(-15.8 0.25)"/><path class="cls-3" d="M81.33,90.69l.06-.05,0-.05,0,0,0,0,0-.06.07-.09,0,0,0,0,0,0h.09l0,0v0a.07.07,0,0,1,0,0l0,0,0,0,0,0a.22.22,0,0,0,0,0v.11a.24.24,0,0,1,0,.07s0,.06,0,.09l.05,0,.06,0,.06,0,.06,0v.15l-.1.06-.12,0-.12,0h-.19l-.06,0,0,0a.13.13,0,0,1,0-.06h-.08a.08.08,0,0,1,0,0,.06.06,0,0,1,0,0l0,0,0,0Zm.08.09h0l0,0,0,0h.08l0,0v0a.2.2,0,0,0,0,0,.3.3,0,0,0,0,0,.22.22,0,0,1,0,0,.12.12,0,0,0,0,0v0Z" transform="translate(-15.8 0.25)"/><path class="cls-3" d="M81.91,90.69l.06-.05,0-.05,0,0,0,0,0-.06.07-.09,0,0,0,0,0,0h.09l0,0v0a.07.07,0,0,1,0,0l0,0,0,0,0,0a.22.22,0,0,0,0,0v.11a.24.24,0,0,1,0,.07s0,.06,0,.09l.05,0,.06,0,.06,0,.06,0v.15l-.1.06-.12,0-.12,0h-.19l-.06,0,0,0a.13.13,0,0,1,0-.06h-.08a.08.08,0,0,1,0,0,.06.06,0,0,1,0,0l0,0,0,0Zm.08.09h0l0,0,0,0h.08l0,0v0a.2.2,0,0,0,0,0,.3.3,0,0,0,0,0,.22.22,0,0,1,0,0,.12.12,0,0,0,0,0v0Z" transform="translate(-15.8 0.25)"/><g id="pink_ribbon-2" data-name="pink ribbon"><g id="drop_shadow" data-name="drop shadow" class="cls-31"><path class="cls-27" d="M36.88,75.08a8.28,8.28,0,0,0,.38-.85l0,0-.38.85Z" transform="translate(-15.8 0.25)"/><path class="cls-27" d="M37.26,75.58l0,0a6.6,6.6,0,0,0,.37-.84l0,0C37.51,75,37.39,75.34,37.26,75.58Z" transform="translate(-15.8 0.25)"/><path class="cls-27" d="M36.48,74.31l.28-.75a1,1,0,0,1-.23-.6A2.93,2.93,0,0,0,36.38,74,1.43,1.43,0,0,0,36.48,74.31Z" transform="translate(-15.8 0.25)"/><path class="cls-27" d="M38.63,76.91a11.32,11.32,0,0,1-2.14-2.77,3,3,0,0,1-.11-.33.27.27,0,0,0,0,0,2.3,2.3,0,0,0,.09.32,11.1,11.1,0,0,0,2.19,2.78Z" transform="translate(-15.8 0.25)"/></g><g id="color-3" data-name="color"><path class="cls-27" d="M37,72.61a.58.58,0,0,1,.55.22s.31.59.11.6a.66.66,0,0,0-.6-.29.61.61,0,0,0-.51.35c-.26.2-.07-.57-.07-.57A.64.64,0,0,1,37,72.61Z" transform="translate(-15.8 0.25)"/><path class="cls-27" d="M37.57,72.82a.9.9,0,0,1-.06.53,19.86,19.86,0,0,1-1.66,3.42.82.82,0,0,0,.47-.05,2.57,2.57,0,0,1,0,.55A7.51,7.51,0,0,0,38,74.16h0c0-.17,0-.3,0-.34A3.11,3.11,0,0,0,37.57,72.82Z" transform="translate(-15.8 0.25)"/><path class="cls-27" d="M39,76.45a19.83,19.83,0,0,1-2.32-3,.9.9,0,0,1-.17-.5A2.88,2.88,0,0,0,36.35,74s0,.13,0,.13l.08.17A10.56,10.56,0,0,0,38.65,77a4.35,4.35,0,0,1-.11-.53A.7.7,0,0,0,39,76.45Z" transform="translate(-15.8 0.25)"/></g></g><g class="cls-6"><path class="cls-12" d="M92.34,74.23c0,.51.2,2,.7,2.4a3.65,3.65,0,0,0,.42,4,3.53,3.53,0,0,0,1,3.6c0,.19-.12,2,1.37,2.56a2.82,2.82,0,0,0,1.09,2.91,47,47,0,0,0,1.35,5c.19.19,3.81-2.36,4.08-2.92,1.07-2.18-2.37-7.29-2.37-7.29l-1.11-3.11,1.21-3.06.28-3.62-4-2.27Z" transform="translate(-15.8 0.25)"/></g><path class="cls-32" d="M96.76,71.62c.12,1.05,2.73,1.24,3.51.77.42-.26.52-2.78-.24-3.2C99.05,68.65,96.66,70.78,96.76,71.62Z" transform="translate(-15.8 0.25)"/><path class="cls-33" d="M99,73a4.4,4.4,0,0,1-1.83-.36,1.31,1.31,0,0,1-.83-1h0c-.09-.81,1.06-1.91,1.8-2.41a2.11,2.11,0,0,1,2.09-.44c.65.35.77,1.42.78,2,0,.37,0,1.59-.52,1.91A3,3,0,0,1,99,73Zm-1.83-1.47c0,.17.24.3.37.36A3.6,3.6,0,0,0,100,72a3.86,3.86,0,0,0,.07-1.93c-.08-.38-.21-.53-.26-.56s-.6,0-1.19.38a3.44,3.44,0,0,0-1.47,1.64Zm2.84.49Z" transform="translate(-15.8 0.25)"/><path class="cls-32" d="M94,68.83c.36.42,4.39,3.8,4.45,3.93.35.7-1.18,1.22-2.58.84-.51-.14-5-1.67-3.9-4.77C92.15,68.48,93.66,68.38,94,68.83Z" transform="translate(-15.8 0.25)"/><path class="cls-33" d="M96.89,74.15A4.1,4.1,0,0,1,95.81,74s-3-.88-4-2.85a3,3,0,0,1-.14-2.46c.1-.27.38-.45.84-.53a2.22,2.22,0,0,1,1.89.4h0c.18.21,1.6,1.43,2.64,2.33,1.8,1.55,1.81,1.57,1.87,1.69a.83.83,0,0,1-.11.93A2.5,2.5,0,0,1,96.89,74.15ZM92.39,69a2.13,2.13,0,0,0,.12,1.73C93.36,72.4,96,73.19,96,73.2A2.45,2.45,0,0,0,98.12,73c-.22-.21-1-.86-1.66-1.45-1.52-1.31-2.53-2.18-2.73-2.42h0A1.83,1.83,0,0,0,92.39,69Z" transform="translate(-15.8 0.25)"/><path class="cls-32" d="M100.38,72.35a3.32,3.32,0,0,0-3.13,1.74s-.18,1.39,0,1.5c.77.56,2.92,1.11,3.2.77C101.21,75.35,100.72,72.39,100.38,72.35Z" transform="translate(-15.8 0.25)"/><path class="cls-33" d="M100,76.88a4.71,4.71,0,0,1-1.1-.16A6.22,6.22,0,0,1,97,75.92c-.17-.12-.34-.25-.13-1.89a.42.42,0,0,1,0-.14,3.71,3.71,0,0,1,3.56-2h0c.33,0,.46.38.51.51.3.76.61,3.16-.21,4.17C100.67,76.7,100.53,76.88,100,76.88Zm-2.42-1.55a5.89,5.89,0,0,0,2.55.71,5.06,5.06,0,0,0,0-3.29,2.88,2.88,0,0,0-2.52,1.48A9.11,9.11,0,0,0,97.57,75.32Zm2.59.7Z" transform="translate(-15.8 0.25)"/><path class="cls-32" d="M94.29,72.83c-2.58,4.07,2.05,5.08,2.23,5.19s1.93-1.69,1.71-1.91c-.38-.38-1-1.6-1.57-2.3A11.28,11.28,0,0,0,94.29,72.83Z" transform="translate(-15.8 0.25)"/><path class="cls-33" d="M96.49,78.43a.38.38,0,0,1-.16,0l-.1,0a4.27,4.27,0,0,1-3-2.35,3.87,3.87,0,0,1,.68-3.41.42.42,0,0,1,.48-.18A7,7,0,0,1,97,73.56c.24.32.49.72.74,1.12a8.9,8.9,0,0,0,.79,1.14c.36.36-.05.89-.25,1.15C97.89,77.43,97,78.43,96.49,78.43Zm.23-.43h0Zm-2.26-4.67a2.89,2.89,0,0,0-.43,2.4,3.52,3.52,0,0,0,2.46,1.84h0a7.64,7.64,0,0,0,1.27-1.35,12.9,12.9,0,0,1-.74-1.1c-.24-.37-.48-.76-.69-1A10.62,10.62,0,0,0,94.47,73.33Zm1.87.75Z" transform="translate(-15.8 0.25)"/><path class="cls-32" d="M100.41,76.35a2.56,2.56,0,0,1-1.95,3.1c-.14.1-1.6-1.08-1.53-1.36s1.18-1.64,1.29-2S100.36,76.07,100.41,76.35Z" transform="translate(-15.8 0.25)"/><path class="cls-33" d="M98.44,79.87a1.07,1.07,0,0,1-.55-.23c-.16-.1-1.52-1-1.37-1.66a4.28,4.28,0,0,1,.67-1.07,8.71,8.71,0,0,0,.62-.93c.13-.44.68-.47,1.15-.44s1.74.13,1.85.73a2.86,2.86,0,0,1-2.08,3.51l-.07,0A.44.44,0,0,1,98.44,79.87Zm.27.17h0Zm-1.33-1.93a5.35,5.35,0,0,0,1,.9h0A2,2,0,0,0,100,76.57a4.17,4.17,0,0,0-1.47-.19,9,9,0,0,1-.68,1C97.72,77.62,97.5,77.93,97.39,78.11ZM100,76.43h0Z" transform="translate(-15.8 0.25)"/><path class="cls-32" d="M93.8,77c-.9,3.58,2,4.14,2.82,4.21s1.5-1.29,1.57-1.64-1.43-1.22-1.5-1.39S93.9,76.63,93.8,77Z" transform="translate(-15.8 0.25)"/><path class="cls-33" d="M96.68,81.68h-.1a4,4,0,0,1-2.81-1.45,3.85,3.85,0,0,1-.38-3.28h0a.53.53,0,0,1,.5-.39,6.93,6.93,0,0,1,3.18,1.52A.29.29,0,0,0,97,78s.25.2.39.3c.79.58,1.27,1,1.18,1.41S97.72,81.68,96.68,81.68Zm-2.54-4.26a2.9,2.9,0,0,0,.31,2.32,3.12,3.12,0,0,0,2.2,1.1c.41,0,1-.83,1.09-1.21a6.45,6.45,0,0,0-.82-.67,2.61,2.61,0,0,1-.57-.48A10.7,10.7,0,0,0,94.14,77.42Zm2.24,1.08Z" transform="translate(-15.8 0.25)"/><path class="cls-32" d="M99.85,78.86a12.27,12.27,0,0,0-3,2.58c-.15.2.63,1.77,1,1.77a7.15,7.15,0,0,0,2.23-1.81C100.69,80.42,100.1,78.75,99.85,78.86Z" transform="translate(-15.8 0.25)"/><path class="cls-33" d="M97.87,83.62c-.39,0-.79-.4-1.18-1.18s-.28-1.15-.2-1.26a12.58,12.58,0,0,1,3.2-2.71h0a.52.52,0,0,1,.6.17,3.08,3.08,0,0,1,.16,3C100.29,81.89,98.56,83.62,97.87,83.62ZM98,82.8Zm-.71-1.22a3.45,3.45,0,0,0,.66,1.18,9,9,0,0,0,1.84-1.59,2.34,2.34,0,0,0,0-1.8A13.71,13.71,0,0,0,97.24,81.58ZM100,79.24ZM99.85,79h0Z" transform="translate(-15.8 0.25)"/><path class="cls-32" d="M94.43,80.63c-.31,3.2,1.81,3.34,2.37,3.69S98,84,98,83.62a14.14,14.14,0,0,0-1.29-2.16C96.62,81.26,94.48,80.07,94.43,80.63Z" transform="translate(-15.8 0.25)"/><path class="cls-33" d="M97.12,84.83a1,1,0,0,1-.55-.16,2.4,2.4,0,0,0-.32-.14c-.82-.31-2.53-1-2.24-3.95h0a.58.58,0,0,1,.54-.52,4.14,4.14,0,0,1,2.54,1.26l.34.5c.69,1,1,1.47,1,1.79a1.34,1.34,0,0,1-.71,1.06A1.15,1.15,0,0,1,97.12,84.83Zm-2.3-3.91c-.12,2.13,1,2.55,1.73,2.83A2.75,2.75,0,0,1,97,84a.22.22,0,0,0,.24,0,.63.63,0,0,0,.3-.33,9.4,9.4,0,0,0-.82-1.33,6.77,6.77,0,0,1-.4-.62A5.72,5.72,0,0,0,94.82,80.93Zm2.74,2.73Zm-2.72-3h0Z" transform="translate(-15.8 0.25)"/><path class="cls-32" d="M98.85,82.65c-.28.17-1.36,1.39-1.32,1.74s1.18,1.43,1.71,1.22a2.57,2.57,0,0,0,.45-3.38C99.58,82.08,99,82.54,98.85,82.65Z" transform="translate(-15.8 0.25)"/><path class="cls-33" d="M99.08,86.05a1.56,1.56,0,0,1-.79-.26c-.45-.27-1.14-.89-1.18-1.36-.06-.65,1.27-2,1.52-2.14l.14-.1c.39-.27.66-.45.94-.4a.48.48,0,0,1,.31.2,3,3,0,0,1,.36,2.61,2.2,2.2,0,0,1-1,1.39A.81.81,0,0,1,99.08,86.05ZM98,84.36c.16.3.89.89,1.13.86a1.77,1.77,0,0,0,.52-.92,2.23,2.23,0,0,0-.12-1.58l-.23.16-.19.13A5.51,5.51,0,0,0,98,84.36Zm0,0Zm0-.09" transform="translate(-15.8 0.25)"/><path class="cls-32" d="M95.68,84.21c0,1.91,2.44,3.06,2.58,3.2s1.18-.21.9-1a20,20,0,0,0-1.64-2.05C97.38,84.11,95.68,83.76,95.68,84.21Z" transform="translate(-15.8 0.25)"/><path class="cls-33" d="M98.36,87.86a.56.56,0,0,1-.38-.13l-.13-.08c-.64-.39-2.59-1.56-2.59-3.44a.62.62,0,0,1,.54-.6c.5-.12,1.85.09,2.1.59,0,.07.29.35.49.56a6.22,6.22,0,0,1,1.17,1.53,1.09,1.09,0,0,1-.49,1.34A1.43,1.43,0,0,1,98.36,87.86Zm-2.26-3.45c.14,1.3,1.66,2.21,2.17,2.53l.14.08a.63.63,0,0,0,.33-.21.22.22,0,0,0,0-.22,7.38,7.38,0,0,0-1-1.26,6.16,6.16,0,0,1-.58-.69A2.76,2.76,0,0,0,96.11,84.41Z" transform="translate(-15.8 0.25)"/><path class="cls-32" d="M100.1,85.05c1.46,1.5-.07,3.55-.21,3.62s-1.39-.52-1.22-.9A12.34,12.34,0,0,0,99,85.71S99.89,84.84,100.1,85.05Z" transform="translate(-15.8 0.25)"/><path class="cls-33" d="M99.87,89.09a2.62,2.62,0,0,1-1.33-.65.71.71,0,0,1-.24-.84,11.15,11.15,0,0,0,.28-1.92.42.42,0,0,1,.13-.27c1.08-1,1.49-.87,1.7-.65a2.57,2.57,0,0,1,.7,2.31,3.46,3.46,0,0,1-1,2A.47.47,0,0,1,99.87,89.09Zm-.77-1.27a2.3,2.3,0,0,0,.63.39c.28-.42,1-1.7.2-2.72a4.05,4.05,0,0,0-.54.42A11.87,11.87,0,0,1,99.1,87.82Zm.7-2.48h0Z" transform="translate(-15.8 0.25)"/><path class="cls-32" d="M96.86,86.93a2.83,2.83,0,0,0,1.53,2.61c.7.52.87-.59.87-1s-.17-.56-.59-.8S96.87,86.65,96.86,86.93Z" transform="translate(-15.8 0.25)"/><path class="cls-33" d="M98.73,90.09a1,1,0,0,1-.58-.22L98,89.8a3.14,3.14,0,0,1-1.59-2.89h0a.47.47,0,0,1,.25-.39c.31-.16.66,0,2,.76l.21.13a1.28,1.28,0,0,1,.8,1.16s0,1.14-.63,1.45A.73.73,0,0,1,98.73,90.09Zm0-.09h0ZM97.3,87.46a2.51,2.51,0,0,0,1.23,1.67l.11.08.05,0a1.6,1.6,0,0,0,.15-.68c0-.15,0-.22-.38-.44L98.24,88C98.06,87.89,97.63,87.63,97.3,87.46Zm0-.51h0Z" transform="translate(-15.8 0.25)"/><path class="cls-32" d="M98,90c-.1.94-.8,1.08-1,1.88.17.17.21-.21.56-.14a4.44,4.44,0,0,1,.87,2.47,2.66,2.66,0,0,0,2.19-1.95,1.09,1.09,0,0,1,.52.8c.52-1,.94-3-.66-3.86A5.2,5.2,0,0,0,98,90Z" transform="translate(-15.8 0.25)"/><path class="cls-33" d="M98.36,94.66a.42.42,0,0,1-.39-.57,6.66,6.66,0,0,0-.6-1.85.52.52,0,0,1-.73,0,.42.42,0,0,1-.1-.42,2.47,2.47,0,0,1,.59-1,1.39,1.39,0,0,0,.44-.85.74.74,0,0,1,.48-.53c.23-.12,2.11-.85,2.58-.59,1.65.94,1.59,2.95.83,4.42a.42.42,0,0,1-.78-.13,3.26,3.26,0,0,1-2.25,1.5Zm-.3-.71h0Zm0,0h0Zm-.34-2.53c.19.11.51.45.87,1.66.08.26.13.46.16.63a2.19,2.19,0,0,0,1.38-1.48.42.42,0,0,1,.66-.27l.2.16a2.08,2.08,0,0,0-.72-2.48,7.69,7.69,0,0,0-1.91.59,2.26,2.26,0,0,1-.62,1.16Z" transform="translate(-15.8 0.25)"/><g class="cls-6"><path class="cls-34" d="M98.75,90.39c1.25.46,1.81-.09,1.86,0s.19,1.16.19,1.16-.88,0-.88.09-.56,2.18-1.11,2.37,1.86-1.9,2-1.53,0,1.18.28.57,1.25-2.66-.42-3.72C100.29,89.14,99.08,90.43,98.75,90.39Z" transform="translate(-15.8 0.25)"/></g><g class="cls-6"><polygon class="cls-34" points="80.73 74.47 81.47 76.15 80.75 77.31 78.47 76.81 78.41 77.64 81.33 79.78 80.82 80.57 78.78 80.66 80.87 81.87 81.19 83.54 79.99 84.05 81.56 84.74 82.44 86.51 81.05 86.6 82.58 87.99 82.72 88.83 82.03 89.2 84.09 88.92 85.02 87.44 84.2 87.62 84.2 86.28 84.23 85.35 83.08 85.07 82.9 83.95 84.18 81.91 82.45 82.33 82.27 81.17 84.17 78.67 82.68 78.71 82.17 77.78 82.68 76.3 84.63 76.39 84.77 73.54 83.88 76.25 82.63 76.25 81.98 75.11 84.77 70.83 80.96 71.99 78.83 73.58 80.73 74.47"/></g><g class="cls-28"><path class="cls-34" d="M94.88,81.33c0,.24.24,1.71,1.15,2a4.83,4.83,0,0,1-.43-1.77C95.56,81.33,94.84,81,94.88,81.33Z" transform="translate(-15.8 0.25)"/></g><g class="cls-28"><path class="cls-34" d="M94.15,77.81c.05.38.07,2.12,1,2.26a7.59,7.59,0,0,1-.43-2C94.76,77.92,94.11,77.57,94.15,77.81Z" transform="translate(-15.8 0.25)"/></g><g class="cls-28"><path class="cls-34" d="M96.2,84.63c.1.21.73,1.6,1.5,1.6-.34-.21-.73-1.42-.8-1.55S96.2,84.63,96.2,84.63Z" transform="translate(-15.8 0.25)"/></g><g class="cls-28"><path class="cls-34" d="M94.22,74.78a1.62,1.62,0,0,0,.8,1.77c-.53-.79,0-2,0-2.13S94.27,74.62,94.22,74.78Z" transform="translate(-15.8 0.25)"/></g><g class="cls-28"><path class="cls-34" d="M99.12,76.61c.1-.1.6-.14.7.09s-.14,1.39-.42,1.44S98.89,76.84,99.12,76.61Z" transform="translate(-15.8 0.25)"/></g><g class="cls-28"><path class="cls-34" d="M99.59,79.62s-.46.32-.46.46.23,1.11.23,1.11.42.19.42-.32A2.83,2.83,0,0,0,99.59,79.62Z" transform="translate(-15.8 0.25)"/></g><g class="cls-28"><path class="cls-34" d="M99.31,83.1c-.14,0-.32.42-.32.6s.14,1.44.28,1.07S99.73,83.15,99.31,83.1Z" transform="translate(-15.8 0.25)"/></g><g class="cls-28"><path class="cls-34" d="M99.87,72.85c-.28,0-1,0-1.16.42s.46,1.86.79,1.62a5.07,5.07,0,0,0,.79-1.44S100.24,72.8,99.87,72.85Z" transform="translate(-15.8 0.25)"/></g><g class="cls-28"><path class="cls-34" d="M99.87,85.75a2.44,2.44,0,0,1-.09,1.39c0,.14.32.14.42,0S100.38,85.93,99.87,85.75Z" transform="translate(-15.8 0.25)"/></g><g class="cls-28"><path class="cls-34" d="M98.43,90.34l-.49,1s.8,1.84.8,2-.52-1.95-.52-1.95Z" transform="translate(-15.8 0.25)"/></g><path class="cls-15" d="M97.84,89.16a3,3,0,0,0,2.33-.24c.15-.05,0,.63-.14.66a3.33,3.33,0,0,1-1.77.14C97.66,89.47,97.65,89.13,97.84,89.16Z" transform="translate(-15.8 0.25)"/><path class="cls-16" d="M98.78,90.22a1.8,1.8,0,0,1-.68-.12c-.69-.28-.84-.71-.76-1a.5.5,0,0,1,.56-.36h0c1.24.18,1.5.06,1.82-.09l.3-.13a.45.45,0,0,1,.46.08c.17.15.21.39.12.75s-.24.57-.47.63l-.05,0A4.89,4.89,0,0,1,98.78,90.22Z" transform="translate(-15.8 0.25)"/><path class="cls-35" d="M88.21,25.36c7.73.82,13.75-6.16,18.14-4-3.48,1.31-4.77,6.83-10.36,12.33C94.68,35,86.11,25.13,88.21,25.36Z" transform="translate(-15.8 0.25)"/><path class="cls-36" d="M93.9,31.39c5.22.9,10-12.5,12.6-10.11,7.38,6.77-3.83,20.49-11.37,18.59C90.92,38.81,92.86,31.21,93.9,31.39Z" transform="translate(-15.8 0.25)"/><path class="cls-37" d="M105.94,21c1.25,8.49-5.15,11.41-9.11,17.69C95.39,38.24,93.09,30,94.21,30,99.12,29.65,104.83,20.45,105.94,21Z" transform="translate(-15.8 0.25)"/><path class="cls-35" d="M42.31,22.12c3.89-2.76,9.93-.7,14.72,1.78,2.73,1.41,6.55,1,6.73,1.67.43,1.46-3.63,3.79-6.68,3.33S49.72,22.09,42.31,22.12Z" transform="translate(-15.8 0.25)"/><path class="cls-36" d="M57.67,28.15c-3,.86-11.79-11.06-17-4.78-3.41,4.13,4,14.34,9.95,16.11S59.27,27.7,57.67,28.15Z" transform="translate(-15.8 0.25)"/><path class="cls-38" d="M40.81,23.65c3.37-1.5,9,0,11.89,3.73,1,1.31.86,5.29-2.16,7.64-1.2.93,6.78-3,7-4.36a1.94,1.94,0,0,0-1.27-2.41c-3.83-2-7.63-6-11.32-6.4A4.42,4.42,0,0,0,40.81,23.65Z" transform="translate(-15.8 0.25)"/><path class="cls-39" d="M41.44,24.41c5,2,7.48,8.43,10.47,9.53s3.62-4,4.24-5.76c-5.64-3.31-8-6.67-12.39-6.35C42.29,21.94,40,23.85,41.44,24.41Z" transform="translate(-15.8 0.25)"/><path class="cls-4" d="M76.71,16.7c24.78.55,22.92,17.68,22.92,22.18,0,7.08,4.92,18.56,4.92,21.81,0,13-20.6,17.08-30.25,17.08-17.17,0-34.24-7.24-34.24-18.65,0-2.6,8.63-14.94,10.12-26.08C50.9,27.57,58,16.28,76.71,16.7Z" transform="translate(-15.8 0.25)"/><path class="cls-5" d="M74.3,78.2c-8.68,0-17.34-1.86-23.76-5.09-7-3.55-10.93-8.53-10.93-14,0-1,1.06-3.13,2.67-6.28C44.88,47.73,48.79,40,49.73,33c.37-2.81,2.32-7.08,6.67-10.65,3.52-2.89,9.91-6.29,20.32-6.06,10.14.23,17.08,3.25,20.63,9,2.9,4.68,2.79,9.93,2.73,12.76,0,.33,0,.63,0,.88,0,4.15,1.74,9.92,3.14,14.55,1,3.29,1.78,5.88,1.78,7.26C105,73.92,84.31,78.2,74.3,78.2Zm1.39-61.08c-18.71,0-24.52,11.76-25.08,16-1,7.2-4.92,15-7.54,20.14-1.38,2.71-2.57,5.05-2.57,5.88,0,5.12,3.71,9.82,10.44,13.22,6.3,3.18,14.81,5,23.36,5a52.67,52.67,0,0,0,18.58-3.63c5.13-2.13,11.24-6.12,11.24-13,0-1.25-.81-3.92-1.74-7C101,49,99.2,43.16,99.2,38.88c0-.26,0-.56,0-.9.11-5.56.41-20.33-22.51-20.84Z" transform="translate(-15.8 0.25)"/><path class="cls-14" d="M73.37,51.78c9.74,0,19.65,15.77,29.37,1.11a32.7,32.7,0,0,1,1.81,7.8c0,13-20.6,17.08-30.25,17.08-17.17,0-34.24-7.24-34.24-18.65a9.27,9.27,0,0,1,1.07-3C48.59,67.19,61.68,51.78,73.37,51.78Z" transform="translate(-15.8 0.25)"/><path class="cls-40" d="M73.37,51.78a12.16,12.16,0,0,1,4,.74A28.78,28.78,0,0,1,81,54.16c1.2.62,2.38,1.28,3.57,1.91s2.4,1.25,3.64,1.76a15.47,15.47,0,0,0,3.86,1.1,8.58,8.58,0,0,0,3.94-.36,9.94,9.94,0,0,0,3.39-2.05,17.93,17.93,0,0,0,2.62-3l.18.13c0-.34.07-.67.1-1a.32.32,0,0,1,.53-.2l.34.32h0a55.56,55.56,0,0,1,1.53,5.58c.1.48.18,1,.24,1.45,0,.25.05.5.06.76,0,.07,0,.12,0,.2v.54a11.64,11.64,0,0,1-1.76,5.66,14.14,14.14,0,0,1-1.83,2.34,20.65,20.65,0,0,1-4.66,3.54,34,34,0,0,1-5.29,2.41,48.29,48.29,0,0,1-5.56,1.62,57.38,57.38,0,0,1-5.69,1,49.08,49.08,0,0,1-5.78.4,61.61,61.61,0,0,1-11.5-1A49,49,0,0,1,51.9,73.82,31.72,31.72,0,0,1,46.83,71,20.56,20.56,0,0,1,42.51,67a13.23,13.23,0,0,1-2.64-5.28,12.23,12.23,0,0,1-.24-1.48c0-.25,0-.5,0-.75v-.37a1.85,1.85,0,0,1,0-.21v-.13l0-.11a7.73,7.73,0,0,1,.48-1.46c.19-.45.39-.89.6-1.33h0l.67-.22a.14.14,0,0,1,.17.09.14.14,0,0,1,0,.07A1.32,1.32,0,0,0,41.78,57a10.78,10.78,0,0,0,.74.82,8,8,0,0,0,1.74,1.34,7.46,7.46,0,0,0,2.05.78,8.93,8.93,0,0,0,2.19.17,15.68,15.68,0,0,0,4.3-.89,42.23,42.23,0,0,0,4.08-1.66c2.67-1.23,5.27-2.59,8-3.71A32.86,32.86,0,0,1,69,52.4,17.08,17.08,0,0,1,73.37,51.78Zm0,0A17.08,17.08,0,0,0,69,52.4a32.86,32.86,0,0,0-4.16,1.44c-2.71,1.13-5.32,2.49-8,3.71a42.23,42.23,0,0,1-4.08,1.66,15.68,15.68,0,0,1-4.3.89,8.93,8.93,0,0,1-2.19-.17,7.46,7.46,0,0,1-2.05-.78,8,8,0,0,1-1.74-1.34c-.26-.26-.5-.53-.74-.82a1.69,1.69,0,0,0-.42-.37,1.6,1.6,0,0,0-.64-.24l.84-.06h0c-.2.43-.4.86-.58,1.28a6.93,6.93,0,0,0-.42,1.26V59a1.12,1.12,0,0,0,0,.14v.34c0,.23,0,.46,0,.68a11.26,11.26,0,0,0,.22,1.35,12.26,12.26,0,0,0,2.45,4.89,19.6,19.6,0,0,0,4.12,3.76,30.75,30.75,0,0,0,4.92,2.76,48,48,0,0,0,10.83,3.32,60.64,60.64,0,0,0,11.31,1,48.12,48.12,0,0,0,5.66-.39,56.41,56.41,0,0,0,5.6-1,47.32,47.32,0,0,0,5.45-1.59A33,33,0,0,0,96.29,72a19.69,19.69,0,0,0,4.44-3.37,13.17,13.17,0,0,0,1.7-2.17,10.67,10.67,0,0,0,1.62-5.17v-.54s0-.1,0-.15c0-.22,0-.44-.05-.67-.05-.45-.14-.91-.23-1.37a54.67,54.67,0,0,0-1.5-5.48h0l.87.12-.91.46.18.13a18.32,18.32,0,0,1-2.73,3,10.26,10.26,0,0,1-3.54,2,8.51,8.51,0,0,1-2,.38,9.58,9.58,0,0,1-2-.09A15.65,15.65,0,0,1,88.2,58c-1.24-.54-2.44-1.17-3.63-1.82S82.21,54.83,81,54.21a28.75,28.75,0,0,0-3.69-1.66A12.15,12.15,0,0,0,73.37,51.78Z" transform="translate(-15.8 0.25)"/><ellipse class="cls-41" cx="57.87" cy="55.01" rx="2.58" ry="1.09"/><path class="cls-8" d="M73.8,56c-.3,0-.31-.17-.31-.56s0-1-.7-1.11a1.46,1.46,0,0,0-.23,0,1.25,1.25,0,0,0-.9.41l-.14.11a.46.46,0,0,1-.37-.41,2.1,2.1,0,0,1,.72-1.81,3.92,3.92,0,0,1,1.54-.19,6,6,0,0,1,2.24.29,2.7,2.7,0,0,1,.64,1.72A.78.78,0,0,1,76,55l0-.07a1,1,0,0,0-.85-.54l-.22,0c-.67.14-.81.79-.9,1.15s-.12.47-.21.47Z" transform="translate(-15.8 0.25)"/><path class="cls-9" d="M73.42,52.68h0a7,7,0,0,1,2.06.23A2.46,2.46,0,0,1,76,54.38a.76.76,0,0,1,0,.1,1.17,1.17,0,0,0-.88-.4l-.28,0a1.4,1.4,0,0,0-1.09,1.15A1.11,1.11,0,0,0,72.83,54l-.27,0a1.51,1.51,0,0,0-1.08.49.34.34,0,0,1,0-.13,1.82,1.82,0,0,1,.6-1.52,4.06,4.06,0,0,1,1.4-.15m0-.56a4.06,4.06,0,0,0-1.7.24c-.83.55-1.34,2.53-.23,2.72h0c.27,0,.45-.54,1-.54a.92.92,0,0,1,.18,0c1,.18-.1,1.48,1,1.48h0c.71,0,.22-1.18,1.16-1.38a.74.74,0,0,1,.16,0c.54,0,.64.65.88.65a.18.18,0,0,0,.1,0c1-.69.13-2.36-.26-2.75a5.56,5.56,0,0,0-2.43-.37Z" transform="translate(-15.8 0.25)"/><path class="cls-42" d="M66.06,62.22c.52,1.25,3.6,5.93,4.11,6.13s7.68-.5,8.07-1,1-3.2,2.09-6.54C78.89,61.19,68.38,62.75,66.06,62.22Z" transform="translate(-15.8 0.25)"/><g class="cls-24"><path class="cls-43" d="M79.5,61.51c-.36,1.12-.65,2.14-.9,3a20.61,20.61,0,0,1-.77,2.41,36.59,36.59,0,0,1-7.23.9h-.21A38.58,38.58,0,0,1,67,62.88h.48a87,87,0,0,0,12-1.37m.83-.76A82.53,82.53,0,0,1,67.5,62.33a7,7,0,0,1-1.44-.11c.52,1.25,3.6,5.93,4.11,6.13a1.66,1.66,0,0,0,.43,0c1.66,0,7.3-.59,7.65-1.08s1-3.2,2.09-6.54Z" transform="translate(-15.8 0.25)"/></g><path class="cls-44" d="M73.37,63.94l.16.65c.1.39.23.9.37,1.42l.39,1.41.13.47,0,.19-.74.12,0-.17-.07-.47-.23-1.45c-.08-.53-.16-1.06-.21-1.46L73.09,64Z" transform="translate(-15.8 0.25)"/><path class="cls-45" d="M59.8,61.25C64,63.33,81.17,62.5,86.11,59" transform="translate(-15.8 0.25)"/><polygon class="cls-46" points="81.1 23.63 83.74 25.65 88.69 21.47 83.47 28.36 81.31 26.63 80.06 24.05 81.1 23.63"/><polygon class="cls-46" points="31.75 22.31 36 23.98 39.34 22.87 40.66 23.35 37.18 26.28 31.75 22.31"/><path class="cls-41" d="M44.69,68.69c32.09,17.75,57.77-1.88,58-6.54.1-2.2-1.46-12.88-1.46-12.88s3.23,11.28,3.2,11.9C103.72,78.37,64.95,84.21,44.69,68.69Z" transform="translate(-15.8 0.25)"/><path class="cls-15" d="M61.1,16.65c28.82-9.19,37.45,8.42,37,11.69-2.09-3.69-13.22-17.89-38.7-8.7C57.82,20.2,60.15,17,61.1,16.65Z" transform="translate(-15.8 0.25)"/><path class="cls-47" d="M82,15.12a1.22,1.22,0,0,0,1-.47c.16-.21-2.16-.47-2.11-.35A1.22,1.22,0,0,0,82,15.12Z" transform="translate(-15.8 0.25)"/><path class="cls-3" d="M68.17,14.84a1.91,1.91,0,0,0,3.54-.54Q70,14.49,68.17,14.84Z" transform="translate(-15.8 0.25)"/><path class="cls-16" d="M98.06,28.76a.42.42,0,0,1-.36-.21,23.28,23.28,0,0,0-10.39-9C79.59,16,70.23,16.17,59.5,20a.87.87,0,0,1-.86-.06.67.67,0,0,1-.19-.69,5.92,5.92,0,0,1,2.52-3h0c17.24-5.5,26.94-1.47,32,2.87,4,3.37,5.71,7.55,5.45,9.28a.42.42,0,0,1-.34.35ZM75.15,16.17a29.61,29.61,0,0,1,12.5,2.62,25.17,25.17,0,0,1,9.71,7.75,16,16,0,0,0-4.88-6.78c-4.94-4.21-14.38-8.09-31.25-2.71h0a5.76,5.76,0,0,0-1.87,2.15A47.1,47.1,0,0,1,75.15,16.17ZM59.27,20h0Z" transform="translate(-15.8 0.25)"/><path class="cls-15" d="M60.5,17.35c-1.6-5.17-10.17-1.9-10.9-4.57-4.14,3.26,4.19,11.92,9.6,8.81C61,20.57,61.07,19.19,60.5,17.35Z" transform="translate(-15.8 0.25)"/><path class="cls-3" d="M57.74,19.94a1.09,1.09,0,1,0-.1.83A1.08,1.08,0,0,0,57.74,19.94Z" transform="translate(-15.8 0.25)"/><path class="cls-3" d="M48.57,14.39c-.25-.14.27,1.74.41,1.49a1.09,1.09,0,0,0-.41-1.49Z" transform="translate(-15.8 0.25)"/><path class="cls-3" d="M52.07,16.73a1.09,1.09,0,0,0,.29,2.14,1.09,1.09,0,0,0,.29,0h0a1.09,1.09,0,0,0-.58-2.1Z" transform="translate(-15.8 0.25)"/><circle class="cls-48" cx="56.69" cy="20.24" r="0.7" transform="translate(-19.14 16.09) rotate(-15.46)"/><circle class="cls-48" cx="59.14" cy="15.91" r="0.7" transform="translate(-17.9 16.59) rotate(-15.46)"/><path class="cls-16" d="M56.68,22.65a9.71,9.71,0,0,1-7.46-4.34c-1.57-2.32-1.52-4.57.12-5.86a.42.42,0,0,1,.66.22c.23.83,1.78.9,3.57,1,2.81.13,6.31.29,7.33,3.58h0c.5,1.62.72,3.45-1.49,4.72A5.41,5.41,0,0,1,56.68,22.65Zm-7.2-9.19c-1.32,1.52,0,3.71.43,4.38,1.76,2.6,5.89,5.22,9.08,3.38,1.4-.81,1.7-1.82,1.11-3.75-.84-2.72-3.88-2.87-6.57-3C51.75,14.4,50.17,14.33,49.49,13.46Z" transform="translate(-15.8 0.25)"/><path class="cls-15" d="M60.27,17C58,11.64,67.33,8.45,66.1,5.75c5.64-.16,4.73,12.68-1.85,13.83C62.1,20,61.06,18.89,60.27,17Z" transform="translate(-15.8 0.25)"/><path class="cls-3" d="M61.59,12.68a1.08,1.08,0,0,0,.29,0h0a1.09,1.09,0,0,0,.76-1.34C62.48,10.72,61.11,12.68,61.59,12.68Z" transform="translate(-15.8 0.25)"/><path class="cls-3" d="M65.62,13a1.09,1.09,0,1,0,.58,2.1h0a1.09,1.09,0,0,0-.58-2.1Z" transform="translate(-15.8 0.25)"/><path class="cls-3" d="M67.82,10.66a1.09,1.09,0,0,0,.54.14,1.09,1.09,0,1,0-.29-2.14,1.09,1.09,0,0,0-.25,2Z" transform="translate(-15.8 0.25)"/><path class="cls-16" d="M63.44,20.07c-2,0-2.94-1.45-3.55-2.92-1.41-3.38,1.35-5.9,3.56-7.93,1.43-1.31,2.66-2.44,2.27-3.29a.42.42,0,0,1,.37-.59c2.22-.05,3.79,1.74,4.09,4.71.43,4.23-1.83,9.24-5.86,9.95A5.08,5.08,0,0,1,63.44,20.07ZM66.63,6.2c.06,1.18-1.2,2.33-2.62,3.63-2.13,1.95-4.54,4.16-3.36,7,.84,2,1.79,2.64,3.51,2.34,3.9-.68,5.51-5.69,5.18-9C69.26,9.25,68.81,6.52,66.63,6.2Z" transform="translate(-15.8 0.25)"/><circle class="cls-15" cx="61.17" cy="18.67" r="2.49" transform="translate(-18.56 17.23) rotate(-15.46)"/><path class="cls-3" d="M63.24,17.3h-.07a1.09,1.09,0,0,0,.29,2.14h.07a2.48,2.48,0,0,0-.29-2.15Z" transform="translate(-15.8 0.25)"/><path class="cls-16" d="M61.16,21.58a2.91,2.91,0,1,1,.78-.11A2.93,2.93,0,0,1,61.16,21.58Zm0-5a2.08,2.08,0,0,0-1.81,1.05,2.07,2.07,0,1,0,1.81-1.05Z" transform="translate(-15.8 0.25)"/><g class="cls-10"><path class="cls-7" d="M66.4,54c3.48-2.25,5-9.26,7.42-9.2,2.68.06,1.67,6.62,9.59,9.72,11.72,4.58,18.53-6.77,17.71-8.65s-19.92-4.88-23.6-5S53,41.78,48.58,44.58c-1,.65-2.82,1.28-2.41,2.9C49,58.95,63.53,55.84,66.4,54Z" transform="translate(-15.8 0.25)"/></g><path class="cls-13" d="M71.93,44.64a2,2,0,0,1,3-.52c1.5,2,2,4.57,5.12,7.94,3.57,3.82,14.39,3.2,18.3-1.8,2.4-3.08,4.51-8.55,4.92-9.3s-.42-3.07-1.76-3.37-11-1.65-25.71,3.68a9.05,9.05,0,0,1-4.38.07c-1.06-.19-10.19-6.06-26.08-2.72-1.59.33-2.1,2.88-1.63,3.44.75.87,2.94,6.46,5.28,9.1,5.37,6.08,16.11,3.79,18.32,1.08A30.46,30.46,0,0,0,71.93,44.64Z" transform="translate(-15.8 0.25)"/><g class="cls-24"><path class="cls-49" d="M96.72,38a24.51,24.51,0,0,1,4.65.35,1.57,1.57,0,0,1,.83.81,2.38,2.38,0,0,1,.37,1.37c-.11.2-.27.58-.52,1.14a42,42,0,0,1-4.32,8c-1.87,2.4-5.84,4-10.11,4-3,0-5.63-.82-6.92-2.2a20.61,20.61,0,0,1-3.55-5.28,16.33,16.33,0,0,0-1.52-2.6,2.3,2.3,0,0,0-1.86-.84,3,3,0,0,0-2.56,1.45,12.3,12.3,0,0,0-.58,1.2,25,25,0,0,1-3.92,6.3c-1,1.18-4.33,2.46-8.06,2.46-2.18,0-6.24-.46-9-3.57a33.18,33.18,0,0,1-3.86-6.53,17.24,17.24,0,0,0-1.37-2.51,2.48,2.48,0,0,1,.33-1.43,1.31,1.31,0,0,1,.79-.7,45.6,45.6,0,0,1,9.35-1,35.11,35.11,0,0,1,15.28,3.29,5.66,5.66,0,0,0,1.13.44,14.15,14.15,0,0,0,2.5.26A6.82,6.82,0,0,0,76.13,42a60.94,60.94,0,0,1,20.58-4m0-.84a61.92,61.92,0,0,0-20.87,4.06,6,6,0,0,1-2,.31,13.36,13.36,0,0,1-2.35-.24,38,38,0,0,0-16.56-3.74,46.2,46.2,0,0,0-9.53,1c-1.59.33-2.1,2.88-1.63,3.44.75.87,2.94,6.46,5.28,9.1A12.56,12.56,0,0,0,58.65,55c3.92,0,7.53-1.33,8.71-2.77a30.46,30.46,0,0,0,4.57-7.6,2.14,2.14,0,0,1,1.84-1,1.48,1.48,0,0,1,1.2.51c1.5,2,2,4.57,5.12,7.94,1.54,1.65,4.43,2.47,7.53,2.47,4.09,0,8.55-1.43,10.77-4.27,2.4-3.08,4.51-8.55,4.92-9.3s-.42-3.07-1.76-3.37a24.77,24.77,0,0,0-4.84-.38Z" transform="translate(-15.8 0.25)"/></g><g class="cls-10"><path class="cls-13" d="M59.07,53.06c-3.29,0-6.34-1-7.52-2.21h0c-2.56-2.53-3.62-4.88-3.14-7a4.85,4.85,0,0,1,2.75-3.24c6.19-2.16,13.35-1.29,16.66,2a3.73,3.73,0,0,1,.72,3.18c-.28,2-1.54,4.68-3.43,5.75A12.24,12.24,0,0,1,59.07,53.06Zm-.84-12.48a20.62,20.62,0,0,0-6.71,1.13,3.75,3.75,0,0,0-2,2.43c-.38,1.66.61,3.7,2.84,5.92h0c1.39,1.38,7.77,3.11,12.22.58a7.16,7.16,0,0,0,2.88-4.94,2.76,2.76,0,0,0-.4-2.25C65.15,41.58,61.85,40.57,58.23,40.57Z" transform="translate(-15.8 0.25)"/></g><path class="cls-3" d="M51.95,50.45c1.64,1.62,8.27,3.29,12.88.67,2.57-1.46,4.15-6.5,2.59-8.06-3-3-9.81-4.06-16.08-1.88C50.59,41.44,45.81,44.37,51.95,50.45Z" transform="translate(-15.8 0.25)"/><g class="cls-10"><path class="cls-13" d="M87.7,53.08A12.09,12.09,0,0,1,82,51.75c-1.91-1-3.23-3.64-3.55-5.68a3.73,3.73,0,0,1,.65-3.2c3.23-3.37,10.38-4.38,16.61-2.36a4.85,4.85,0,0,1,2.81,3.18c.51,2.07-.49,4.43-3,7l-.4-.39.4.39C94.3,51.94,91.11,53.08,87.7,53.08ZM89,40.58c-3.78,0-7.23,1.08-9.14,3.07a2.76,2.76,0,0,0-.36,2.25,7.16,7.16,0,0,0,3,4.88c4.49,2.43,10.84.57,12.2-.83,2.19-2.26,3.13-4.33,2.72-6a3.75,3.75,0,0,0-2.08-2.39A20.64,20.64,0,0,0,89,40.58Z" transform="translate(-15.8 0.25)"/></g><path class="cls-3" d="M95.09,50.33c-1.6,1.65-8.2,3.46-12.87.94-2.6-1.41-4.28-6.42-2.76-8,3-3.1,9.73-4.26,16-2.21C96.26,41.29,101.1,44.12,95.09,50.33Z" transform="translate(-15.8 0.25)"/><ellipse class="cls-50" cx="58.6" cy="46.24" rx="2.79" ry="1.34" transform="matrix(0.08, -1, 1, 0.08, -7.76, 101.4)"/><ellipse class="cls-50" cx="88.2" cy="46.13" rx="1.34" ry="2.79" transform="translate(-22.31 15.77) rotate(-9.7)"/><g class="cls-51"><path class="cls-13" d="M47.89,42.44c3.22-4.72,9.48-2.84,10.76-2.66-8.29,1.15-8.4,1.78-9.76,3.35-.14,1.14-1.15,3.37,3.18,7.83C47.39,48.29,47.11,43.58,47.89,42.44Z" transform="translate(-15.8 0.25)"/></g><g class="cls-51"><path class="cls-13" d="M98.91,41.15c-2.72-3.07-12.24-2.22-14.29-.88,7-1.34,11.73.21,13.31,2.87,1.14,3.25-1,5.29-2.68,7.45C100.36,48.45,99.82,42.18,98.91,41.15Z" transform="translate(-15.8 0.25)"/></g><g class="cls-24"><path class="cls-52" d="M49.61,47.59c.07-3.43.19-6.18,6.9-6.83,5.38-.52,9.67,1.75,10.39,3,.45.79.63,3.74-1.85,7.24,2.8-1.3,3.89-6.69,2.89-7.72-4.59-4.72-13.6-3.5-16.75-2.13a6.21,6.21,0,0,0-2.07,1.73A4.94,4.94,0,0,0,49.61,47.59Z" transform="translate(-15.8 0.25)"/></g><g class="cls-24"><path class="cls-52" d="M97.4,48c-.09-3.43-.17-6.66-6.89-7.26-5.38-.48-10.28,2.07-11,3.32-.45.79-.14,3.57,2.37,7.05-2.51-1.46-4-6.18-3.13-7.28C83.33,38.36,92.86,39.66,96,41a12.67,12.67,0,0,1,2.36,2.68C98.85,45.25,97.7,47.53,97.4,48Z" transform="translate(-15.8 0.25)"/></g><g class="cls-53"><circle class="cls-3" cx="59.21" cy="44.43" r="0.39" transform="translate(-18.57 4.21) rotate(-3.75)"/></g><g class="cls-53"><circle class="cls-3" cx="88.53" cy="44.07" r="0.39" transform="translate(-18.49 6.13) rotate(-3.75)"/></g><path class="cls-54" d="M92.31,28.77" transform="translate(-15.8 0.25)"/><path class="cls-55" d="M100.78,39.29a2.51,2.51,0,0,1-1.28,1.13c-.17.05-.34.57.17.95a1.43,1.43,0,0,0,1.55.12c-.25-.07-.53-.34-.34-.41s.45-.26.32-.6c-.3.11-.87.16-.71,0S101.2,39.74,100.78,39.29Z" transform="translate(-15.8 0.25)"/><path class="cls-55" d="M46,40a2.51,2.51,0,0,0,1.19,1.23c.17.06.3.59-.24.93a1.43,1.43,0,0,1-1.56,0c.26,0,.55-.3.37-.38s-.43-.3-.28-.63c.29.13.86.23.7.06S45.6,40.4,46,40Z" transform="translate(-15.8 0.25)"/><g class="cls-51"><path class="cls-13" d="M72,43.43c-1.67-.07-4.52,7-6.59,8.26-1,.58-8.51,2-14.76-1.11,5.48,5,15.13,2.13,16,1.3S72.14,46.12,72,43.43Z" transform="translate(-15.8 0.25)"/></g><g class="cls-51"><path class="cls-13" d="M102.6,41.76c-.84,3.2-5.36,9.12-6.54,10.23-.47.44-4.59,3.69-13.57,2,6.19,2.85,13.37-.48,14.34-1.32C101.07,49,103.51,41.69,102.6,41.76Z" transform="translate(-15.8 0.25)"/></g><path class="cls-32" d="M96.29,31.46c.19,1.39,2.23,3.8,5.94,4.27-2.51-1.58-3.34-7.52-4.27-8.54" transform="translate(-15.8 0.25)"/><path class="cls-33" d="M102.23,36.14h-.05c-3.94-.49-6.09-3.05-6.3-4.63a.42.42,0,0,1,.83-.11c.13,1,1.48,2.84,4.19,3.63a17.93,17.93,0,0,1-2.3-5.19,9.74,9.74,0,0,0-.94-2.37.42.42,0,1,1,.62-.56,8.77,8.77,0,0,1,1.12,2.67c.66,2,1.58,4.86,3.07,5.8a.42.42,0,0,1-.22.77Z" transform="translate(-15.8 0.25)"/><path class="cls-32" d="M99.08,29.88c-8.21-2.92-30.37,11-48.61,11.84.93-.19,12.11-2.92,15.66-8.41.12-.4-17.37,6.39-17.35,5.94,2-.63,9.14-3.27,10.74-5.29-5.57,2.37-10.64,3.7-10.61,3.42A26.64,26.64,0,0,1,55,23.8C64.18,14.38,93.32,11.22,99.08,29.88Z" transform="translate(-15.8 0.25)"/><path class="cls-33" d="M50.47,42c-.21,0-.39-.09-.41-.3a.38.38,0,0,1,.33-.43c.11,0,10.48-2.35,14.69-7.28-1.47.49-4.22,1.5-6.71,2.42-9.45,3.45-9.53,3.4-9.83,3.18a.44.44,0,0,1-.18-.36.42.42,0,0,1,.29-.39,52.45,52.45,0,0,0,7.79-3.22c-1.75.65-3.18,1.11-4,1.38-3.34,1-3.58.84-3.73.73a.46.46,0,0,1-.17-.4,27.2,27.2,0,0,1,6.2-13.83c2.81-2.88,7.58-5.28,13.09-6.58a37.08,37.08,0,0,1,16.84-.18C90,18,96.88,21.34,99.48,29.76a.42.42,0,0,1-.54.52c-4-1.42-11.58,1.28-20.38,4.49S59.63,41,50.49,42Zm15.68-9.12a.33.33,0,0,1,.27.11.44.44,0,0,1,.12.44.41.41,0,0,1,0,.11c-2.32,3.59-7.75,6-11.62,7.33,7.78-1.14,16-4.13,23.41-6.83C86.7,31,94,28.3,98.43,29.26c-2.65-7.5-9-10.51-14-11.7-10-2.41-23.34.58-29.14,6.53A26.3,26.3,0,0,0,49.39,37a62.28,62.28,0,0,0,10-3.38.42.42,0,0,1,.49.64,7,7,0,0,1-1.7,1.39C64.22,33.4,65.67,32.88,66.15,32.88Z" transform="translate(-15.8 0.25)"/><path class="cls-32" d="M82.65,31.18c-1,2.51-7.61,4.32-13.83,8.54,15.31-6.68,30.72-3.62,29.33-12" transform="translate(-15.8 0.25)"/><path class="cls-33" d="M68.82,40.13a.42.42,0,0,1-.23-.76A65.75,65.75,0,0,1,76.35,35c3-1.51,5.39-2.7,5.92-4a.42.42,0,0,1,.77.32c-.64,1.58-3,2.77-6.32,4.42-1.18.59-2.43,1.22-3.72,1.92a93.27,93.27,0,0,1,13.23-3.09c8.07-1.44,12.24-2.4,11.51-6.77a.42.42,0,1,1,.82-.14c.9,5.39-4.59,6.37-12.19,7.73-5,.9-11.25,2-17.38,4.69A.42.42,0,0,1,68.82,40.13Z" transform="translate(-15.8 0.25)"/><g class="cls-6"><path class="cls-32" d="M93.28,21.43C100.56,32.57,76.85,34.38,69.4,39.6c10-5.36,29-3.83,28.84-11.25C98.21,27.09,96.39,23.66,93.28,21.43Z" transform="translate(-15.8 0.25)"/></g><path class="cls-32" d="M62.51,31.66c-3.2,3.43-13.83,7.77-17.91,9.54,6.11-1.77,17.8-4.44,21.88-8.25" transform="translate(-15.8 0.25)"/><path class="cls-33" d="M44.6,41.62a.42.42,0,0,1-.17-.8l1.23-.53c4.44-1.9,13.69-5.85,16.55-8.91a.42.42,0,1,1,.61.57C60.59,34.34,55,37.09,50.3,39.19c5.94-1.65,13-3.81,15.9-6.54a.42.42,0,0,1,.57.61c-3.49,3.25-12.26,5.65-18.66,7.4-1.23.34-2.39.65-3.39.94Z" transform="translate(-15.8 0.25)"/><path class="cls-32" d="M50.49,31.46c-.6,1-2.18,5.85-3.43,6.54,1,.28,11.72-3.43,12.62-4.13" transform="translate(-15.8 0.25)"/><path class="cls-33" d="M47.15,38.42l-.2,0a.42.42,0,0,1-.09-.77c.73-.4,1.79-3,2.42-4.5a16.31,16.31,0,0,1,.86-1.9.42.42,0,1,1,.71.45,17.37,17.37,0,0,0-.79,1.78,25.58,25.58,0,0,1-1.9,4c1-.24,2.83-.77,5.22-1.57a46.19,46.19,0,0,0,6.06-2.33.42.42,0,0,1,.51.66C59.17,34.79,49.06,38.42,47.15,38.42Z" transform="translate(-15.8 0.25)"/><g class="cls-6"><path class="cls-32" d="M78.73,31.25c-3.27,3.13-19.07,9.47-25.47,10.09C68,39.67,82.14,33.27,82.65,31.18,82.82,30.48,79.32,30.69,78.73,31.25Z" transform="translate(-15.8 0.25)"/></g><g class="cls-6"><path class="cls-32" d="M57.85,32.5A27.3,27.3,0,0,1,47.48,38c6.68-1.39,13.15-4,15.24-6.4C63.08,31.19,59.59,30.9,57.85,32.5Z" transform="translate(-15.8 0.25)"/></g><g class="cls-10"><path class="cls-32" d="M45.11,41.06C55.27,38.76,65.85,33,66.2,32.43,65.51,34.24,62.16,36.68,45.11,41.06Z" transform="translate(-15.8 0.25)"/></g><g class="cls-10"><path class="cls-32" d="M98.64,28.67c.14,2.51-1.6,4.25,1.32,6.47-1.11-.21-3.2-2.3-3.2-2.92S98.43,28.25,98.64,28.67Z" transform="translate(-15.8 0.25)"/></g><g class="cls-28"><path class="cls-34" d="M59.24,39.11c7.31-2.37,8.28-6.13,8.42-6.4A18.65,18.65,0,0,1,59.24,39.11Z" transform="translate(-15.8 0.25)"/></g><g class="cls-28"><path class="cls-34" d="M62.79,32.36c-1.53,1.95-8.42,5.15-10,5.92C54.86,37.65,62.93,34,62.79,32.36Z" transform="translate(-15.8 0.25)"/></g><g class="cls-28"><path class="cls-34" d="M83.25,31.59c-.84,2-6.06,3.9-6.75,4.59C77.62,35.28,83.39,33.89,83.25,31.59Z" transform="translate(-15.8 0.25)"/></g><g class="cls-28"><path class="cls-34" d="M78.94,17.26C58.48,16,52.07,28.11,50.68,32.71,52.21,30.34,57.92,17.26,78.94,17.26Z" transform="translate(-15.8 0.25)"/></g><circle class="cls-50" cx="30.52" cy="73.62" r="1.1"/><circle class="cls-3" cx="30.52" cy="73.62" r="0.92"/><path class="cls-50" d="M46.62,73.5l-.12-.1a.37.37,0,0,0,.23-.11.31.31,0,0,0,.08-.21.33.33,0,0,0-.05-.18.26.26,0,0,0-.13-.11.84.84,0,0,0-.27,0h-.49v1.15h.23v-.48h.16l.07,0,.12.17.17.25h.28l-.14-.22A1.3,1.3,0,0,0,46.62,73.5Z" transform="translate(-15.8 0.25)"/><path class="cls-3" d="M46.26,73.25h-.17V73h.35a.14.14,0,0,1,.09,0,.14.14,0,0,1,0,.09.15.15,0,0,1,0,.09.13.13,0,0,1-.07,0Z" transform="translate(-15.8 0.25)"/><path class="cls-3" d="M53.79,122.92a2,2,0,0,1-.77-.15,2.72,2.72,0,0,1-.82-.52,6.34,6.34,0,0,1-2.82.65l-.52,0a4.86,4.86,0,0,1-3.18-1.46A22.44,22.44,0,0,1,41,122.8l-.13,0a5.54,5.54,0,0,1-.6,0,5.84,5.84,0,0,1-2.65-.65l-.56.29,0,0a4.28,4.28,0,0,1-1.66.37A2.59,2.59,0,0,1,33.2,122a2.24,2.24,0,0,1-1.64,1h0s-.06-.1-.09-.1a2.81,2.81,0,0,1-2.11-.94,2.25,2.25,0,0,1-1.88.94,3.14,3.14,0,0,1-.59-.07,2.34,2.34,0,0,1-1.18-.59,8.64,8.64,0,0,1-3,.61,4,4,0,0,1-2.46-.75,5,5,0,0,1-1.57-2,8.42,8.42,0,0,1-1.37-.37,2,2,0,0,1-1.21-1.3,2.67,2.67,0,0,1,.55-2.2,1.85,1.85,0,0,1,1.5-.77,1.91,1.91,0,0,1,.49.07,7.88,7.88,0,0,1,.36-1,4.84,4.84,0,0,1,4.2-3.16h.12a3.8,3.8,0,0,1,2.81,1.08,2.3,2.3,0,0,1,2.12-1.14h.27a2,2,0,0,1,1.62.76,3.25,3.25,0,0,1,1.93-.66h.14a1.92,1.92,0,0,1,1.32.61,2.8,2.8,0,0,1,1.73-.67,2.17,2.17,0,0,1,.63.09,2.73,2.73,0,0,1,.87.42l.06-.59A14.36,14.36,0,0,1,39,105.19a5,5,0,0,1,2.3-1.69l.05,0a3.16,3.16,0,0,1,1-.19c.67,0,2.3.28,2.9,2.82a8.77,8.77,0,0,1-1.2,6,4.26,4.26,0,0,1,1.55,1.77,7.12,7.12,0,0,1,1.95-2l.05,0a4.6,4.6,0,0,1,2.45-.7,3.15,3.15,0,0,1,2.64,1.29,2.31,2.31,0,0,1,2.09-1.07,2.11,2.11,0,0,1,1.45.5,2.82,2.82,0,0,1,1.47-.47,2.15,2.15,0,0,1,.6.08c.91.26,1.4,1.09,1.45,2.47a9.21,9.21,0,0,1,0,1.19v.05c0,.09,0,.19,0,.29a2.46,2.46,0,0,0,.32-.2,1.48,1.48,0,0,1,.34-.2,2.27,2.27,0,0,1,.83-.16,2,2,0,0,1,1.95,1.84,2.55,2.55,0,0,1-1,2.41,6.69,6.69,0,0,1-3.5,1.34h0a3.58,3.58,0,0,1-1-.2,2.87,2.87,0,0,1-1-.57l-.2.53C56.16,121.11,55.42,122.92,53.79,122.92Z" transform="translate(-15.8 0.25)"/><path class="cls-56" d="M61.66,116.89a.51.51,0,0,0-.74-.46,3.51,3.51,0,0,1-2,.74c-.94-.09-.65-2.19-.65-2.19s.2-1.93-.35-2.09-1.24.5-1.24.5a6.93,6.93,0,0,0-1.26,2.14l-.11,0a15,15,0,0,0,0-2.58c-.11-.24-1.13-.22-1.3.2a25.64,25.64,0,0,0-1,4.61,7.77,7.77,0,0,1-3,1.57c-1.39.22-1.72-.65-1.72-.65s3.78-1.05,3.65-4.05-3-1.89-3.38-1.65a5.85,5.85,0,0,0-2.52,4.1c0,.1,0,.52,0,.52a13.08,13.08,0,0,1-2.28,1.23s2.28-3.82-.5-5.55c-1.26-.76-2.26.83-2.26.83s3.76-4.17,2.93-7.69c-.4-1.68-1.24-1.86-2-1.59A3.5,3.5,0,0,0,40.19,106a12.83,12.83,0,0,0-1.87,5.46c-.35,3.26-.87,7.21-.87,7.21a2.76,2.76,0,0,1-1.39.74c-.67,0-.37-2-.37-2s.52-3.06.48-3.58-.07-.79-.69-1-1.28.59-1.28.59-1.76,2.65-1.91,3.06l-.09.17-.09-.11s1.24-3.61.06-3.67-2,1.29-2,1.29-1.35,2.25-1.41,2.51l-.09-.11a18,18,0,0,0,.44-3.26.6.6,0,0,0-.72-.52s-.78-.09-1,.41a36.3,36.3,0,0,0-1,4.85,7.94,7.94,0,0,1-3.22,1.4c-1.28,0-1.15-.81-1.15-.81s4.69-1.6,3.41-4.75a2.33,2.33,0,0,0-2.19-1,3.32,3.32,0,0,0-2.86,2.29,7.27,7.27,0,0,0-.55,2.16h0a1.81,1.81,0,0,1-1.28-.2c-.44-.37-.68,0-.68,0s-.77,1.1,0,1.39a17.13,17.13,0,0,0,1.94.56h0a6.19,6.19,0,0,0,1.35,2c1.39,1.05,4.06-.16,4.06-.16l1.09-.64s0,1,.83,1.13,1.13,0,2.52-3.37c.82-1.71.87-1.63.87-1.63l.09,0a17.74,17.74,0,0,0-.39,4.16c.24.88,1.3.79,1.3.79s.57.41,1-1.21A14.85,14.85,0,0,1,33.93,117H34s-.39,3.05.2,4.12,2.13.21,2.13.21a13.7,13.7,0,0,0,1.24-.78,4.46,4.46,0,0,0,3.07.85c4-.79,5.45-1.87,5.45-1.87A3.32,3.32,0,0,0,49,121.41a4.71,4.71,0,0,0,3.78-1.35,1.48,1.48,0,0,0,.83,1.34c.85.35,1.43-1.56,1.43-1.56L56.44,116h.13s.07,2.48,1.48,2.89,3.24-1,3.24-1A1,1,0,0,0,61.66,116.89Zm-39.85.36c.06-2.19,1.5-3.15,2-2.67s.31,1.51-.63,2.16S21.81,117.26,21.81,117.26Zm18.8-8.5s1.32-3.41,1.63-1.75-2.76,6.6-2.76,6.6A37.42,37.42,0,0,1,40.61,108.76Zm1.57,9.49a2.18,2.18,0,0,1-3,1.35,6.32,6.32,0,0,1,.44-3.08c.69-2.27,2.3-1.38,2.3-1.38S43.06,116,42.19,118.25Zm5.84-1a3.11,3.11,0,0,1,.56-2.1c.76-1.38,1.35-.63,1.35-.63a1.36,1.36,0,0,1-.09,1.75A2.19,2.19,0,0,1,48,117.26Z" transform="translate(-15.8 0.25)"/></g><g id="Dieline_NO_PRINT" data-name="Dieline NO PRINT"><path class="cls-56" d="M66.18,0c4.62,0,8.17,3.27,9.13,8.27h1c10.05,0,16.52,3.7,20.17,6.81a25,25,0,0,1,2.05,2,15.48,15.48,0,0,1,6-1.42,10.11,10.11,0,0,1,1.1.06h.59a6.28,6.28,0,0,1,3.93,1.67,12.67,12.67,0,0,1,4.14,9.87,18.86,18.86,0,0,1-4.53,11.07,11.25,11.25,0,0,1,.06,1.27,7.34,7.34,0,0,1-.79,3.51,6.4,6.4,0,0,1-1.27,1.64,20.72,20.72,0,0,1-.81,2.35c.27,1,.55,1.95.82,2.86a5.31,5.31,0,0,1,.56,1.21A60.83,60.83,0,0,1,110,57.24c.1.52.23,1.17.32,1.9.05.43.09.85.1,1.29,0,.13,0,.28,0,.46,0,0,0,.61,0,.65a17,17,0,0,1-2.55,8.2,20.09,20.09,0,0,1-1.48,2.07v0c0,.2.08.4.12.61a5.72,5.72,0,0,1,4.2,4.31,5.9,5.9,0,0,1,.14,1,11.82,11.82,0,0,1,2.82,5.38c.71,3.33-.18,6.71-2.66,10l-.2.26c.34.91.64,1.8.91,2.69a23.56,23.56,0,0,1,.62,2.29,38.6,38.6,0,0,1,.84,4.79,8.23,8.23,0,0,1,.51,1.85l1.54,1.84c.82,1,1.91,2.28,2.36,2.79a5.33,5.33,0,0,1,1.88,3.88,5.33,5.33,0,0,1-4.68,7.89l-.52,0H114a8.64,8.64,0,0,0-3.18,1.26c-.59.32-1.22.65-1.88.95l-.12.25-.17.35c-.28.55-.6,1.13-1,1.75l-.52.84c-1,1.66-1.5,2.67-2.18,3.95l-.45.84-.13.22a5.85,5.85,0,0,1-.34,3.12,7.11,7.11,0,0,1-1.85,6.35,6.28,6.28,0,0,1-1.85,1.5c-1,.55-2.79,1.17-7.42,1.17a23,23,0,0,1-5.92-.58,6.47,6.47,0,0,1-1.07-.33A7.09,7.09,0,0,1,81.56,135a5.86,5.86,0,0,1-.42-2.11l-.59-.09-1-.12-.36,0-1.14-.1q-2-.14-4.09-.14h-.3a46.44,46.44,0,0,0-7.55.58,5.85,5.85,0,0,1-.41,2,7.08,7.08,0,0,1-4.44,8.1,6.54,6.54,0,0,1-1.07.33,22.62,22.62,0,0,1-5.92.58c-4.63,0-6.39-.62-7.41-1.16a6.3,6.3,0,0,1-1.86-1.5A7.1,7.1,0,0,1,43.14,135a5.86,5.86,0,0,1-.2-3.74l-.59-1.07c-.39-.72-.75-1.37-1.34-2.33l-.06-.09c-.31-.43-.62-.89-.92-1.37l-.34-.57-.09-.15c-.22-.38-.43-.75-.63-1.13l-.27-.54A15.42,15.42,0,0,1,36,122.82a3.7,3.7,0,0,1-.62.06A2.59,2.59,0,0,1,33.2,122a2.24,2.24,0,0,1-1.64,1h0s-.06-.1-.09-.1a2.81,2.81,0,0,1-2.11-.94,2.25,2.25,0,0,1-1.88.94,3.15,3.15,0,0,1-.59-.07,2.34,2.34,0,0,1-1.18-.59,8.64,8.64,0,0,1-3,.61,4,4,0,0,1-2.46-.75,5,5,0,0,1-1.57-2,8.42,8.42,0,0,1-1.37-.37,2,2,0,0,1-1.21-1.3,2.67,2.67,0,0,1,.55-2.2,1.85,1.85,0,0,1,1.5-.77,1.91,1.91,0,0,1,.49.07,7.87,7.87,0,0,1,.36-1,4.84,4.84,0,0,1,4.2-3.16h.12a3.8,3.8,0,0,1,2.81,1.08,2,2,0,0,1,.92-.87,5.35,5.35,0,0,1,1.87-3.31c.47-.52,1.54-1.8,2.34-2.77l1.71-2a7.56,7.56,0,0,1,.82-2.89,5.83,5.83,0,0,1,.37-.6,42.88,42.88,0,0,1,2.93-8.11h-.4a8.13,8.13,0,0,1-8-6.57,7,7,0,0,1-3.48-4.76c0-.22-.07-.44-.1-.65a6.85,6.85,0,0,1-.8-6.26,7.05,7.05,0,0,1,1.86-5.79q-.06-.26-.1-.53l-.08-.56c0-.13,0-.26,0-.4s0-.26-.07-.39A5.89,5.89,0,0,1,26,64a6.52,6.52,0,0,1,2.9-6.16,6.24,6.24,0,0,1,4.55-3.11l2-.29.38-.81a5.29,5.29,0,0,1,.37-.66c.37-.76.8-1.61,1.29-2.55.65-1.28,1.36-2.67,2.08-4.16l-.48-1-.26-.53a7,7,0,0,1-.57-5.28,9.44,9.44,0,0,1,.86-2.2,20.16,20.16,0,0,1-4.57-9.83,9.55,9.55,0,0,1,2-7.44,10.31,10.31,0,0,1,4-3,12.31,12.31,0,0,1,2.2-.89A8.56,8.56,0,0,1,46,8.26a5.75,5.75,0,0,1,7.16,0l.62,0c.84,0,1.82.08,2.87.22a26.9,26.9,0,0,1,3.15-3.26l.59-.54A5.76,5.76,0,0,1,65.93,0h.25m0-.25h-.25A6,6,0,0,0,60.2,4.62l-.47.44-.05,0a27.78,27.78,0,0,0-3.09,3.18c-1-.13-1.93-.17-2.75-.21h-.06L53.3,8a6.05,6.05,0,0,0-1.82-1,6,6,0,0,0-5.59,1,8.82,8.82,0,0,0-3.35,7.81,12.58,12.58,0,0,0-2,.85,10.53,10.53,0,0,0-4.11,3.1,9.8,9.8,0,0,0-2.06,7.63,20.3,20.3,0,0,0,4.52,9.83A9.74,9.74,0,0,0,38,39.39a7.21,7.21,0,0,0,.6,5.46l.2.4.06.12.43.88c-.69,1.42-1.38,2.78-2,4l0,.07c-.48.94-.91,1.8-1.29,2.56a5.15,5.15,0,0,0-.38.67l-.32.69-1.89.27a6.52,6.52,0,0,0-4.7,3.18,6.73,6.73,0,0,0-3,6.33,6.13,6.13,0,0,0-.06,2c0,.14,0,.27.07.41s0,.24,0,.38l.08.56q0,.22.07.42a7.29,7.29,0,0,0-1.85,5.83,7.12,7.12,0,0,0-.28,3.75A7,7,0,0,0,24.93,80c0,.2.05.41.09.61a7.16,7.16,0,0,0,3.51,4.87,8.35,8.35,0,0,0,8.2,6.66A42.41,42.41,0,0,0,34,99.91a6.12,6.12,0,0,0-.36.59,7.82,7.82,0,0,0-.84,2.91l-1.66,2c-.79.94-1.87,2.24-2.34,2.76a5.55,5.55,0,0,0-1.91,3.32,2.34,2.34,0,0,0-.75.65,4.06,4.06,0,0,0-2.76-.95h-.13a5.09,5.09,0,0,0-4.42,3.31,8.11,8.11,0,0,0-.31.79l-.32,0a2.1,2.1,0,0,0-1.7.87,2.9,2.9,0,0,0-.59,2.41A2.21,2.21,0,0,0,17.24,120a8.18,8.18,0,0,0,1.28.36,5.28,5.28,0,0,0,1.59,1.93,4.23,4.23,0,0,0,2.61.8,8.83,8.83,0,0,0,2.92-.58,2.57,2.57,0,0,0,1.18.55h.06a3,3,0,0,0,.57.07,2.45,2.45,0,0,0,1.89-.82,3.07,3.07,0,0,0,2,.82.26.26,0,0,0,.21.11,2.3,2.3,0,0,0,1.67-.86,2.94,2.94,0,0,0,2.13.74,3.84,3.84,0,0,0,.58,0,15.79,15.79,0,0,0,2.62,1.12l.23.45c.2.39.41.76.63,1.14l.09.15.34.58c.29.46.6.93.93,1.39l0,.07c.57.94.93,1.59,1.3,2.28l0,0,.55,1a6.15,6.15,0,0,0,.21,3.73,7.37,7.37,0,0,0,1.93,6.5,6.52,6.52,0,0,0,1.92,1.55c1,.56,2.84,1.19,7.53,1.19a22.76,22.76,0,0,0,6-.59,6.73,6.73,0,0,0,1.1-.34A7.33,7.33,0,0,0,66,135a6.08,6.08,0,0,0,.4-1.84,46.8,46.8,0,0,1,7.31-.54H74c1.4,0,2.77,0,4.07.14l1.14.1.35,0,1,.12.38.06a6.08,6.08,0,0,0,.4,1.92,7.33,7.33,0,0,0,4.61,8.31,6.72,6.72,0,0,0,1.11.35,23.21,23.21,0,0,0,6,.59c4.68,0,6.49-.64,7.53-1.2a6.54,6.54,0,0,0,1.93-1.56,7.36,7.36,0,0,0,1.91-6.49,6.11,6.11,0,0,0,.34-3.1l.09-.15.45-.84c.69-1.29,1.23-2.29,2.18-3.94l.52-.84c.38-.63.7-1.21,1-1.76l.17-.36.08-.16c.63-.29,1.23-.6,1.8-.91a8.62,8.62,0,0,1,3.07-1.23h.12l.55,0a5.58,5.58,0,0,0,4.93-8.21,5.59,5.59,0,0,0-2-4c-.43-.48-1.53-1.8-2.33-2.76l-.17-.21L113.84,105a8.49,8.49,0,0,0-.5-1.8,38.93,38.93,0,0,0-.85-4.79,23.74,23.74,0,0,0-.63-2.31c-.26-.85-.55-1.72-.87-2.57l.12-.16c2.52-3.39,3.44-6.83,2.71-10.24A12.05,12.05,0,0,0,111,77.7a6.18,6.18,0,0,0-.14-1,6,6,0,0,0-4.22-4.45q0-.19-.07-.37a20.45,20.45,0,0,0,1.44-2,17.23,17.23,0,0,0,2.59-8.32s0-.66,0-.66c0-.19,0-.35,0-.48,0-.39,0-.79-.1-1.31-.09-.74-.21-1.39-.32-1.92A61.09,61.09,0,0,0,108.53,51a5.57,5.57,0,0,0-.57-1.23c-.26-.87-.53-1.8-.78-2.74a20.91,20.91,0,0,0,.77-2.23,6.66,6.66,0,0,0,1.27-1.66,7.55,7.55,0,0,0,.82-3.63,11.66,11.66,0,0,0-.05-1.19,19.19,19.19,0,0,0,4.52-11.15,12.92,12.92,0,0,0-4.22-10.06,6.53,6.53,0,0,0-4.08-1.73h-.62a9.51,9.51,0,0,0-1.09-.06,15.7,15.7,0,0,0-5.89,1.37,25.35,25.35,0,0,0-2-1.85C93,11.74,86.44,8,76.31,8h-.8c-1-5-4.69-8.26-9.33-8.26Z" transform="translate(-15.8 0.25)"/></g></g></svg>